{"glyphs":{"0":{"ha":1014,"x_min":0,"x_max":0,"o":"m 507 -28 b 61 503 232 -27 60 170 b 507 1024 62 836 232 1024 b 953 503 782 1024 953 836 b 507 -28 952 169 782 -28 m 507 195 b 669 503 602 195 669 291 b 507 803 668 711 602 803 b 345 503 412 803 346 711 b 507 195 344 291 412 195 "},"1":{"ha":702,"x_min":0,"x_max":0,"o":"m 562 0 l 288 0 l 288 758 l 282 758 l 61 625 l 61 858 l 310 1010 l 562 1010 "},"2":{"ha":898,"x_min":0,"x_max":0,"o":"m 67 197 l 444 509 b 564 689 518 571 564 617 b 435 813 564 766 510 813 b 308 681 359 813 307 765 l 47 681 b 435 1024 47 893 200 1024 b 832 712 677 1024 832 901 b 543 304 832 595 773 496 l 448 225 l 448 219 l 842 219 l 842 0 l 67 0 "},"3":{"ha":937,"x_min":0,"x_max":0,"o":"m 462 -14 b 51 308 222 -14 52 119 l 327 308 b 464 207 328 249 385 207 b 592 314 540 207 593 251 b 442 418 593 375 531 418 l 339 418 l 339 608 l 442 608 b 580 712 524 608 581 651 b 464 813 581 771 533 813 b 333 708 388 813 334 769 l 71 708 b 464 1024 72 893 235 1024 b 844 730 688 1024 845 900 b 637 527 845 617 758 540 l 637 519 b 882 290 800 501 883 414 b 462 -14 883 112 709 -14 "},"4":{"ha":975,"x_min":0,"x_max":0,"o":"m 57 371 l 464 1010 l 811 1010 l 811 371 l 927 371 l 927 158 l 811 158 l 811 0 l 548 0 l 548 158 l 57 158 m 554 726 l 546 726 l 327 379 l 327 371 l 554 371 "},"5":{"ha":929,"x_min":0,"x_max":0,"o":"m 472 -14 b 71 308 239 -14 73 119 l 337 308 b 472 193 339 238 399 193 b 614 339 555 193 614 251 b 472 485 614 428 555 485 b 337 406 413 485 361 456 l 97 454 l 136 1010 l 815 1010 l 815 791 l 361 791 l 341 568 l 347 568 b 564 675 379 629 462 675 b 878 347 744 675 878 539 b 472 -14 878 136 718 -14 "},"6":{"ha":951,"x_min":0,"x_max":0,"o":"m 489 -14 b 51 493 254 -14 50 126 b 491 1024 52 821 226 1024 b 882 708 714 1024 865 881 l 612 708 b 491 791 599 765 549 791 b 324 519 376 791 325 682 l 329 519 b 588 667 368 612 472 667 b 894 347 771 667 895 532 b 489 -14 895 130 728 -14 m 487 193 b 627 337 569 193 628 254 b 487 481 628 421 569 481 b 347 337 407 481 348 421 b 487 193 348 254 407 193 "},"7":{"ha":848,"x_min":0,"x_max":0,"o":"m 509 785 l 509 791 l 43 791 l 43 1010 l 793 1010 l 793 791 l 395 0 l 112 0 "},"8":{"ha":959,"x_min":0,"x_max":0,"o":"m 479 -14 b 55 274 235 -14 55 110 b 290 519 55 399 158 499 l 290 527 b 93 750 175 546 93 637 b 479 1024 93 908 256 1024 b 866 750 702 1024 866 908 b 669 527 866 637 782 546 l 669 519 b 904 274 799 499 904 399 b 479 -14 904 110 724 -14 m 479 176 b 614 298 557 176 614 227 b 479 418 614 367 557 418 b 345 298 402 418 345 368 b 479 176 345 228 402 176 m 479 608 b 598 718 548 608 598 654 b 479 827 598 781 548 827 b 361 718 411 827 361 781 b 479 608 361 655 411 608 "},"9":{"ha":951,"x_min":0,"x_max":0,"o":"m 462 1024 b 900 521 697 1024 899 884 b 460 -14 901 189 725 -14 b 69 306 236 -14 86 128 l 339 306 b 460 219 352 245 401 219 b 627 495 575 219 626 327 l 621 495 b 363 347 583 402 478 347 b 57 665 181 347 58 481 b 462 1024 56 880 222 1024 m 464 817 b 324 675 382 817 323 756 b 464 533 325 594 382 533 b 604 675 544 533 605 594 b 464 817 603 756 544 817 "},"A":{"ha":1105,"x_min":0,"x_max":0,"o":"m 32 0 l 365 1010 l 740 1010 l 1073 0 l 777 0 l 719 193 l 386 193 l 327 0 m 657 399 l 556 732 l 548 732 l 448 399 "},"Ä":{"ha":1105,"x_min":0,"x_max":0,"o":"m 32 0 l 365 1010 l 740 1010 l 1073 0 l 777 0 l 719 193 l 386 193 l 327 0 m 397 1099 b 276 1213 329 1099 276 1150 b 397 1328 276 1276 329 1328 b 515 1213 462 1328 515 1276 b 397 1099 515 1150 462 1099 m 710 1099 b 590 1213 643 1099 590 1150 b 710 1328 590 1276 643 1328 b 829 1213 775 1328 829 1276 b 710 1099 829 1150 775 1099 m 657 399 l 556 732 l 548 732 l 448 399 "},"Ã":{"ha":1105,"x_min":0,"x_max":0,"o":"m 32 0 l 365 1010 l 740 1010 l 1073 0 l 777 0 l 719 193 l 386 193 l 327 0 m 284 1109 b 452 1320 284 1251 359 1319 b 579 1268 512 1320 549 1291 b 635 1239 599 1252 617 1239 b 689 1316 673 1239 688 1268 l 821 1316 b 653 1103 819 1176 745 1104 b 528 1154 592 1102 557 1130 b 470 1184 508 1170 490 1184 b 418 1109 438 1184 418 1158 m 657 399 l 556 732 l 548 732 l 448 399 "},"À":{"ha":1105,"x_min":0,"x_max":0,"o":"m 32 0 l 365 1010 l 740 1010 l 1073 0 l 777 0 l 719 193 l 386 193 l 327 0 m 316 1326 l 548 1326 l 643 1105 l 464 1105 m 657 399 l 556 732 l 548 732 l 448 399 "},"Á":{"ha":1105,"x_min":0,"x_max":0,"o":"m 32 0 l 365 1010 l 740 1010 l 1073 0 l 777 0 l 719 193 l 386 193 l 327 0 m 556 1326 l 789 1326 l 641 1105 l 462 1105 m 657 399 l 556 732 l 548 732 l 448 399 "},"Â":{"ha":1105,"x_min":0,"x_max":0,"o":"m 32 0 l 365 1010 l 740 1010 l 1073 0 l 777 0 l 719 193 l 386 193 l 327 0 m 552 1209 l 456 1101 l 231 1101 l 231 1107 l 458 1332 l 647 1332 l 874 1107 l 874 1101 l 649 1101 m 657 399 l 556 732 l 548 732 l 448 399 "},"Å":{"ha":1105,"x_min":0,"x_max":0,"o":"m 32 0 l 365 1010 l 740 1010 l 1073 0 l 777 0 l 719 193 l 386 193 l 327 0 m 552 1061 b 395 1213 465 1061 395 1129 b 552 1365 395 1297 465 1365 b 710 1213 640 1365 710 1297 b 552 1061 710 1129 640 1061 m 657 399 l 556 732 l 548 732 l 448 399 m 552 1154 b 616 1213 586 1155 616 1181 b 552 1272 616 1246 587 1273 b 489 1213 518 1272 489 1246 b 552 1154 489 1181 517 1154 "},"Ǻ":{"ha":1105,"x_min":0,"x_max":0,"o":"m 32 0 l 365 1010 l 740 1010 l 1073 0 l 777 0 l 719 193 l 386 193 l 327 0 m 552 1072 b 395 1217 465 1072 395 1137 b 552 1361 395 1297 465 1361 b 710 1217 640 1361 710 1297 b 552 1072 710 1137 640 1072 m 657 399 l 556 732 l 548 732 l 448 399 m 572 1568 l 781 1568 l 633 1413 l 473 1413 m 552 1161 b 616 1217 586 1161 616 1186 b 552 1273 616 1248 587 1273 b 489 1217 518 1272 489 1248 b 552 1161 489 1186 517 1160 "},"":{"ha":1105,"x_min":0,"x_max":0,"o":"m 32 0 l 365 1010 l 740 1010 l 1073 0 b 975 -79 1010 -20 974 -39 b 1020 -130 974 -112 994 -130 b 1061 -122 1037 -130 1049 -124 l 1093 -245 b 975 -274 1067 -258 1027 -274 b 793 -144 883 -274 818 -227 b 794 0 778 -96 779 -42 l 777 0 l 719 193 l 386 193 l 327 0 m 552 1061 b 395 1213 465 1061 395 1129 b 552 1365 395 1297 465 1365 b 710 1213 640 1365 710 1297 b 552 1061 710 1129 640 1061 m 657 399 l 556 732 l 548 732 l 448 399 m 552 1154 b 616 1213 586 1155 616 1181 b 552 1272 616 1246 587 1273 b 489 1213 518 1272 489 1246 b 552 1154 489 1181 517 1154 "},"Ā":{"ha":1105,"x_min":0,"x_max":0,"o":"m 32 0 l 365 1010 l 740 1010 l 1073 0 l 777 0 l 719 193 l 386 193 l 327 0 m 799 1138 l 306 1138 l 306 1263 l 799 1263 m 657 399 l 556 732 l 548 732 l 448 399 "},"Ă":{"ha":1105,"x_min":0,"x_max":0,"o":"m 32 0 l 365 1010 l 740 1010 l 1073 0 l 777 0 l 719 193 l 386 193 l 327 0 m 823 1282 b 552 1071 822 1154 718 1071 b 282 1282 386 1071 282 1154 l 452 1282 b 552 1199 451 1241 479 1199 b 651 1282 623 1199 651 1239 m 657 399 l 556 732 l 548 732 l 448 399 "},"Ą":{"ha":1105,"x_min":0,"x_max":0,"o":"m 32 0 l 365 1010 l 740 1010 l 1073 0 b 975 -79 1010 -20 974 -39 b 1020 -130 974 -112 994 -130 b 1061 -122 1037 -130 1049 -124 l 1093 -245 b 975 -274 1067 -258 1027 -274 b 793 -144 883 -274 818 -227 b 794 0 778 -96 779 -42 l 777 0 l 719 193 l 386 193 l 327 0 m 657 399 l 556 732 l 548 732 l 448 399 "},"Ǎ":{"ha":1105,"x_min":0,"x_max":0,"o":"m 32 0 l 365 1010 l 740 1010 l 1073 0 l 777 0 l 719 193 l 386 193 l 327 0 m 552 1223 l 649 1332 l 874 1332 l 874 1326 l 647 1101 l 458 1101 l 231 1326 l 231 1332 l 456 1332 m 657 399 l 556 732 l 548 732 l 448 399 "},"Ǟ":{"ha":1105,"x_min":0,"x_max":0,"o":"m 32 0 l 365 1010 l 740 1010 l 1073 0 l 777 0 l 719 193 l 386 193 l 327 0 m 799 1391 l 306 1391 l 306 1515 l 799 1515 m 397 1099 b 276 1213 329 1099 276 1150 b 397 1328 276 1276 329 1328 b 515 1213 462 1328 515 1276 b 397 1099 515 1150 462 1099 m 710 1099 b 590 1213 643 1099 590 1150 b 710 1328 590 1276 643 1328 b 829 1213 775 1328 829 1276 b 710 1099 829 1150 775 1099 m 657 399 l 556 732 l 548 732 l 448 399 "},"Ǡ":{"ha":1105,"x_min":0,"x_max":0,"o":"m 32 0 l 365 1010 l 740 1010 l 1073 0 l 777 0 l 719 193 l 386 193 l 327 0 m 799 1391 l 306 1391 l 306 1515 l 799 1515 m 553 1098 b 433 1213 486 1098 433 1150 b 553 1327 433 1276 486 1327 b 673 1213 619 1327 673 1276 b 553 1098 673 1150 619 1098 m 657 399 l 556 732 l 548 732 l 448 399 "},"Ȁ":{"ha":1105,"x_min":0,"x_max":0,"o":"m 32 0 l 365 1010 l 740 1010 l 1073 0 l 777 0 l 719 193 l 386 193 l 327 0 m 190 1326 l 423 1326 l 518 1105 l 338 1105 m 510 1326 l 730 1326 l 780 1105 l 606 1105 m 657 399 l 556 732 l 548 732 l 448 399 "},"Ȃ":{"ha":1105,"x_min":0,"x_max":0,"o":"m 32 0 l 365 1010 l 740 1010 l 1073 0 l 777 0 l 719 193 l 386 193 l 327 0 m 280 1128 b 550 1347 279 1257 384 1347 b 823 1128 715 1347 822 1257 l 651 1128 b 550 1209 650 1170 622 1209 b 452 1128 478 1209 451 1170 l 280 1128 m 657 399 l 556 732 l 548 732 l 448 399 "},"Ȧ":{"ha":1105,"x_min":0,"x_max":0,"o":"m 32 0 l 365 1010 l 740 1010 l 1073 0 l 777 0 l 719 193 l 386 193 l 327 0 m 552 1089 b 418 1213 478 1089 418 1145 b 552 1338 418 1282 478 1338 b 687 1213 626 1338 687 1282 b 552 1089 687 1145 626 1089 m 657 399 l 556 732 l 548 732 l 448 399 "},"Ḁ":{"ha":1105,"x_min":0,"x_max":0,"o":"m 32 0 l 365 1010 l 740 1010 l 1073 0 l 777 0 l 719 193 l 386 193 l 327 0 m 412 -146 b 552 -30 412 -83 472 -30 b 689 -146 629 -30 689 -83 b 552 -264 689 -215 629 -264 b 412 -146 472 -264 412 -213 m 657 399 l 556 732 l 548 732 l 448 399 m 503 -146 b 552 -191 503 -174 523 -191 b 596 -146 578 -191 596 -174 b 552 -105 596 -122 578 -105 b 503 -146 523 -105 503 -122 "},"Ạ":{"ha":1105,"x_min":0,"x_max":0,"o":"m 32 0 l 365 1010 l 740 1010 l 1073 0 l 777 0 l 719 193 l 386 193 l 327 0 m 552 -306 b 418 -182 478 -306 418 -250 b 552 -57 418 -113 478 -57 b 687 -182 626 -57 687 -113 b 552 -306 687 -250 626 -306 m 657 399 l 556 732 l 548 732 l 448 399 "},"Ả":{"ha":1105,"x_min":0,"x_max":0,"o":"m 32 0 l 365 1010 l 740 1010 l 1073 0 l 777 0 l 719 193 l 386 193 l 327 0 m 452 1123 l 434 1199 b 531 1241 504 1201 532 1219 b 438 1282 532 1276 492 1282 l 444 1391 b 754 1255 646 1391 755 1342 b 647 1162 755 1199 701 1170 l 647 1123 m 657 399 l 556 732 l 548 732 l 448 399 "},"Ấ":{"ha":1105,"x_min":0,"x_max":0,"o":"m 32 0 l 365 1010 l 740 1010 l 1073 0 l 777 0 l 719 193 l 386 193 l 327 0 m 657 399 l 556 732 l 548 732 l 448 399 m 491 1221 l 608 1221 l 807 1085 l 649 1085 l 550 1154 l 450 1085 l 294 1085 m 884 1340 l 1059 1340 l 886 1150 l 756 1150 "},"Ầ":{"ha":1105,"x_min":0,"x_max":0,"o":"m 32 0 l 365 1010 l 740 1010 l 1073 0 l 777 0 l 719 193 l 386 193 l 327 0 m 657 399 l 556 732 l 548 732 l 448 399 m 809 1081 l 651 1081 l 552 1150 l 452 1081 l 296 1081 l 493 1217 l 610 1217 m 347 1146 l 219 1146 l 45 1334 l 217 1334 "},"Ẩ":{"ha":1105,"x_min":0,"x_max":0,"o":"m 32 0 l 365 1010 l 740 1010 l 1073 0 l 777 0 l 719 193 l 386 193 l 327 0 m 740 1166 l 724 1229 b 805 1263 781 1231 805 1245 b 726 1298 805 1292 771 1298 l 732 1387 b 955 1274 876 1387 955 1347 b 866 1198 955 1231 909 1205 l 866 1166 m 805 1085 l 645 1085 l 552 1146 l 456 1085 l 296 1085 l 495 1221 l 606 1221 m 657 399 l 556 732 l 548 732 l 448 399 "},"Ẫ":{"ha":1105,"x_min":0,"x_max":0,"o":"m 32 0 l 365 1010 l 740 1010 l 1073 0 l 777 0 l 719 193 l 386 193 l 327 0 m 809 1091 l 649 1091 l 552 1160 l 460 1091 l 296 1091 l 491 1233 l 616 1233 m 657 399 l 556 732 l 548 732 l 448 399 m 736 1365 b 655 1259 735 1312 708 1259 b 499 1300 595 1259 546 1300 b 477 1255 481 1300 477 1280 l 395 1278 b 475 1381 394 1328 422 1381 b 631 1342 522 1381 585 1342 b 651 1397 647 1342 651 1371 "},"Ậ":{"ha":1105,"x_min":0,"x_max":0,"o":"m 32 0 l 365 1010 l 740 1010 l 1073 0 l 777 0 l 719 193 l 386 193 l 327 0 m 552 1209 l 456 1101 l 231 1101 l 231 1107 l 458 1332 l 647 1332 l 874 1107 l 874 1101 l 649 1101 m 552 -306 b 418 -182 478 -306 418 -250 b 552 -57 418 -113 478 -57 b 687 -182 626 -57 687 -113 b 552 -306 687 -250 626 -306 m 657 399 l 556 732 l 548 732 l 448 399 "},"Ắ":{"ha":1105,"x_min":0,"x_max":0,"o":"m 32 0 l 365 1010 l 740 1010 l 1073 0 l 777 0 l 719 193 l 386 193 l 327 0 m 823 1257 b 550 1081 822 1152 716 1081 b 282 1257 386 1081 282 1152 l 432 1257 b 550 1180 432 1219 465 1180 b 669 1257 637 1180 668 1219 m 657 399 l 556 732 l 548 732 l 448 399 m 578 1365 l 746 1365 l 616 1245 l 481 1245 "},"Ằ":{"ha":1105,"x_min":0,"x_max":0,"o":"m 32 0 l 365 1010 l 740 1010 l 1073 0 l 777 0 l 719 193 l 386 193 l 327 0 m 823 1259 b 550 1085 822 1158 718 1085 b 282 1259 386 1085 282 1158 l 432 1259 b 550 1182 432 1221 465 1182 b 669 1259 635 1182 668 1221 m 657 399 l 556 732 l 548 732 l 448 399 m 361 1365 l 529 1365 l 623 1245 l 493 1245 "},"Ẳ":{"ha":1105,"x_min":0,"x_max":0,"o":"m 32 0 l 365 1010 l 740 1010 l 1073 0 l 777 0 l 719 193 l 386 193 l 327 0 m 827 1235 b 548 1063 828 1130 719 1063 b 272 1235 378 1063 273 1130 l 426 1235 b 548 1166 427 1196 463 1166 b 671 1235 636 1166 672 1198 m 464 1263 l 444 1322 b 541 1351 512 1324 542 1336 b 448 1387 542 1383 502 1387 l 454 1472 b 722 1363 630 1472 723 1434 b 616 1290 723 1318 670 1296 l 616 1263 m 657 399 l 556 732 l 548 732 l 448 399 "},"Ẵ":{"ha":1105,"x_min":0,"x_max":0,"o":"m 32 0 l 365 1010 l 740 1010 l 1073 0 l 777 0 l 719 193 l 386 193 l 327 0 m 821 1235 b 548 1061 820 1130 714 1061 b 278 1235 384 1061 278 1130 l 430 1235 b 548 1168 430 1198 461 1168 b 667 1235 631 1168 666 1196 m 758 1422 b 643 1300 757 1359 708 1300 b 470 1342 568 1300 528 1342 b 426 1284 447 1342 426 1318 l 326 1314 b 440 1436 325 1379 372 1436 b 614 1395 499 1436 552 1395 b 653 1454 633 1395 653 1420 m 657 399 l 556 732 l 548 732 l 448 399 "},"Ặ":{"ha":1105,"x_min":0,"x_max":0,"o":"m 32 0 l 365 1010 l 740 1010 l 1073 0 l 777 0 l 719 193 l 386 193 l 327 0 m 823 1282 b 552 1071 822 1154 718 1071 b 282 1282 386 1071 282 1154 l 452 1282 b 552 1199 451 1241 479 1199 b 651 1282 623 1199 651 1239 m 552 -306 b 418 -182 478 -306 418 -250 b 552 -57 418 -113 478 -57 b 687 -182 626 -57 687 -113 b 552 -306 687 -250 626 -306 m 657 399 l 556 732 l 548 732 l 448 399 "},"Α":{"ha":1105,"x_min":0,"x_max":0,"o":"m 32 0 l 365 1010 l 740 1010 l 1073 0 l 777 0 l 719 193 l 386 193 l 327 0 m 657 399 l 556 732 l 548 732 l 448 399 "},"Ά":{"ha":1105,"x_min":0,"x_max":0,"o":"m 32 0 l 365 1010 l 740 1010 l 1073 0 l 777 0 l 719 193 l 386 193 l 327 0 m 103 1089 l 331 1089 l 189 852 l 37 852 m 657 399 l 556 732 l 548 732 l 448 399 "},"Ἀ":{"ha":1105,"x_min":0,"x_max":0,"o":"m 32 0 l 365 1010 l 740 1010 l 1073 0 l 777 0 l 719 193 l 386 193 l 327 0 m 657 399 l 556 732 l 548 732 l 448 399 m 256 939 b 148 765 256 850 205 789 l 87 840 b 140 943 130 860 140 898 l 140 1010 l 256 1010 "},"Ἁ":{"ha":1105,"x_min":0,"x_max":0,"o":"m 32 0 l 365 1010 l 740 1010 l 1073 0 l 777 0 l 719 193 l 386 193 l 327 0 m 657 399 l 556 732 l 548 732 l 448 399 m 118 1010 l 237 1010 l 237 943 b 288 840 238 908 244 862 l 227 765 b 118 939 171 789 119 850 "},"Ἂ":{"ha":1105,"x_min":0,"x_max":0,"o":"m 32 0 l 290 781 l 245 781 l 81 996 l 81 1010 l 231 1010 l 302 818 l 365 1010 l 740 1010 l 1073 0 l 777 0 l 719 193 l 386 193 l 327 0 m 657 399 l 556 732 l 548 732 l 448 399 m 49 955 b -83 765 50 876 0 809 l -138 807 b -81 959 -100 848 -80 896 l -81 1010 l 49 1010 "},"Ἃ":{"ha":1105,"x_min":0,"x_max":0,"o":"m 32 0 l 289 779 l 237 779 l 73 996 l 73 1010 l 225 1010 l 299 811 l 365 1010 l 740 1010 l 1073 0 l 777 0 l 719 193 l 386 193 l 327 0 m 657 399 l 556 732 l 548 732 l 448 399 m -109 1010 l 12 1010 l 12 943 b 65 840 11 908 15 862 l 4 765 b -109 939 -58 789 -109 850 "},"Ἄ":{"ha":1105,"x_min":0,"x_max":0,"o":"m 32 0 l 365 1010 l 740 1010 l 1073 0 l 777 0 l 719 193 l 386 193 l 327 0 m 657 399 l 556 732 l 548 732 l 448 399 m 43 939 b -69 765 42 852 -9 789 l -130 840 b -77 943 -82 862 -78 908 l -77 1010 l 43 1010 m 71 799 l 152 1010 l 302 1010 l 302 996 l 138 779 l 71 779 "},"Ἅ":{"ha":1105,"x_min":0,"x_max":0,"o":"m 32 0 l 365 1010 l 740 1010 l 1073 0 l 777 0 l 719 193 l 386 193 l 327 0 m 657 399 l 556 732 l 548 732 l 448 399 m 69 799 l 146 1010 l 298 1010 l 298 996 l 132 779 l 69 779 m -39 765 b -148 939 -92 787 -147 846 l -148 1010 l -30 1010 l -30 943 b 22 840 -29 898 -21 860 l -39 765 "},"Ἆ":{"ha":1105,"x_min":0,"x_max":0,"o":"m 32 0 l 365 1010 l 740 1010 l 1073 0 l 777 0 l 719 193 l 386 193 l 327 0 m 399 1152 b 284 1030 399 1087 351 1030 b 112 1073 211 1030 174 1073 b 71 1014 87 1073 71 1046 l -32 1044 b 83 1168 -32 1109 16 1168 b 254 1126 142 1168 197 1126 b 296 1184 278 1126 296 1152 m 657 399 l 556 732 l 548 732 l 448 399 m 253 935 b 138 793 253 856 199 811 l 85 854 b 136 941 132 868 136 909 l 136 994 l 253 994 "},"Ἇ":{"ha":1105,"x_min":0,"x_max":0,"o":"m 32 0 l 365 1010 l 740 1010 l 1073 0 l 777 0 l 719 193 l 386 193 l 327 0 m 371 1152 b 256 1030 371 1087 324 1030 b 85 1073 183 1030 146 1073 b 43 1014 59 1073 43 1046 l -59 1044 b 55 1168 -59 1109 -12 1168 b 227 1126 114 1168 170 1126 b 268 1184 251 1126 268 1152 m 657 399 l 556 732 l 548 732 l 448 399 m 110 994 l 227 994 l 227 941 b 278 854 227 909 231 868 l 223 793 b 110 935 170 809 110 852 "},"Ᾰ":{"ha":1105,"x_min":0,"x_max":0,"o":"m 32 0 l 365 1010 l 740 1010 l 1073 0 l 777 0 l 719 193 l 386 193 l 327 0 m 823 1282 b 552 1071 822 1154 718 1071 b 282 1282 386 1071 282 1154 l 452 1282 b 552 1199 451 1241 479 1199 b 651 1282 623 1199 651 1239 m 657 399 l 556 732 l 548 732 l 448 399 "},"Ᾱ":{"ha":1105,"x_min":0,"x_max":0,"o":"m 32 0 l 365 1010 l 740 1010 l 1073 0 l 777 0 l 719 193 l 386 193 l 327 0 m 799 1138 l 306 1138 l 306 1263 l 799 1263 m 657 399 l 556 732 l 548 732 l 448 399 "},"Ὰ":{"ha":1105,"x_min":0,"x_max":0,"o":"m 32 0 l 289 779 l 237 779 l 73 996 l 73 1010 l 223 1010 l 298 807 l 365 1010 l 740 1010 l 1073 0 l 777 0 l 719 193 l 386 193 l 327 0 m 657 399 l 556 732 l 548 732 l 448 399 "},"Ⱥ":{"ha":1105,"x_min":0,"x_max":0,"o":"m 801 825 l 1073 0 l 777 0 l 719 193 l 610 193 l 513 -128 l 373 -128 l 470 193 l 386 193 l 327 0 l 32 0 l 365 1010 l 717 1010 l 756 1138 l 896 1138 m 594 605 l 556 732 l 548 732 l 448 399 l 532 399 "},"Ά":{"ha":1105,"x_min":0,"x_max":0,"o":"m 32 0 l 365 1010 l 740 1010 l 1073 0 l 777 0 l 719 193 l 386 193 l 327 0 m 43 876 l 122 1083 l 339 1083 l 339 1069 l 176 852 l 43 852 m 657 399 l 556 732 l 548 732 l 448 399 "},"А":{"ha":1105,"x_min":0,"x_max":0,"o":"m 32 0 l 365 1010 l 740 1010 l 1073 0 l 777 0 l 719 193 l 386 193 l 327 0 m 657 399 l 556 732 l 548 732 l 448 399 "},"Ӑ":{"ha":1105,"x_min":0,"x_max":0,"o":"m 32 0 l 365 1010 l 740 1010 l 1073 0 l 777 0 l 719 193 l 386 193 l 327 0 m 823 1282 b 552 1071 822 1154 718 1071 b 282 1282 386 1071 282 1154 l 452 1282 b 552 1199 451 1241 479 1199 b 651 1282 623 1199 651 1239 m 657 399 l 556 732 l 548 732 l 448 399 "},"Ӓ":{"ha":1105,"x_min":0,"x_max":0,"o":"m 32 0 l 365 1010 l 740 1010 l 1073 0 l 777 0 l 719 193 l 386 193 l 327 0 m 397 1099 b 276 1213 329 1099 276 1150 b 397 1328 276 1276 329 1328 b 515 1213 462 1328 515 1276 b 397 1099 515 1150 462 1099 m 710 1099 b 590 1213 643 1099 590 1150 b 710 1328 590 1276 643 1328 b 829 1213 775 1328 829 1276 b 710 1099 829 1150 775 1099 m 657 399 l 556 732 l 548 732 l 448 399 "},"ᾈ":{"ha":1105,"x_min":0,"x_max":0,"o":"m 32 0 l 365 1010 l 740 1010 l 1073 0 l 777 0 l 719 193 l 386 193 l 327 0 m 623 -335 b 485 -207 549 -335 485 -298 l 485 -69 l 625 -69 l 625 -207 b 665 -239 625 -227 632 -239 b 696 -237 681 -239 689 -237 l 696 -326 b 623 -335 673 -331 652 -335 m 657 399 l 556 732 l 548 732 l 448 399 m 256 939 b 148 765 256 850 205 789 l 87 840 b 140 943 130 860 140 898 l 140 1010 l 256 1010 "},"ᾉ":{"ha":1105,"x_min":0,"x_max":0,"o":"m 32 0 l 365 1010 l 740 1010 l 1073 0 l 777 0 l 719 193 l 386 193 l 327 0 m 623 -335 b 485 -207 549 -335 485 -298 l 485 -69 l 625 -69 l 625 -207 b 665 -239 625 -227 632 -239 b 696 -237 681 -239 689 -237 l 696 -326 b 623 -335 673 -331 652 -335 m 657 399 l 556 732 l 548 732 l 448 399 m 118 1010 l 237 1010 l 237 943 b 288 840 238 908 244 862 l 227 765 b 118 939 171 789 119 850 "},"ᾊ":{"ha":1105,"x_min":0,"x_max":0,"o":"m 32 0 l 290 781 l 245 781 l 81 996 l 81 1010 l 231 1010 l 302 818 l 365 1010 l 740 1010 l 1073 0 l 777 0 l 719 193 l 386 193 l 327 0 m 623 -335 b 485 -207 549 -335 485 -298 l 485 -69 l 625 -69 l 625 -207 b 665 -239 625 -227 632 -239 b 696 -237 681 -239 689 -237 l 696 -326 b 623 -335 673 -331 652 -335 m 657 399 l 556 732 l 548 732 l 448 399 m 49 955 b -83 765 50 876 0 809 l -138 807 b -81 959 -100 848 -80 896 l -81 1010 l 49 1010 "},"ᾋ":{"ha":1105,"x_min":0,"x_max":0,"o":"m 32 0 l 289 779 l 237 779 l 73 996 l 73 1010 l 225 1010 l 299 811 l 365 1010 l 740 1010 l 1073 0 l 777 0 l 719 193 l 386 193 l 327 0 m 623 -335 b 485 -207 549 -335 485 -298 l 485 -69 l 625 -69 l 625 -207 b 665 -239 625 -227 632 -239 b 696 -237 681 -239 689 -237 l 696 -326 b 623 -335 673 -331 652 -335 m 657 399 l 556 732 l 548 732 l 448 399 m -109 1010 l 12 1010 l 12 943 b 65 840 11 908 15 862 l 4 765 b -109 939 -58 789 -109 850 "},"ᾌ":{"ha":1105,"x_min":0,"x_max":0,"o":"m 32 0 l 365 1010 l 740 1010 l 1073 0 l 777 0 l 719 193 l 386 193 l 327 0 m 623 -335 b 485 -207 549 -335 485 -298 l 485 -69 l 625 -69 l 625 -207 b 665 -239 625 -227 632 -239 b 696 -237 681 -239 689 -237 l 696 -326 b 623 -335 673 -331 652 -335 m 657 399 l 556 732 l 548 732 l 448 399 m 43 939 b -69 765 42 852 -9 789 l -130 840 b -77 943 -82 862 -78 908 l -77 1010 l 43 1010 m 71 799 l 152 1010 l 302 1010 l 302 996 l 138 779 l 71 779 "},"ᾍ":{"ha":1105,"x_min":0,"x_max":0,"o":"m 32 0 l 365 1010 l 740 1010 l 1073 0 l 777 0 l 719 193 l 386 193 l 327 0 m 623 -335 b 485 -207 549 -335 485 -298 l 485 -69 l 625 -69 l 625 -207 b 665 -239 625 -227 632 -239 b 696 -237 681 -239 689 -237 l 696 -326 b 623 -335 673 -331 652 -335 m 657 399 l 556 732 l 548 732 l 448 399 m 69 799 l 146 1010 l 298 1010 l 298 996 l 132 779 l 69 779 m -39 765 b -148 939 -92 787 -147 846 l -148 1010 l -30 1010 l -30 943 b 22 840 -29 898 -21 860 l -39 765 "},"ᾎ":{"ha":1105,"x_min":0,"x_max":0,"o":"m 32 0 l 365 1010 l 740 1010 l 1073 0 l 777 0 l 719 193 l 386 193 l 327 0 m 399 1152 b 284 1030 399 1087 351 1030 b 112 1073 211 1030 174 1073 b 71 1014 87 1073 71 1046 l -32 1044 b 83 1168 -32 1109 16 1168 b 254 1126 142 1168 197 1126 b 296 1184 278 1126 296 1152 m 623 -335 b 485 -207 549 -335 485 -298 l 485 -69 l 625 -69 l 625 -207 b 665 -239 625 -227 632 -239 b 696 -237 681 -239 689 -237 l 696 -326 b 623 -335 673 -331 652 -335 m 657 399 l 556 732 l 548 732 l 448 399 m 253 935 b 138 793 253 856 199 811 l 85 854 b 136 941 132 868 136 909 l 136 994 l 253 994 "},"ᾏ":{"ha":1105,"x_min":0,"x_max":0,"o":"m 32 0 l 365 1010 l 740 1010 l 1073 0 l 777 0 l 719 193 l 386 193 l 327 0 m 371 1152 b 256 1030 371 1087 324 1030 b 85 1073 183 1030 146 1073 b 43 1014 59 1073 43 1046 l -59 1044 b 55 1168 -59 1109 -12 1168 b 227 1126 114 1168 170 1126 b 268 1184 251 1126 268 1152 m 623 -335 b 485 -207 549 -335 485 -298 l 485 -69 l 625 -69 l 625 -207 b 665 -239 625 -227 632 -239 b 696 -237 681 -239 689 -237 l 696 -326 b 623 -335 673 -331 652 -335 m 657 399 l 556 732 l 548 732 l 448 399 m 110 994 l 227 994 l 227 941 b 278 854 227 909 231 868 l 223 793 b 110 935 170 809 110 852 "},"ᾼ":{"ha":1105,"x_min":0,"x_max":0,"o":"m 32 0 l 365 1010 l 740 1010 l 1073 0 l 777 0 l 719 193 l 386 193 l 327 0 m 623 -335 b 485 -207 549 -335 485 -298 l 485 -69 l 625 -69 l 625 -207 b 665 -239 625 -227 632 -239 b 696 -237 681 -239 689 -237 l 696 -326 b 623 -335 673 -331 652 -335 m 657 399 l 556 732 l 548 732 l 448 399 "},"Λ":{"ha":1105,"x_min":0,"x_max":0,"o":"m 32 0 l 365 1010 l 740 1010 l 1073 0 l 777 0 l 556 732 l 548 732 l 327 0 "},"Æ":{"ha":1468,"x_min":0,"x_max":0,"o":"m 426 1010 l 1397 1010 l 1397 789 l 943 789 l 943 616 l 1359 616 l 1359 395 l 943 395 l 943 221 l 1395 221 l 1395 0 l 669 0 l 669 193 l 404 193 l 333 0 l 32 0 m 669 399 l 669 732 l 600 732 l 478 399 "},"Ǣ":{"ha":1468,"x_min":0,"x_max":0,"o":"m 426 1010 l 1397 1010 l 1397 789 l 943 789 l 943 616 l 1359 616 l 1359 395 l 943 395 l 943 221 l 1395 221 l 1395 0 l 669 0 l 669 193 l 404 193 l 333 0 l 32 0 m 1164 1138 l 671 1138 l 671 1263 l 1164 1263 m 669 399 l 669 732 l 600 732 l 478 399 "},"Ǽ":{"ha":1468,"x_min":0,"x_max":0,"o":"m 426 1010 l 1397 1010 l 1397 789 l 943 789 l 943 616 l 1359 616 l 1359 395 l 943 395 l 943 221 l 1395 221 l 1395 0 l 669 0 l 669 193 l 404 193 l 333 0 l 32 0 m 921 1326 l 1154 1326 l 1006 1105 l 827 1105 m 669 399 l 669 732 l 600 732 l 478 399 "},"Ӕ":{"ha":1468,"x_min":0,"x_max":0,"o":"m 426 1010 l 1397 1010 l 1397 789 l 943 789 l 943 616 l 1359 616 l 1359 395 l 943 395 l 943 221 l 1395 221 l 1395 0 l 669 0 l 669 193 l 404 193 l 333 0 l 32 0 m 669 399 l 669 732 l 600 732 l 478 399 "},"B":{"ha":927,"x_min":0,"x_max":0,"o":"m 65 1010 l 503 1010 b 856 758 734 1010 856 911 b 661 537 856 646 778 560 l 661 527 b 896 286 791 522 896 429 b 541 0 896 120 760 0 l 65 0 m 468 219 b 606 322 560 219 606 254 b 472 432 606 393 555 432 l 339 432 l 339 219 m 452 602 b 574 698 524 602 574 636 b 456 795 574 761 524 795 l 339 795 l 339 602 "},"Ḃ":{"ha":927,"x_min":0,"x_max":0,"o":"m 65 1010 l 503 1010 b 856 758 734 1010 856 911 b 661 537 856 646 778 560 l 661 527 b 896 286 791 522 896 429 b 541 0 896 120 760 0 l 65 0 m 452 1089 b 318 1213 378 1089 318 1145 b 452 1338 318 1282 378 1338 b 586 1213 526 1338 586 1282 b 452 1089 586 1145 526 1089 m 468 219 b 606 322 560 219 606 254 b 472 432 606 393 555 432 l 339 432 l 339 219 m 452 602 b 574 698 524 602 574 636 b 456 795 574 761 524 795 l 339 795 l 339 602 "},"Ḅ":{"ha":927,"x_min":0,"x_max":0,"o":"m 65 1010 l 503 1010 b 856 758 734 1010 856 911 b 661 537 856 646 778 560 l 661 527 b 896 286 791 522 896 429 b 541 0 896 120 760 0 l 65 0 m 450 -306 b 316 -182 376 -306 316 -250 b 450 -57 316 -113 376 -57 b 584 -182 524 -57 584 -113 b 450 -306 584 -250 524 -306 m 468 219 b 606 322 560 219 606 254 b 472 432 606 393 555 432 l 339 432 l 339 219 m 452 602 b 574 698 524 602 574 636 b 456 795 574 761 524 795 l 339 795 l 339 602 "},"Ḇ":{"ha":927,"x_min":0,"x_max":0,"o":"m 65 1010 l 503 1010 b 856 758 734 1010 856 911 b 661 537 856 646 778 560 l 661 527 b 896 286 791 522 896 429 b 541 0 896 120 760 0 l 65 0 m 696 -252 l 203 -252 l 203 -127 l 696 -127 m 468 219 b 606 322 560 219 606 254 b 472 432 606 393 555 432 l 339 432 l 339 219 m 452 602 b 574 698 524 602 574 636 b 456 795 574 761 524 795 l 339 795 l 339 602 "},"Ƀ":{"ha":1022,"x_min":0,"x_max":0,"o":"m 160 253 l 22 253 l 22 399 l 160 399 l 160 1010 l 598 1010 b 951 758 829 1010 951 911 b 756 537 951 646 872 560 l 756 527 b 990 286 885 522 990 429 b 635 0 990 120 855 0 l 160 0 m 546 602 b 669 698 618 602 669 636 b 550 795 669 761 618 795 l 434 795 l 434 602 m 562 219 b 700 322 654 219 700 254 b 566 432 700 393 650 432 l 434 432 l 434 399 l 552 399 l 552 253 l 434 253 l 434 219 "},"Ɓ":{"ha":1263,"x_min":0,"x_max":0,"o":"m 400 791 l 385 791 b 278 663 301 791 277 722 l 278 590 l 37 590 l 37 710 b 385 1010 36 902 173 1010 l 838 1010 b 1192 758 1069 1010 1192 911 b 996 537 1192 646 1113 560 l 996 527 b 1231 286 1126 522 1231 429 b 876 0 1231 120 1095 0 l 400 0 m 803 219 b 941 322 895 219 941 254 b 807 432 941 393 890 432 l 675 432 l 675 219 m 787 602 b 909 698 859 602 909 636 b 791 795 909 761 859 795 l 675 795 l 675 602 "},"В":{"ha":927,"x_min":0,"x_max":0,"o":"m 65 1010 l 503 1010 b 856 758 734 1010 856 911 b 661 537 856 646 778 560 l 661 527 b 896 286 791 522 896 429 b 541 0 896 120 760 0 l 65 0 m 468 219 b 606 322 560 219 606 254 b 472 432 606 393 555 432 l 339 432 l 339 219 m 452 602 b 574 698 524 602 574 636 b 456 795 574 761 524 795 l 339 795 l 339 602 "},"Β":{"ha":927,"x_min":0,"x_max":0,"o":"m 65 1010 l 503 1010 b 856 758 734 1010 856 911 b 661 537 856 646 778 560 l 661 527 b 896 286 791 522 896 429 b 541 0 896 120 760 0 l 65 0 m 468 219 b 606 322 560 219 606 254 b 472 432 606 393 555 432 l 339 432 l 339 219 m 452 602 b 574 698 524 602 574 636 b 456 795 574 761 524 795 l 339 795 l 339 602 "},"C":{"ha":1067,"x_min":0,"x_max":0,"o":"m 730 631 b 556 785 722 723 662 785 b 343 505 418 785 343 681 b 554 225 343 320 421 225 b 730 365 655 225 716 279 l 1008 363 b 548 -14 994 191 844 -14 b 61 505 270 -14 61 169 b 548 1024 61 842 276 1024 b 1008 631 803 1024 986 882 "},"Ƈ":{"ha":1225,"x_min":0,"x_max":0,"o":"m 730 631 b 556 785 722 723 662 785 b 343 505 418 785 343 681 b 554 225 343 320 421 225 b 730 365 655 225 716 279 l 1008 363 b 548 -14 994 191 844 -14 b 61 505 270 -14 61 169 b 548 1024 61 842 276 1024 b 830 948 658 1024 754 998 b 1115 1052 900 1016 1004 1052 b 1237 1046 1156 1052 1190 1052 l 1237 829 b 1162 831 1217 829 1180 831 b 1008 689 1099 831 1008 795 l 1008 631 "},"Ç":{"ha":1067,"x_min":0,"x_max":0,"o":"m 730 631 b 556 785 722 723 662 785 b 343 505 418 785 343 681 b 554 225 343 320 421 225 b 730 365 655 225 716 279 l 1008 363 b 588 -12 995 199 858 5 l 584 -37 b 708 -160 662 -49 708 -96 b 412 -331 709 -266 597 -331 l 412 -227 b 564 -166 509 -227 562 -206 b 472 -95 567 -129 535 -105 l 491 -11 b 61 505 242 13 61 193 b 548 1024 61 842 276 1024 b 1008 631 803 1024 986 882 "},"Ć":{"ha":1067,"x_min":0,"x_max":0,"o":"m 730 631 b 556 785 722 723 662 785 b 343 505 418 785 343 681 b 554 225 343 320 421 225 b 730 365 655 225 716 279 l 1008 363 b 548 -14 994 191 844 -14 b 61 505 270 -14 61 169 b 548 1024 61 842 276 1024 b 1008 631 803 1024 986 882 m 552 1326 l 785 1326 l 637 1105 l 458 1105 "},"Ĉ":{"ha":1067,"x_min":0,"x_max":0,"o":"m 730 631 b 556 785 722 723 662 785 b 343 505 418 785 343 681 b 554 225 343 320 421 225 b 730 365 655 225 716 279 l 1008 363 b 548 -14 994 191 844 -14 b 61 505 270 -14 61 169 b 548 1024 61 842 276 1024 b 1008 631 803 1024 986 882 m 548 1209 l 452 1101 l 227 1101 l 227 1107 l 454 1332 l 643 1332 l 870 1107 l 870 1101 l 645 1101 "},"Ċ":{"ha":1067,"x_min":0,"x_max":0,"o":"m 730 631 b 556 785 722 723 662 785 b 343 505 418 785 343 681 b 554 225 343 320 421 225 b 730 365 655 225 716 279 l 1008 363 b 548 -14 994 191 844 -14 b 61 505 270 -14 61 169 b 548 1024 61 842 276 1024 b 1008 631 803 1024 986 882 m 548 1089 b 414 1213 474 1089 414 1145 b 548 1338 414 1282 474 1338 b 683 1213 622 1338 683 1282 b 548 1089 683 1145 622 1089 "},"Č":{"ha":1067,"x_min":0,"x_max":0,"o":"m 730 631 b 556 785 722 723 662 785 b 343 505 418 785 343 681 b 554 225 343 320 421 225 b 730 365 655 225 716 279 l 1008 363 b 548 -14 994 191 844 -14 b 61 505 270 -14 61 169 b 548 1024 61 842 276 1024 b 1008 631 803 1024 986 882 m 548 1223 l 645 1332 l 870 1332 l 870 1326 l 643 1101 l 454 1101 l 227 1326 l 227 1332 l 452 1332 "},"Ḉ":{"ha":1067,"x_min":0,"x_max":0,"o":"m 730 631 b 556 785 722 723 662 785 b 343 505 418 785 343 681 b 554 225 343 320 421 225 b 730 365 655 225 716 279 l 1008 363 b 588 -12 995 199 858 5 l 584 -37 b 708 -160 662 -49 708 -96 b 412 -331 709 -266 597 -331 l 412 -227 b 564 -166 509 -227 562 -206 b 472 -95 567 -129 535 -105 l 491 -11 b 61 505 242 13 61 193 b 548 1024 61 842 276 1024 b 1008 631 803 1024 986 882 m 552 1326 l 785 1326 l 637 1105 l 458 1105 "},"Ȼ":{"ha":1067,"x_min":0,"x_max":0,"o":"m 323 34 b 61 505 165 108 61 269 b 548 1024 61 842 276 1024 b 621 1020 574 1024 598 1022 l 657 1138 l 797 1138 l 752 988 b 1008 631 897 931 993 808 l 730 631 b 678 744 726 678 708 717 l 522 227 b 554 225 532 225 543 225 b 730 365 655 225 716 279 l 1008 363 b 548 -14 994 191 844 -14 b 451 -6 515 -14 482 -11 l 414 -128 l 274 -128 m 550 785 b 343 505 416 782 343 678 b 401 292 343 410 363 339 "},"Ɔ":{"ha":1067,"x_min":0,"x_max":0,"o":"m 337 379 b 511 225 345 287 405 225 b 724 505 649 225 724 329 b 513 785 724 690 647 785 b 337 645 412 785 351 731 l 59 647 b 519 1024 73 819 223 1024 b 1006 505 797 1024 1006 841 b 519 -14 1006 168 791 -14 b 59 379 264 -14 81 128 "},"Ϲ":{"ha":1067,"x_min":0,"x_max":0,"o":"m 730 631 b 556 785 722 723 662 785 b 343 505 418 785 343 681 b 554 225 343 320 421 225 b 730 365 655 225 716 279 l 1008 363 b 548 -14 994 191 844 -14 b 61 505 270 -14 61 169 b 548 1024 61 842 276 1024 b 1008 631 803 1024 986 882 "},"D":{"ha":1018,"x_min":0,"x_max":0,"o":"m 65 0 l 65 1010 l 450 1010 b 957 505 762 1010 957 821 b 454 0 957 189 762 0 m 444 233 b 681 505 594 233 681 294 b 436 777 681 716 594 777 l 339 777 l 339 233 "},"Ɗ":{"ha":1355,"x_min":0,"x_max":0,"o":"m 37 710 b 385 1010 36 902 173 1010 l 787 1010 b 1294 505 1099 1010 1294 821 b 791 0 1294 189 1099 0 l 402 0 l 402 777 l 385 777 b 278 663 301 777 277 722 l 278 590 l 37 590 m 677 233 l 781 233 b 1018 505 931 233 1018 294 b 773 777 1018 716 931 777 l 677 777 "},"Ď":{"ha":1018,"x_min":0,"x_max":0,"o":"m 65 0 l 65 1010 l 450 1010 b 957 505 762 1010 957 821 b 454 0 957 189 762 0 m 444 233 b 681 505 594 233 681 294 b 436 777 681 716 594 777 l 339 777 l 339 233 m 402 1223 l 499 1332 l 724 1332 l 724 1326 l 497 1101 l 308 1101 l 81 1326 l 81 1332 l 306 1332 "},"Ḋ":{"ha":1018,"x_min":0,"x_max":0,"o":"m 65 0 l 65 1010 l 450 1010 b 957 505 762 1010 957 821 b 454 0 957 189 762 0 m 444 233 b 681 505 594 233 681 294 b 436 777 681 716 594 777 l 339 777 l 339 233 m 402 1089 b 268 1213 328 1089 268 1145 b 402 1338 268 1282 328 1338 b 537 1213 476 1338 537 1282 b 402 1089 537 1145 476 1089 "},"Ḍ":{"ha":1018,"x_min":0,"x_max":0,"o":"m 65 0 l 65 1010 l 450 1010 b 957 505 762 1010 957 821 b 454 0 957 189 762 0 m 444 233 b 681 505 594 233 681 294 b 436 777 681 716 594 777 l 339 777 l 339 233 m 458 -306 b 324 -182 384 -306 324 -250 b 458 -57 324 -113 384 -57 b 592 -182 532 -57 592 -113 b 458 -306 592 -250 532 -306 "},"Ḏ":{"ha":1018,"x_min":0,"x_max":0,"o":"m 65 0 l 65 1010 l 450 1010 b 957 505 762 1010 957 821 b 454 0 957 189 762 0 m 444 233 b 681 505 594 233 681 294 b 436 777 681 716 594 777 l 339 777 l 339 233 m 704 -252 l 211 -252 l 211 -127 l 704 -127 "},"Ḑ":{"ha":1018,"x_min":0,"x_max":0,"o":"m 65 0 l 65 1010 l 450 1010 b 957 505 762 1010 957 821 b 454 0 957 189 762 0 m 444 233 b 681 505 594 233 681 294 b 436 777 681 716 594 777 l 339 777 l 339 233 m 338 -80 l 583 -80 l 459 -316 l 273 -316 "},"Ḓ":{"ha":1018,"x_min":0,"x_max":0,"o":"m 65 0 l 65 1010 l 450 1010 b 957 505 762 1010 957 821 b 454 0 957 189 762 0 m 444 233 b 681 505 594 233 681 294 b 436 777 681 716 594 777 l 339 777 l 339 233 m 458 -185 l 361 -294 l 136 -294 l 136 -288 l 363 -63 l 552 -63 l 779 -288 l 779 -294 l 554 -294 "},"Ɖ":{"ha":1018,"x_min":0,"x_max":0,"o":"m 65 0 l 65 468 l -65 468 l -65 614 l 65 614 l 65 1010 l 450 1010 b 957 505 762 1010 957 821 b 454 0 957 189 762 0 m 444 233 b 681 505 594 233 681 294 b 436 777 681 716 594 777 l 339 777 l 339 614 l 466 614 l 466 468 l 339 468 l 339 233 "},"ǲ":{"ha":1841,"x_min":0,"x_max":0,"o":"m 65 0 l 65 1010 l 450 1010 b 957 505 762 1010 957 821 b 454 0 957 189 762 0 m 1095 150 l 1426 546 l 1426 550 l 1107 550 l 1107 758 l 1748 758 l 1748 592 l 1446 211 l 1446 207 l 1760 207 l 1760 0 l 1095 0 m 444 233 b 681 505 594 233 681 294 b 436 777 681 716 594 777 l 339 777 l 339 233 "},"ǅ":{"ha":1841,"x_min":0,"x_max":0,"o":"m 65 0 l 65 1010 l 450 1010 b 957 505 762 1010 957 821 b 454 0 957 189 762 0 m 1095 150 l 1426 546 l 1426 550 l 1107 550 l 1107 758 l 1748 758 l 1748 592 l 1446 211 l 1446 207 l 1760 207 l 1760 0 l 1095 0 m 444 233 b 681 505 594 233 681 294 b 436 777 681 716 594 777 l 339 777 l 339 233 m 1428 971 l 1525 1079 l 1750 1079 l 1750 1073 l 1523 848 l 1334 848 l 1107 1073 l 1107 1079 l 1332 1079 "},"E":{"ha":864,"x_min":0,"x_max":0,"o":"m 65 1010 l 793 1010 l 793 789 l 339 789 l 339 616 l 756 616 l 756 395 l 339 395 l 339 221 l 791 221 l 791 0 l 65 0 "},"È":{"ha":864,"x_min":0,"x_max":0,"o":"m 65 1010 l 793 1010 l 793 789 l 339 789 l 339 616 l 756 616 l 756 395 l 339 395 l 339 221 l 791 221 l 791 0 l 65 0 m 195 1326 l 428 1326 l 523 1105 l 343 1105 "},"É":{"ha":864,"x_min":0,"x_max":0,"o":"m 65 1010 l 793 1010 l 793 789 l 339 789 l 339 616 l 756 616 l 756 395 l 339 395 l 339 221 l 791 221 l 791 0 l 65 0 m 436 1326 l 669 1326 l 521 1105 l 341 1105 "},"Ê":{"ha":864,"x_min":0,"x_max":0,"o":"m 65 1010 l 793 1010 l 793 789 l 339 789 l 339 616 l 756 616 l 756 395 l 339 395 l 339 221 l 791 221 l 791 0 l 65 0 m 432 1209 l 335 1101 l 110 1101 l 110 1107 l 337 1332 l 527 1332 l 754 1107 l 754 1101 l 529 1101 "},"Ë":{"ha":864,"x_min":0,"x_max":0,"o":"m 65 1010 l 793 1010 l 793 789 l 339 789 l 339 616 l 756 616 l 756 395 l 339 395 l 339 221 l 791 221 l 791 0 l 65 0 m 276 1099 b 156 1213 209 1099 156 1150 b 276 1328 156 1276 209 1328 b 395 1213 341 1328 395 1276 b 276 1099 395 1150 341 1099 m 590 1099 b 470 1213 523 1099 470 1150 b 590 1328 470 1276 523 1328 b 708 1213 655 1328 708 1276 b 590 1099 708 1150 655 1099 "},"Ē":{"ha":864,"x_min":0,"x_max":0,"o":"m 65 1010 l 793 1010 l 793 789 l 339 789 l 339 616 l 756 616 l 756 395 l 339 395 l 339 221 l 791 221 l 791 0 l 65 0 m 679 1138 l 185 1138 l 185 1263 l 679 1263 "},"Ĕ":{"ha":864,"x_min":0,"x_max":0,"o":"m 65 1010 l 793 1010 l 793 789 l 339 789 l 339 616 l 756 616 l 756 395 l 339 395 l 339 221 l 791 221 l 791 0 l 65 0 m 702 1282 b 432 1071 702 1154 597 1071 b 162 1282 266 1071 161 1154 l 331 1282 b 432 1199 331 1241 359 1199 b 531 1282 503 1199 530 1239 "},"Ė":{"ha":864,"x_min":0,"x_max":0,"o":"m 65 1010 l 793 1010 l 793 789 l 339 789 l 339 616 l 756 616 l 756 395 l 339 395 l 339 221 l 791 221 l 791 0 l 65 0 m 432 1089 b 298 1213 358 1089 298 1145 b 432 1338 298 1282 358 1338 b 566 1213 506 1338 566 1282 b 432 1089 566 1145 506 1089 "},"Ę":{"ha":864,"x_min":0,"x_max":0,"o":"m 65 1010 l 793 1010 l 793 789 l 339 789 l 339 616 l 756 616 l 756 395 l 339 395 l 339 221 l 791 221 l 791 0 b 692 -79 727 -20 692 -39 b 738 -130 692 -112 712 -130 b 779 -122 755 -130 767 -124 l 811 -245 b 692 -274 785 -258 745 -274 b 511 -144 601 -274 536 -227 b 512 0 496 -96 497 -42 l 65 0 "},"Ě":{"ha":864,"x_min":0,"x_max":0,"o":"m 65 1010 l 793 1010 l 793 789 l 339 789 l 339 616 l 756 616 l 756 395 l 339 395 l 339 221 l 791 221 l 791 0 l 65 0 m 432 1223 l 529 1332 l 754 1332 l 754 1326 l 527 1101 l 337 1101 l 110 1326 l 110 1332 l 335 1332 "},"Ȅ":{"ha":864,"x_min":0,"x_max":0,"o":"m 65 1010 l 793 1010 l 793 789 l 339 789 l 339 616 l 756 616 l 756 395 l 339 395 l 339 221 l 791 221 l 791 0 l 65 0 m 70 1326 l 303 1326 l 398 1105 l 218 1105 m 390 1326 l 610 1326 l 660 1105 l 485 1105 "},"Ȇ":{"ha":864,"x_min":0,"x_max":0,"o":"m 65 1010 l 793 1010 l 793 789 l 339 789 l 339 616 l 756 616 l 756 395 l 339 395 l 339 221 l 791 221 l 791 0 l 65 0 m 160 1128 b 430 1347 159 1257 263 1347 b 702 1128 595 1347 701 1257 l 531 1128 b 430 1209 530 1170 502 1209 b 331 1128 358 1209 330 1170 l 160 1128 "},"Ȩ":{"ha":864,"x_min":0,"x_max":0,"o":"m 65 1010 l 793 1010 l 793 789 l 339 789 l 339 616 l 756 616 l 756 395 l 339 395 l 339 221 l 791 221 l 791 0 l 483 0 l 475 -41 b 600 -164 553 -53 599 -100 b 304 -335 601 -270 489 -335 l 304 -231 b 456 -170 401 -231 453 -210 b 363 -99 458 -133 427 -109 l 386 0 l 65 0 "},"Ḕ":{"ha":864,"x_min":0,"x_max":0,"o":"m 65 1010 l 793 1010 l 793 789 l 339 789 l 339 616 l 756 616 l 756 395 l 339 395 l 339 221 l 791 221 l 791 0 l 65 0 m 679 1119 l 185 1119 l 185 1243 l 679 1243 m 179 1528 l 401 1528 l 533 1338 l 349 1338 "},"Ḗ":{"ha":864,"x_min":0,"x_max":0,"o":"m 65 1010 l 793 1010 l 793 789 l 339 789 l 339 616 l 756 616 l 756 395 l 339 395 l 339 221 l 791 221 l 791 0 l 65 0 m 679 1119 l 185 1119 l 185 1243 l 679 1243 m 463 1528 l 686 1528 l 515 1338 l 331 1338 "},"Ḙ":{"ha":864,"x_min":0,"x_max":0,"o":"m 65 1010 l 793 1010 l 793 789 l 339 789 l 339 616 l 756 616 l 756 395 l 339 395 l 339 221 l 791 221 l 791 0 l 65 0 m 432 -185 l 335 -294 l 110 -294 l 110 -288 l 337 -63 l 527 -63 l 754 -288 l 754 -294 l 529 -294 "},"Ḛ":{"ha":864,"x_min":0,"x_max":0,"o":"m 65 1010 l 793 1010 l 793 789 l 339 789 l 339 616 l 756 616 l 756 395 l 339 395 l 339 221 l 791 221 l 791 0 l 65 0 m 182 -284 b 349 -73 182 -142 256 -73 b 476 -125 410 -73 447 -102 b 533 -154 497 -141 514 -154 b 586 -77 571 -153 585 -125 l 718 -77 b 550 -290 716 -217 643 -289 b 425 -239 490 -291 454 -262 b 367 -209 405 -223 388 -209 b 316 -284 335 -209 316 -235 "},"Ḝ":{"ha":864,"x_min":0,"x_max":0,"o":"m 65 1010 l 793 1010 l 793 789 l 339 789 l 339 616 l 756 616 l 756 395 l 339 395 l 339 221 l 791 221 l 791 0 l 483 0 l 475 -41 b 600 -164 553 -53 599 -100 b 304 -335 601 -270 489 -335 l 304 -231 b 456 -170 401 -231 453 -210 b 363 -99 458 -133 427 -109 l 386 0 l 65 0 m 702 1282 b 432 1071 702 1154 597 1071 b 162 1282 266 1071 161 1154 l 331 1282 b 432 1199 331 1241 359 1199 b 531 1282 503 1199 530 1239 "},"Ẹ":{"ha":864,"x_min":0,"x_max":0,"o":"m 65 1010 l 793 1010 l 793 789 l 339 789 l 339 616 l 756 616 l 756 395 l 339 395 l 339 221 l 791 221 l 791 0 l 65 0 m 432 -306 b 298 -182 358 -306 298 -250 b 432 -57 298 -113 358 -57 b 566 -182 506 -57 566 -113 b 432 -306 566 -250 506 -306 "},"Ẻ":{"ha":864,"x_min":0,"x_max":0,"o":"m 65 1010 l 793 1010 l 793 789 l 339 789 l 339 616 l 756 616 l 756 395 l 339 395 l 339 221 l 791 221 l 791 0 l 65 0 m 331 1123 l 314 1199 b 410 1241 384 1201 411 1219 b 318 1282 411 1276 372 1282 l 324 1391 b 633 1255 526 1391 634 1342 b 527 1162 634 1199 581 1170 l 527 1123 "},"Ẽ":{"ha":864,"x_min":0,"x_max":0,"o":"m 65 1010 l 793 1010 l 793 789 l 339 789 l 339 616 l 756 616 l 756 395 l 339 395 l 339 221 l 791 221 l 791 0 l 65 0 m 164 1105 b 331 1316 164 1247 238 1315 b 459 1264 392 1316 429 1287 b 515 1235 479 1248 496 1235 b 568 1312 553 1235 567 1264 l 700 1312 b 533 1099 698 1172 625 1100 b 407 1150 472 1098 436 1126 b 349 1180 387 1166 370 1180 b 298 1105 318 1180 298 1154 "},"Ế":{"ha":864,"x_min":0,"x_max":0,"o":"m 65 1010 l 793 1010 l 793 789 l 339 789 l 339 616 l 756 616 l 756 395 l 339 395 l 339 221 l 791 221 l 791 0 l 65 0 m 371 1221 l 487 1221 l 687 1085 l 529 1085 l 430 1154 l 329 1085 l 174 1085 m 763 1340 l 939 1340 l 765 1150 l 635 1150 "},"Ề":{"ha":864,"x_min":0,"x_max":0,"o":"m 65 1010 l 793 1010 l 793 789 l 339 789 l 339 616 l 756 616 l 756 395 l 339 395 l 339 221 l 791 221 l 791 0 l 65 0 m 689 1081 l 531 1081 l 432 1150 l 331 1081 l 176 1081 l 373 1217 l 489 1217 m 227 1146 l 99 1146 l -75 1334 l 97 1334 "},"Ể":{"ha":864,"x_min":0,"x_max":0,"o":"m 65 1010 l 793 1010 l 793 789 l 339 789 l 339 616 l 756 616 l 756 395 l 339 395 l 339 221 l 791 221 l 791 0 l 65 0 m 619 1166 l 604 1229 b 685 1263 661 1231 685 1245 b 606 1298 685 1292 651 1298 l 612 1387 b 835 1274 756 1387 835 1347 b 746 1198 835 1231 789 1205 l 746 1166 m 685 1085 l 525 1085 l 432 1146 l 335 1085 l 176 1085 l 375 1221 l 485 1221 "},"Ễ":{"ha":864,"x_min":0,"x_max":0,"o":"m 65 1010 l 793 1010 l 793 789 l 339 789 l 339 616 l 756 616 l 756 395 l 339 395 l 339 221 l 791 221 l 791 0 l 65 0 m 689 1091 l 529 1091 l 432 1160 l 339 1091 l 176 1091 l 371 1233 l 495 1233 m 616 1365 b 535 1259 615 1312 587 1259 b 379 1300 475 1259 426 1300 b 357 1255 361 1300 357 1280 l 274 1278 b 355 1381 274 1328 301 1381 b 511 1342 402 1381 465 1342 b 531 1397 526 1342 530 1371 "},"Ệ":{"ha":864,"x_min":0,"x_max":0,"o":"m 65 1010 l 793 1010 l 793 789 l 339 789 l 339 616 l 756 616 l 756 395 l 339 395 l 339 221 l 791 221 l 791 0 l 65 0 m 432 1209 l 335 1101 l 110 1101 l 110 1107 l 337 1332 l 527 1332 l 754 1107 l 754 1101 l 529 1101 m 432 -306 b 298 -182 358 -306 298 -250 b 432 -57 298 -113 358 -57 b 566 -182 506 -57 566 -113 b 432 -306 566 -250 506 -306 "},"Ɇ":{"ha":864,"x_min":0,"x_max":0,"o":"m 659 1010 l 793 1010 l 793 789 l 596 789 l 546 616 l 756 616 l 756 395 l 482 395 l 432 221 l 791 221 l 791 0 l 368 0 l 331 -128 l 219 -128 l 256 0 l 65 0 l 65 1010 l 547 1010 l 584 1138 l 696 1138 m 339 789 l 339 616 l 434 616 l 483 789 m 339 395 l 339 290 l 369 395 "},"Ǝ":{"ha":864,"x_min":0,"x_max":0,"o":"m 799 0 l 71 0 l 71 221 l 525 221 l 525 395 l 109 395 l 109 616 l 525 616 l 525 789 l 73 789 l 73 1010 l 799 1010 "},"Ε":{"ha":864,"x_min":0,"x_max":0,"o":"m 65 1010 l 793 1010 l 793 789 l 339 789 l 339 616 l 756 616 l 756 395 l 339 395 l 339 221 l 791 221 l 791 0 l 65 0 "},"Έ":{"ha":1178,"x_min":0,"x_max":0,"o":"m 379 1010 l 1107 1010 l 1107 789 l 653 789 l 653 616 l 1069 616 l 1069 395 l 653 395 l 653 221 l 1105 221 l 1105 0 l 379 0 m 142 1089 l 371 1089 l 229 852 l 77 852 "},"Ἐ":{"ha":1083,"x_min":0,"x_max":0,"o":"m 284 1010 l 1012 1010 l 1012 789 l 558 789 l 558 616 l 975 616 l 975 395 l 558 395 l 558 221 l 1010 221 l 1010 0 l 284 0 m 201 939 b 93 765 201 850 150 789 l 32 840 b 85 943 75 860 85 898 l 85 1010 l 201 1010 "},"Ἑ":{"ha":1093,"x_min":0,"x_max":0,"o":"m 294 1010 l 1022 1010 l 1022 789 l 568 789 l 568 616 l 984 616 l 984 395 l 568 395 l 568 221 l 1020 221 l 1020 0 l 294 0 m 73 1010 l 191 1010 l 191 943 b 243 840 192 908 198 862 l 182 765 b 73 939 125 789 74 850 "},"Ἒ":{"ha":1347,"x_min":0,"x_max":0,"o":"m 548 1010 l 1276 1010 l 1276 789 l 823 789 l 823 616 l 1239 616 l 1239 395 l 823 395 l 823 221 l 1274 221 l 1274 0 l 548 0 m 258 955 b 126 765 259 876 210 809 l 71 807 b 128 959 109 848 129 896 l 128 1010 l 258 1010 m 521 781 l 454 781 l 290 996 l 290 1010 l 440 1010 l 521 791 "},"Ἓ":{"ha":1314,"x_min":0,"x_max":0,"o":"m 515 1010 l 1243 1010 l 1243 789 l 789 789 l 789 616 l 1205 616 l 1205 395 l 789 395 l 789 221 l 1241 221 l 1241 0 l 515 0 m 67 1010 l 187 1010 l 187 943 b 241 840 186 908 190 862 l 180 765 b 67 939 117 789 66 850 m 479 779 l 412 779 l 249 996 l 249 1010 l 400 1010 l 479 799 "},"Ἔ":{"ha":1344,"x_min":0,"x_max":0,"o":"m 545 1010 l 1272 1010 l 1272 789 l 819 789 l 819 616 l 1235 616 l 1235 395 l 819 395 l 819 221 l 1271 221 l 1271 0 l 545 0 m 249 939 b 136 765 248 852 196 789 l 75 840 b 128 943 123 862 127 908 l 128 1010 l 249 1010 m 276 799 l 357 1010 l 507 1010 l 507 996 l 343 779 l 276 779 "},"Ἕ":{"ha":1359,"x_min":0,"x_max":0,"o":"m 560 1010 l 1288 1010 l 1288 789 l 835 789 l 835 616 l 1251 616 l 1251 395 l 835 395 l 835 221 l 1286 221 l 1286 0 l 560 0 m 290 799 l 367 1010 l 519 1010 l 519 996 l 353 779 l 290 779 m 182 765 b 73 939 129 787 73 846 l 73 1010 l 191 1010 l 191 943 b 243 840 192 898 200 860 l 182 765 "},"Ὲ":{"ha":1136,"x_min":0,"x_max":0,"o":"m 337 1010 l 1065 1010 l 1065 789 l 612 789 l 612 616 l 1028 616 l 1028 395 l 612 395 l 612 221 l 1063 221 l 1063 0 l 337 0 m 71 996 l 71 1010 l 221 1010 l 298 803 l 298 779 l 235 779 "},"Έ":{"ha":1136,"x_min":0,"x_max":0,"o":"m 337 1010 l 1065 1010 l 1065 789 l 612 789 l 612 616 l 1028 616 l 1028 395 l 612 395 l 612 221 l 1063 221 l 1063 0 l 337 0 m 41 876 l 120 1083 l 337 1083 l 337 1069 l 174 852 l 41 852 "},"Е":{"ha":864,"x_min":0,"x_max":0,"o":"m 65 1010 l 793 1010 l 793 789 l 339 789 l 339 616 l 756 616 l 756 395 l 339 395 l 339 221 l 791 221 l 791 0 l 65 0 "},"Ѐ":{"ha":864,"x_min":0,"x_max":0,"o":"m 65 1010 l 793 1010 l 793 789 l 339 789 l 339 616 l 756 616 l 756 395 l 339 395 l 339 221 l 791 221 l 791 0 l 65 0 m 195 1326 l 428 1326 l 523 1105 l 343 1105 "},"Ё":{"ha":864,"x_min":0,"x_max":0,"o":"m 65 1010 l 793 1010 l 793 789 l 339 789 l 339 616 l 756 616 l 756 395 l 339 395 l 339 221 l 791 221 l 791 0 l 65 0 m 276 1099 b 156 1213 209 1099 156 1150 b 276 1328 156 1276 209 1328 b 395 1213 341 1328 395 1276 b 276 1099 395 1150 341 1099 m 590 1099 b 470 1213 523 1099 470 1150 b 590 1328 470 1276 523 1328 b 708 1213 655 1328 708 1276 b 590 1099 708 1150 655 1099 "},"Ӗ":{"ha":864,"x_min":0,"x_max":0,"o":"m 65 1010 l 793 1010 l 793 789 l 339 789 l 339 616 l 756 616 l 756 395 l 339 395 l 339 221 l 791 221 l 791 0 l 65 0 m 702 1282 b 432 1071 702 1154 597 1071 b 162 1282 266 1071 161 1154 l 331 1282 b 432 1199 331 1241 359 1199 b 531 1282 503 1199 530 1239 "},"F":{"ha":811,"x_min":0,"x_max":0,"o":"m 65 1010 l 775 1010 l 775 789 l 339 789 l 339 616 l 732 616 l 732 395 l 339 395 l 339 0 l 65 0 "},"Ƒ":{"ha":862,"x_min":0,"x_max":0,"o":"m 116 1010 l 827 1010 l 827 789 l 391 789 l 391 616 l 783 616 l 783 395 l 391 395 l 391 -24 b 87 -284 391 -262 230 -284 b -32 -280 60 -284 -3 -284 l -32 -79 b 2 -79 -21 -80 -8 -80 b 14 -79 6 -79 10 -79 b 116 -24 64 -79 116 -69 "},"Ḟ":{"ha":811,"x_min":0,"x_max":0,"o":"m 65 1010 l 775 1010 l 775 789 l 339 789 l 339 616 l 732 616 l 732 395 l 339 395 l 339 0 l 65 0 m 422 1089 b 288 1213 348 1089 288 1145 b 422 1338 288 1282 348 1338 b 556 1213 496 1338 556 1282 b 422 1089 556 1145 496 1089 "},"Ⅎ":{"ha":811,"x_min":0,"x_max":0,"o":"m 746 0 l 36 0 l 36 221 l 472 221 l 472 395 l 79 395 l 79 616 l 472 616 l 472 1010 l 746 1010 "},"G":{"ha":1073,"x_min":0,"x_max":0,"o":"m 721 677 b 560 785 704 746 646 785 b 343 507 422 785 343 682 b 558 225 343 329 416 225 b 746 369 681 225 743 281 l 562 369 l 562 564 l 1010 564 l 1010 424 b 556 -14 1010 148 821 -14 b 61 503 261 -14 61 183 b 554 1024 61 836 282 1024 b 998 677 793 1024 977 879 l 721 677 "},"Ǥ":{"ha":1073,"x_min":0,"x_max":0,"o":"m 1042 278 l 990 278 b 556 -14 935 92 770 -14 b 61 503 261 -14 61 183 b 554 1024 61 836 282 1024 b 998 677 793 1024 977 879 l 721 677 b 560 785 704 746 646 785 b 343 507 422 785 343 682 b 558 225 343 329 416 225 b 712 278 631 225 682 244 l 562 278 l 562 339 l 742 339 b 746 369 744 349 745 359 l 562 369 l 562 564 l 1010 564 l 1010 424 b 1004 339 1010 395 1008 366 l 1042 339 "},"Ɠ":{"ha":1215,"x_min":0,"x_max":0,"o":"m 718 677 l 718 688 b 560 785 698 750 642 785 b 343 507 422 785 343 682 b 558 225 343 329 416 225 b 746 369 681 225 743 281 l 562 369 l 562 564 l 1010 564 l 1010 424 b 556 -14 1010 148 821 -14 b 61 503 261 -14 61 183 b 554 1024 61 836 282 1024 b 743 990 622 1024 687 1012 b 1095 1182 802 1115 948 1182 b 1215 1166 1134 1182 1170 1176 l 1215 953 b 1142 959 1190 955 1166 959 b 998 862 1069 959 998 947 l 998 677 "},"Ĝ":{"ha":1073,"x_min":0,"x_max":0,"o":"m 721 677 b 560 785 704 746 646 785 b 343 507 422 785 343 682 b 558 225 343 329 416 225 b 746 369 681 225 743 281 l 562 369 l 562 564 l 1010 564 l 1010 424 b 556 -14 1010 148 821 -14 b 61 503 261 -14 61 183 b 554 1024 61 836 282 1024 b 998 677 793 1024 977 879 l 721 677 m 546 1209 l 450 1101 l 225 1101 l 225 1107 l 452 1332 l 641 1332 l 868 1107 l 868 1101 l 643 1101 "},"Ğ":{"ha":1073,"x_min":0,"x_max":0,"o":"m 721 677 b 560 785 704 746 646 785 b 343 507 422 785 343 682 b 558 225 343 329 416 225 b 746 369 681 225 743 281 l 562 369 l 562 564 l 1010 564 l 1010 424 b 556 -14 1010 148 821 -14 b 61 503 261 -14 61 183 b 554 1024 61 836 282 1024 b 998 677 793 1024 977 879 l 721 677 m 817 1282 b 546 1071 816 1154 712 1071 b 276 1282 380 1071 276 1154 l 446 1282 b 546 1199 445 1241 473 1199 b 645 1282 617 1199 645 1239 "},"Ġ":{"ha":1073,"x_min":0,"x_max":0,"o":"m 721 677 b 560 785 704 746 646 785 b 343 507 422 785 343 682 b 558 225 343 329 416 225 b 746 369 681 225 743 281 l 562 369 l 562 564 l 1010 564 l 1010 424 b 556 -14 1010 148 821 -14 b 61 503 261 -14 61 183 b 554 1024 61 836 282 1024 b 998 677 793 1024 977 879 l 721 677 m 546 1089 b 412 1213 472 1089 412 1145 b 546 1338 412 1282 472 1338 b 681 1213 620 1338 681 1282 b 546 1089 681 1145 620 1089 "},"Ģ":{"ha":1073,"x_min":0,"x_max":0,"o":"m 721 677 b 560 785 704 746 646 785 b 343 507 422 785 343 682 b 558 225 343 329 416 225 b 746 369 681 225 743 281 l 562 369 l 562 564 l 1010 564 l 1010 424 b 556 -14 1010 148 821 -14 b 61 503 261 -14 61 183 b 554 1024 61 836 282 1024 b 998 677 793 1024 977 879 l 721 677 m 425 -76 l 670 -76 l 545 -312 l 360 -312 "},"Ǧ":{"ha":1073,"x_min":0,"x_max":0,"o":"m 721 677 b 560 785 704 746 646 785 b 343 507 422 785 343 682 b 558 225 343 329 416 225 b 746 369 681 225 743 281 l 562 369 l 562 564 l 1010 564 l 1010 424 b 556 -14 1010 148 821 -14 b 61 503 261 -14 61 183 b 554 1024 61 836 282 1024 b 998 677 793 1024 977 879 l 721 677 m 546 1223 l 643 1332 l 868 1332 l 868 1326 l 641 1101 l 452 1101 l 225 1326 l 225 1332 l 450 1332 "},"Ǵ":{"ha":1073,"x_min":0,"x_max":0,"o":"m 721 677 b 560 785 704 746 646 785 b 343 507 422 785 343 682 b 558 225 343 329 416 225 b 746 369 681 225 743 281 l 562 369 l 562 564 l 1010 564 l 1010 424 b 556 -14 1010 148 821 -14 b 61 503 261 -14 61 183 b 554 1024 61 836 282 1024 b 998 677 793 1024 977 879 l 721 677 m 550 1326 l 783 1326 l 635 1105 l 456 1105 "},"Ḡ":{"ha":1073,"x_min":0,"x_max":0,"o":"m 721 677 b 560 785 704 746 646 785 b 343 507 422 785 343 682 b 558 225 343 329 416 225 b 746 369 681 225 743 281 l 562 369 l 562 564 l 1010 564 l 1010 424 b 556 -14 1010 148 821 -14 b 61 503 261 -14 61 183 b 554 1024 61 836 282 1024 b 998 677 793 1024 977 879 l 721 677 m 793 1138 l 300 1138 l 300 1263 l 793 1263 "},"":{"ha":1081,"x_min":0,"x_max":0,"o":"m 556 -14 b 61 503 263 -14 61 183 b 559 1024 61 836 287 1024 b 1008 677 798 1024 987 881 l 732 677 b 565 785 715 747 651 785 b 343 507 427 785 343 683 b 558 225 343 329 418 225 b 746 369 681 225 743 281 l 562 369 l 562 564 l 1018 564 l 1018 0 l 843 0 l 833 110 l 827 110 b 556 -14 764 32 674 -14 "},"":{"ha":1083,"x_min":0,"x_max":0,"o":"m 1052 278 l 1018 278 l 1018 0 l 843 0 l 833 110 l 827 110 b 556 -14 764 32 674 -14 b 61 503 263 -14 61 183 b 559 1024 61 836 287 1024 b 1008 677 798 1024 987 881 l 732 677 b 565 785 715 747 651 785 b 343 507 427 785 343 683 b 558 225 343 329 418 225 b 712 278 631 225 682 244 l 562 278 l 562 339 l 742 339 b 746 369 744 349 745 359 l 562 369 l 562 564 l 1018 564 l 1018 339 l 1052 339 "},"":{"ha":1215,"x_min":0,"x_max":0,"o":"m 728 677 l 728 690 b 565 785 706 752 645 785 b 343 507 427 785 343 683 b 558 225 343 329 418 225 b 746 369 681 225 743 281 l 562 369 l 562 564 l 1018 564 l 1018 0 l 843 0 l 833 110 l 827 110 b 556 -14 764 32 674 -14 b 61 503 263 -14 61 183 b 559 1024 61 836 287 1024 b 753 989 629 1024 694 1012 b 1105 1182 811 1115 957 1182 b 1225 1166 1144 1182 1180 1176 l 1225 953 b 1152 959 1199 955 1176 959 b 1008 862 1079 959 1008 947 l 1008 677 "},"":{"ha":1081,"x_min":0,"x_max":0,"o":"m 556 -14 b 61 503 263 -14 61 183 b 559 1024 61 836 287 1024 b 1008 677 798 1024 987 881 l 732 677 b 565 785 715 747 651 785 b 343 507 427 785 343 683 b 558 225 343 329 418 225 b 746 369 681 225 743 281 l 562 369 l 562 564 l 1018 564 l 1018 0 l 843 0 l 833 110 l 827 110 b 556 -14 764 32 674 -14 m 546 1209 l 450 1101 l 225 1101 l 225 1107 l 452 1332 l 641 1332 l 868 1107 l 868 1101 l 643 1101 "},"":{"ha":1081,"x_min":0,"x_max":0,"o":"m 556 -14 b 61 503 263 -14 61 183 b 559 1024 61 836 287 1024 b 1008 677 798 1024 987 881 l 732 677 b 565 785 715 747 651 785 b 343 507 427 785 343 683 b 558 225 343 329 418 225 b 746 369 681 225 743 281 l 562 369 l 562 564 l 1018 564 l 1018 0 l 843 0 l 833 110 l 827 110 b 556 -14 764 32 674 -14 m 817 1282 b 546 1071 816 1154 712 1071 b 276 1282 380 1071 276 1154 l 446 1282 b 546 1199 445 1241 473 1199 b 645 1282 617 1199 645 1239 "},"":{"ha":1081,"x_min":0,"x_max":0,"o":"m 556 -14 b 61 503 263 -14 61 183 b 559 1024 61 836 287 1024 b 1008 677 798 1024 987 881 l 732 677 b 565 785 715 747 651 785 b 343 507 427 785 343 683 b 558 225 343 329 418 225 b 746 369 681 225 743 281 l 562 369 l 562 564 l 1018 564 l 1018 0 l 843 0 l 833 110 l 827 110 b 556 -14 764 32 674 -14 m 546 1089 b 412 1213 472 1089 412 1145 b 546 1338 412 1282 472 1338 b 681 1213 620 1338 681 1282 b 546 1089 681 1145 620 1089 "},"":{"ha":1081,"x_min":0,"x_max":0,"o":"m 556 -14 b 61 503 263 -14 61 183 b 559 1024 61 836 287 1024 b 1008 677 798 1024 987 881 l 732 677 b 565 785 715 747 651 785 b 343 507 427 785 343 683 b 558 225 343 329 418 225 b 746 369 681 225 743 281 l 562 369 l 562 564 l 1018 564 l 1018 0 l 843 0 l 833 110 l 827 110 b 556 -14 764 32 674 -14 m 425 -76 l 670 -76 l 545 -312 l 360 -312 "},"":{"ha":1081,"x_min":0,"x_max":0,"o":"m 556 -14 b 61 503 263 -14 61 183 b 559 1024 61 836 287 1024 b 1008 677 798 1024 987 881 l 732 677 b 565 785 715 747 651 785 b 343 507 427 785 343 683 b 558 225 343 329 418 225 b 746 369 681 225 743 281 l 562 369 l 562 564 l 1018 564 l 1018 0 l 843 0 l 833 110 l 827 110 b 556 -14 764 32 674 -14 m 546 1223 l 643 1332 l 868 1332 l 868 1326 l 641 1101 l 452 1101 l 225 1326 l 225 1332 l 450 1332 "},"":{"ha":1081,"x_min":0,"x_max":0,"o":"m 556 -14 b 61 503 263 -14 61 183 b 559 1024 61 836 287 1024 b 1008 677 798 1024 987 881 l 732 677 b 565 785 715 747 651 785 b 343 507 427 785 343 683 b 558 225 343 329 418 225 b 746 369 681 225 743 281 l 562 369 l 562 564 l 1018 564 l 1018 0 l 843 0 l 833 110 l 827 110 b 556 -14 764 32 674 -14 m 550 1326 l 783 1326 l 635 1105 l 456 1105 "},"":{"ha":1081,"x_min":0,"x_max":0,"o":"m 556 -14 b 61 503 263 -14 61 183 b 559 1024 61 836 287 1024 b 1008 677 798 1024 987 881 l 732 677 b 565 785 715 747 651 785 b 343 507 427 785 343 683 b 558 225 343 329 418 225 b 746 369 681 225 743 281 l 562 369 l 562 564 l 1018 564 l 1018 0 l 843 0 l 833 110 l 827 110 b 556 -14 764 32 674 -14 m 793 1138 l 300 1138 l 300 1263 l 793 1263 "},"H":{"ha":1042,"x_min":0,"x_max":0,"o":"m 65 1010 l 339 1010 l 339 616 l 702 616 l 702 1010 l 977 1010 l 977 0 l 702 0 l 702 395 l 339 395 l 339 0 l 65 0 "},"Ḩ":{"ha":1042,"x_min":0,"x_max":0,"o":"m 65 1010 l 339 1010 l 339 616 l 702 616 l 702 1010 l 977 1010 l 977 0 l 702 0 l 702 395 l 339 395 l 339 0 l 244 0 l 237 -41 b 361 -164 315 -53 361 -100 b 65 -335 362 -270 250 -335 l 65 -231 b 217 -170 162 -231 215 -210 b 124 -99 219 -133 188 -109 l 147 0 l 65 0 "},"Ĥ":{"ha":1042,"x_min":0,"x_max":0,"o":"m 65 1010 l 339 1010 l 339 616 l 702 616 l 702 1010 l 977 1010 l 977 0 l 702 0 l 702 395 l 339 395 l 339 0 l 65 0 m 521 1209 l 424 1101 l 199 1101 l 199 1107 l 426 1332 l 616 1332 l 842 1107 l 842 1101 l 618 1101 "},"Ȟ":{"ha":1042,"x_min":0,"x_max":0,"o":"m 65 1010 l 339 1010 l 339 616 l 702 616 l 702 1010 l 977 1010 l 977 0 l 702 0 l 702 395 l 339 395 l 339 0 l 65 0 m 521 1223 l 618 1332 l 842 1332 l 842 1326 l 616 1101 l 426 1101 l 199 1326 l 199 1332 l 424 1332 "},"Ḣ":{"ha":1042,"x_min":0,"x_max":0,"o":"m 65 1010 l 339 1010 l 339 616 l 702 616 l 702 1010 l 977 1010 l 977 0 l 702 0 l 702 395 l 339 395 l 339 0 l 65 0 m 521 1089 b 387 1213 447 1089 387 1145 b 521 1338 387 1282 447 1338 b 655 1213 595 1338 655 1282 b 521 1089 655 1145 595 1089 "},"Ḥ":{"ha":1042,"x_min":0,"x_max":0,"o":"m 65 1010 l 339 1010 l 339 616 l 702 616 l 702 1010 l 977 1010 l 977 0 l 702 0 l 702 395 l 339 395 l 339 0 l 65 0 m 521 -306 b 387 -182 447 -306 387 -250 b 521 -57 387 -113 447 -57 b 655 -182 595 -57 655 -113 b 521 -306 655 -250 595 -306 "},"Ḧ":{"ha":1042,"x_min":0,"x_max":0,"o":"m 65 1010 l 339 1010 l 339 616 l 702 616 l 702 1010 l 977 1010 l 977 0 l 702 0 l 702 395 l 339 395 l 339 0 l 65 0 m 365 1099 b 245 1213 298 1099 245 1150 b 365 1328 245 1276 298 1328 b 483 1213 430 1328 483 1276 b 365 1099 483 1150 430 1099 m 679 1099 b 558 1213 612 1099 558 1150 b 679 1328 558 1276 612 1328 b 797 1213 744 1328 797 1276 b 679 1099 797 1150 744 1099 "},"Ḫ":{"ha":1042,"x_min":0,"x_max":0,"o":"m 65 1010 l 339 1010 l 339 616 l 702 616 l 702 1010 l 977 1010 l 977 0 l 702 0 l 702 395 l 339 395 l 339 0 l 65 0 m 793 -49 b 521 -268 792 -174 690 -268 b 253 -49 360 -268 252 -182 l 422 -49 b 523 -132 421 -91 449 -132 b 623 -49 593 -132 622 -89 "},"Ħ":{"ha":1156,"x_min":0,"x_max":0,"o":"m 1119 730 l 1034 730 l 1034 0 l 760 0 l 760 395 l 397 395 l 397 0 l 122 0 l 122 730 l 37 730 l 37 860 l 122 860 l 122 1010 l 397 1010 l 397 860 l 760 860 l 760 1010 l 1034 1010 l 1034 860 l 1119 860 m 397 730 l 397 616 l 760 616 l 760 730 "},"Ӈ":{"ha":1042,"x_min":0,"x_max":0,"o":"m 65 1010 l 339 1010 l 339 616 l 702 616 l 702 1010 l 977 1010 l 977 -28 b 578 -310 977 -99 977 -310 b 493 -304 541 -310 498 -304 l 493 -87 b 568 -91 511 -88 549 -91 b 702 -8 629 -91 702 -79 l 702 395 l 339 395 l 339 0 l 65 0 "},"Ң":{"ha":1267,"x_min":0,"x_max":0,"o":"m 65 1010 l 339 1010 l 339 616 l 702 616 l 702 1010 l 977 1010 l 977 170 l 1239 170 l 1239 -243 l 977 -243 l 977 0 l 702 0 l 702 395 l 339 395 l 339 0 l 65 0 "},"Ӊ":{"ha":1205,"x_min":0,"x_max":0,"o":"m 65 1010 l 339 1010 l 339 616 l 702 616 l 702 1010 l 977 1010 l 977 140 l 1178 140 l 1178 6 b 1018 -308 1180 -116 1109 -245 l 898 -239 b 915 -211 903 -229 909 -220 b 977 -14 944 -165 977 -111 l 977 0 l 702 0 l 702 395 l 339 395 l 339 0 l 65 0 "},"Ҥ":{"ha":1417,"x_min":0,"x_max":0,"o":"m 1379 789 l 977 789 l 977 0 l 702 0 l 702 395 l 339 395 l 339 0 l 65 0 l 65 1010 l 339 1010 l 339 616 l 702 616 l 702 1010 l 1379 1010 "},"Ƕ":{"ha":1568,"x_min":0,"x_max":0,"o":"m 1101 -14 b 702 353 854 -14 702 126 l 702 395 l 339 395 l 339 0 l 65 0 l 65 1010 l 339 1010 l 339 616 l 702 616 l 702 1010 l 977 1010 l 977 353 b 1101 211 977 264 1024 211 b 1225 353 1178 211 1225 264 l 1225 724 l 1499 724 l 1499 353 b 1101 -14 1499 126 1349 -14 "},"Η":{"ha":1042,"x_min":0,"x_max":0,"o":"m 65 1010 l 339 1010 l 339 616 l 702 616 l 702 1010 l 977 1010 l 977 0 l 702 0 l 702 395 l 339 395 l 339 0 l 65 0 "},"Ή":{"ha":1351,"x_min":0,"x_max":0,"o":"m 375 1010 l 649 1010 l 649 616 l 1012 616 l 1012 1010 l 1286 1010 l 1286 0 l 1012 0 l 1012 395 l 649 395 l 649 0 l 375 0 m 142 1089 l 371 1089 l 229 852 l 77 852 "},"Ἠ":{"ha":1290,"x_min":0,"x_max":0,"o":"m 314 1010 l 588 1010 l 588 616 l 951 616 l 951 1010 l 1225 1010 l 1225 0 l 951 0 l 951 395 l 588 395 l 588 0 l 314 0 m 235 939 b 126 765 235 850 183 789 l 65 840 b 118 943 109 860 118 898 l 118 1010 l 235 1010 "},"Ἡ":{"ha":1267,"x_min":0,"x_max":0,"o":"m 290 1010 l 564 1010 l 564 616 l 927 616 l 927 1010 l 1201 1010 l 1201 0 l 927 0 l 927 395 l 564 395 l 564 0 l 290 0 m 73 1010 l 191 1010 l 191 943 b 243 840 192 908 198 862 l 182 765 b 73 939 125 789 74 850 "},"Ἢ":{"ha":1521,"x_min":0,"x_max":0,"o":"m 545 1010 l 819 1010 l 819 616 l 1182 616 l 1182 1010 l 1456 1010 l 1456 0 l 1182 0 l 1182 395 l 819 395 l 819 0 l 545 0 m 258 955 b 126 765 259 876 210 809 l 71 807 b 128 959 109 848 129 896 l 128 1010 l 258 1010 m 521 781 l 454 781 l 290 996 l 290 1010 l 440 1010 l 521 791 "},"Ἣ":{"ha":1488,"x_min":0,"x_max":0,"o":"m 511 1010 l 785 1010 l 785 616 l 1148 616 l 1148 1010 l 1422 1010 l 1422 0 l 1148 0 l 1148 395 l 785 395 l 785 0 l 511 0 m 67 1010 l 187 1010 l 187 943 b 241 840 186 908 190 862 l 180 765 b 67 939 117 789 66 850 m 479 779 l 412 779 l 249 996 l 249 1010 l 400 1010 l 479 799 "},"Ἤ":{"ha":1517,"x_min":0,"x_max":0,"o":"m 541 1010 l 815 1010 l 815 616 l 1178 616 l 1178 1010 l 1452 1010 l 1452 0 l 1178 0 l 1178 395 l 815 395 l 815 0 l 541 0 m 249 939 b 136 765 248 852 196 789 l 75 840 b 128 943 123 862 127 908 l 128 1010 l 249 1010 m 276 799 l 357 1010 l 507 1010 l 507 996 l 343 779 l 276 779 "},"Ἥ":{"ha":1533,"x_min":0,"x_max":0,"o":"m 556 1010 l 831 1010 l 831 616 l 1194 616 l 1194 1010 l 1468 1010 l 1468 0 l 1194 0 l 1194 395 l 831 395 l 831 0 l 556 0 m 290 799 l 367 1010 l 519 1010 l 519 996 l 353 779 l 290 779 m 182 765 b 73 939 129 787 73 846 l 73 1010 l 191 1010 l 191 943 b 243 840 192 898 200 860 l 182 765 "},"Ἦ":{"ha":1411,"x_min":0,"x_max":0,"o":"m 434 1010 l 708 1010 l 708 616 l 1071 616 l 1071 1010 l 1345 1010 l 1345 0 l 1071 0 l 1071 395 l 708 395 l 708 0 l 434 0 m 497 1152 b 383 1030 497 1087 450 1030 b 211 1073 310 1030 272 1073 b 170 1014 185 1073 170 1046 l 67 1044 b 182 1168 67 1109 114 1168 b 353 1126 241 1168 296 1126 b 395 1184 377 1126 395 1152 m 351 935 b 237 793 351 856 298 811 l 183 854 b 235 941 231 868 235 909 l 235 994 l 351 994 "},"Ἧ":{"ha":1438,"x_min":0,"x_max":0,"o":"m 462 1010 l 736 1010 l 736 616 l 1099 616 l 1099 1010 l 1373 1010 l 1373 0 l 1099 0 l 1099 395 l 736 395 l 736 0 l 462 0 m 497 1152 b 383 1030 497 1087 450 1030 b 211 1073 310 1030 272 1073 b 170 1014 185 1073 170 1046 l 67 1044 b 182 1168 67 1109 114 1168 b 353 1126 241 1168 296 1126 b 395 1184 377 1126 395 1152 m 237 994 l 353 994 l 353 941 b 404 854 353 909 357 868 l 349 793 b 237 935 296 809 237 852 "},"Ὴ":{"ha":1310,"x_min":0,"x_max":0,"o":"m 333 1010 l 608 1010 l 608 616 l 971 616 l 971 1010 l 1245 1010 l 1245 0 l 971 0 l 971 395 l 608 395 l 608 0 l 333 0 m 71 996 l 71 1010 l 221 1010 l 298 803 l 298 779 l 235 779 "},"Ή":{"ha":1310,"x_min":0,"x_max":0,"o":"m 333 1010 l 608 1010 l 608 616 l 971 616 l 971 1010 l 1245 1010 l 1245 0 l 971 0 l 971 395 l 608 395 l 608 0 l 333 0 m 41 876 l 120 1083 l 337 1083 l 337 1069 l 174 852 l 41 852 "},"Н":{"ha":1042,"x_min":0,"x_max":0,"o":"m 65 1010 l 339 1010 l 339 616 l 702 616 l 702 1010 l 977 1010 l 977 0 l 702 0 l 702 395 l 339 395 l 339 0 l 65 0 "},"ᾘ":{"ha":1271,"x_min":0,"x_max":0,"o":"m 294 1010 l 568 1010 l 568 616 l 931 616 l 931 1010 l 1205 1010 l 1205 0 l 931 0 l 931 395 l 568 395 l 568 0 l 294 0 m 821 -335 b 683 -207 746 -335 683 -298 l 683 -69 l 823 -69 l 823 -207 b 862 -239 823 -227 829 -239 b 894 -237 878 -239 886 -237 l 894 -326 b 821 -335 871 -331 849 -335 m 215 939 b 107 765 215 850 164 789 l 45 840 b 99 943 89 860 99 898 l 99 1010 l 215 1010 "},"ᾙ":{"ha":1267,"x_min":0,"x_max":0,"o":"m 290 1010 l 564 1010 l 564 616 l 927 616 l 927 1010 l 1201 1010 l 1201 0 l 927 0 l 927 395 l 564 395 l 564 0 l 290 0 m 817 -335 b 679 -207 742 -335 679 -298 l 679 -69 l 819 -69 l 819 -207 b 858 -239 819 -227 825 -239 b 890 -237 874 -239 882 -237 l 890 -326 b 817 -335 867 -331 845 -335 m 73 1010 l 191 1010 l 191 943 b 243 840 192 908 198 862 l 182 765 b 73 939 125 789 74 850 "},"ᾚ":{"ha":1521,"x_min":0,"x_max":0,"o":"m 545 1010 l 819 1010 l 819 616 l 1182 616 l 1182 1010 l 1456 1010 l 1456 0 l 1182 0 l 1182 395 l 819 395 l 819 0 l 545 0 m 1071 -335 b 933 -207 997 -335 933 -298 l 933 -69 l 1073 -69 l 1073 -207 b 1113 -239 1073 -227 1080 -239 b 1144 -237 1129 -239 1137 -237 l 1144 -326 b 1071 -335 1121 -331 1099 -335 m 258 955 b 126 765 259 876 210 809 l 71 807 b 128 959 109 848 129 896 l 128 1010 l 258 1010 m 521 781 l 454 781 l 290 996 l 290 1010 l 440 1010 l 521 791 "},"ᾛ":{"ha":1488,"x_min":0,"x_max":0,"o":"m 511 1010 l 785 1010 l 785 616 l 1148 616 l 1148 1010 l 1422 1010 l 1422 0 l 1148 0 l 1148 395 l 785 395 l 785 0 l 511 0 m 1038 -335 b 900 -207 963 -335 900 -298 l 900 -69 l 1040 -69 l 1040 -207 b 1079 -239 1040 -227 1046 -239 b 1111 -237 1095 -239 1103 -237 l 1111 -326 b 1038 -335 1088 -331 1066 -335 m 67 1010 l 187 1010 l 187 943 b 241 840 186 908 190 862 l 180 765 b 67 939 117 789 66 850 m 479 779 l 412 779 l 249 996 l 249 1010 l 400 1010 l 479 799 "},"ᾜ":{"ha":1517,"x_min":0,"x_max":0,"o":"m 541 1010 l 815 1010 l 815 616 l 1178 616 l 1178 1010 l 1452 1010 l 1452 0 l 1178 0 l 1178 395 l 815 395 l 815 0 l 541 0 m 1067 -335 b 929 -207 993 -335 929 -298 l 929 -69 l 1069 -69 l 1069 -207 b 1109 -239 1069 -227 1076 -239 b 1140 -237 1125 -239 1133 -237 l 1140 -326 b 1067 -335 1117 -331 1095 -335 m 249 939 b 136 765 248 852 196 789 l 75 840 b 128 943 123 862 127 908 l 128 1010 l 249 1010 m 276 799 l 357 1010 l 507 1010 l 507 996 l 343 779 l 276 779 "},"ᾝ":{"ha":1533,"x_min":0,"x_max":0,"o":"m 556 1010 l 831 1010 l 831 616 l 1194 616 l 1194 1010 l 1468 1010 l 1468 0 l 1194 0 l 1194 395 l 831 395 l 831 0 l 556 0 m 1083 -335 b 945 -207 1009 -335 945 -298 l 945 -69 l 1085 -69 l 1085 -207 b 1125 -239 1085 -227 1091 -239 b 1156 -237 1141 -239 1149 -237 l 1156 -326 b 1083 -335 1133 -331 1111 -335 m 290 799 l 367 1010 l 519 1010 l 519 996 l 353 779 l 290 779 m 182 765 b 73 939 129 787 73 846 l 73 1010 l 191 1010 l 191 943 b 243 840 192 898 200 860 l 182 765 "},"ᾞ":{"ha":1411,"x_min":0,"x_max":0,"o":"m 434 1010 l 708 1010 l 708 616 l 1071 616 l 1071 1010 l 1345 1010 l 1345 0 l 1071 0 l 1071 395 l 708 395 l 708 0 l 434 0 m 497 1152 b 383 1030 497 1087 450 1030 b 211 1073 310 1030 272 1073 b 170 1014 185 1073 170 1046 l 67 1044 b 182 1168 67 1109 114 1168 b 353 1126 241 1168 296 1126 b 395 1184 377 1126 395 1152 m 961 -335 b 823 -207 886 -335 823 -298 l 823 -69 l 963 -69 l 963 -207 b 1002 -239 963 -227 969 -239 b 1034 -237 1018 -239 1026 -237 l 1034 -326 b 961 -335 1011 -331 989 -335 m 351 935 b 237 793 351 856 298 811 l 183 854 b 235 941 231 868 235 909 l 235 994 l 351 994 "},"ᾟ":{"ha":1438,"x_min":0,"x_max":0,"o":"m 462 1010 l 736 1010 l 736 616 l 1099 616 l 1099 1010 l 1373 1010 l 1373 0 l 1099 0 l 1099 395 l 736 395 l 736 0 l 462 0 m 497 1152 b 383 1030 497 1087 450 1030 b 211 1073 310 1030 272 1073 b 170 1014 185 1073 170 1046 l 67 1044 b 182 1168 67 1109 114 1168 b 353 1126 241 1168 296 1126 b 395 1184 377 1126 395 1152 m 988 -335 b 850 -207 914 -335 850 -298 l 850 -69 l 990 -69 l 990 -207 b 1030 -239 990 -227 997 -239 b 1061 -237 1046 -239 1054 -237 l 1061 -326 b 988 -335 1038 -331 1017 -335 m 237 994 l 353 994 l 353 941 b 404 854 353 909 357 868 l 349 793 b 237 935 296 809 237 852 "},"ῌ":{"ha":1042,"x_min":0,"x_max":0,"o":"m 65 1010 l 339 1010 l 339 616 l 702 616 l 702 1010 l 977 1010 l 977 0 l 702 0 l 702 395 l 339 395 l 339 0 l 65 0 m 592 -335 b 454 -207 517 -335 454 -298 l 454 -69 l 594 -69 l 594 -207 b 633 -239 594 -227 600 -239 b 665 -237 650 -239 657 -237 l 665 -326 b 592 -335 642 -331 620 -335 "},"I":{"ha":404,"x_min":0,"x_max":0,"o":"m 339 0 l 65 0 l 65 1010 l 339 1010 "},"Ï":{"ha":404,"x_min":0,"x_max":0,"o":"m 339 0 l 65 0 l 65 1010 l 339 1010 m 47 1099 b -73 1213 -20 1099 -73 1150 b 47 1328 -73 1276 -20 1328 b 166 1213 112 1328 166 1276 b 47 1099 166 1150 112 1099 m 361 1099 b 241 1213 294 1099 241 1150 b 361 1328 241 1276 294 1328 b 479 1213 426 1328 479 1276 b 361 1099 479 1150 426 1099 "},"Ḯ":{"ha":404,"x_min":0,"x_max":0,"o":"m 339 0 l 65 0 l 65 1010 l 339 1010 m 234 1528 l 457 1528 l 286 1338 l 103 1338 m 58 1073 b -55 1176 -5 1073 -55 1120 b 58 1280 -55 1234 -5 1280 b 168 1176 118 1280 168 1234 b 58 1073 168 1120 118 1073 m 351 1073 b 238 1176 288 1073 238 1120 b 351 1280 238 1234 288 1280 b 462 1176 412 1280 462 1234 b 351 1073 462 1120 412 1073 "},"Ɨ":{"ha":404,"x_min":0,"x_max":0,"o":"m 339 614 l 466 614 l 466 468 l 339 468 l 339 0 l 65 0 l 65 468 l -65 468 l -65 614 l 65 614 l 65 1010 l 339 1010 "},"Ḭ":{"ha":404,"x_min":0,"x_max":0,"o":"m 339 0 l 65 0 l 65 1010 l 339 1010 m -49 -284 b 118 -73 -49 -142 25 -73 b 246 -125 179 -73 216 -102 b 302 -154 266 -141 283 -154 b 355 -77 340 -153 354 -125 l 487 -77 b 320 -290 485 -217 412 -289 b 194 -239 259 -291 223 -262 b 136 -209 174 -223 157 -209 b 85 -284 105 -209 85 -235 "},"Ì":{"ha":404,"x_min":0,"x_max":0,"o":"m 339 0 l 65 0 l 65 1010 l 339 1010 m -34 1326 l 199 1326 l 294 1105 l 114 1105 "},"Í":{"ha":404,"x_min":0,"x_max":0,"o":"m 339 0 l 65 0 l 65 1010 l 339 1010 m 207 1326 l 440 1326 l 292 1105 l 112 1105 "},"Î":{"ha":404,"x_min":0,"x_max":0,"o":"m 339 0 l 65 0 l 65 1010 l 339 1010 m 203 1209 l 107 1101 l -118 1101 l -118 1107 l 109 1332 l 298 1332 l 525 1107 l 525 1101 l 300 1101 "},"Ĩ":{"ha":633,"x_min":0,"x_max":0,"o":"m 452 0 l 178 0 l 178 1010 l 452 1010 m 47 1105 b 215 1316 47 1247 122 1315 b 342 1264 276 1316 313 1287 b 399 1235 363 1248 380 1235 b 452 1312 436 1235 451 1264 l 584 1312 b 416 1099 582 1172 509 1100 b 291 1150 356 1098 320 1126 b 233 1180 271 1166 254 1180 b 182 1105 201 1180 182 1154 "},"Ī":{"ha":404,"x_min":0,"x_max":0,"o":"m 339 0 l 65 0 l 65 1010 l 339 1010 m 450 1138 l -43 1138 l -43 1263 l 450 1263 "},"Ĭ":{"ha":404,"x_min":0,"x_max":0,"o":"m 339 0 l 65 0 l 65 1010 l 339 1010 m 473 1282 b 203 1071 473 1154 368 1071 b -67 1282 37 1071 -68 1154 l 103 1282 b 203 1199 102 1241 130 1199 b 302 1282 274 1199 301 1239 "},"Į":{"ha":404,"x_min":0,"x_max":0,"o":"m 339 0 b 241 -79 276 -20 240 -39 b 286 -130 240 -112 260 -130 b 327 -122 303 -130 315 -124 l 359 -245 b 241 -274 333 -258 293 -274 b 59 -144 149 -274 84 -227 b 65 12 43 -91 46 -31 l 65 1010 l 339 1010 "},"İ":{"ha":404,"x_min":0,"x_max":0,"o":"m 339 0 l 65 0 l 65 1010 l 339 1010 m 203 1089 b 69 1213 129 1089 69 1145 b 203 1338 69 1282 129 1338 b 337 1213 277 1338 337 1282 b 203 1089 337 1145 277 1089 "},"Ǐ":{"ha":404,"x_min":0,"x_max":0,"o":"m 339 0 l 65 0 l 65 1010 l 339 1010 m 203 1223 l 300 1332 l 525 1332 l 525 1326 l 298 1101 l 109 1101 l -118 1326 l -118 1332 l 107 1332 "},"Ȉ":{"ha":404,"x_min":0,"x_max":0,"o":"m 339 0 l 65 0 l 65 1010 l 339 1010 m -159 1326 l 74 1326 l 169 1105 l -11 1105 m 161 1326 l 381 1326 l 431 1105 l 256 1105 "},"Ȋ":{"ha":404,"x_min":0,"x_max":0,"o":"m 339 0 l 65 0 l 65 1010 l 339 1010 m -69 1128 b 201 1347 -70 1257 35 1347 b 473 1128 366 1347 472 1257 l 302 1128 b 201 1209 301 1170 273 1209 b 103 1128 129 1209 102 1170 l -69 1128 "},"Ỉ":{"ha":404,"x_min":0,"x_max":0,"o":"m 339 0 l 65 0 l 65 1010 l 339 1010 m 103 1123 l 85 1199 b 182 1241 155 1201 182 1219 b 89 1282 182 1276 143 1282 l 95 1391 b 404 1255 297 1391 405 1342 b 298 1162 405 1199 352 1170 l 298 1123 "},"Ị":{"ha":404,"x_min":0,"x_max":0,"o":"m 339 0 l 65 0 l 65 1010 l 339 1010 m 201 -306 b 67 -182 127 -306 67 -250 b 201 -57 67 -113 127 -57 b 335 -182 275 -57 335 -113 b 201 -306 335 -250 275 -306 "},"Ɩ":{"ha":458,"x_min":0,"x_max":0,"o":"m 341 1010 l 341 247 b 393 199 342 216 360 199 b 426 203 410 199 420 201 l 466 16 b 353 -4 443 8 417 0 b 69 221 158 -14 70 52 l 69 1010 "},"Ι":{"ha":404,"x_min":0,"x_max":0,"o":"m 339 0 l 65 0 l 65 1010 l 339 1010 "},"Ί":{"ha":614,"x_min":0,"x_max":0,"o":"m 548 0 l 274 0 l 274 1010 l 548 1010 m 65 1089 l 294 1089 l 152 852 l 0 852 "},"Ϊ":{"ha":404,"x_min":0,"x_max":0,"o":"m 339 0 l 65 0 l 65 1010 l 339 1010 m 47 1099 b -73 1213 -20 1099 -73 1150 b 47 1328 -73 1276 -20 1328 b 166 1213 112 1328 166 1276 b 47 1099 166 1150 112 1099 m 361 1099 b 241 1213 294 1099 241 1150 b 361 1328 241 1276 294 1328 b 479 1213 426 1328 479 1276 b 361 1099 479 1150 426 1099 "},"Ἰ":{"ha":623,"x_min":0,"x_max":0,"o":"m 564 0 l 290 0 l 290 1010 l 564 1010 m 235 939 b 126 765 235 850 183 789 l 65 840 b 118 943 109 860 118 898 l 118 1010 l 235 1010 "},"Ἱ":{"ha":600,"x_min":0,"x_max":0,"o":"m 541 0 l 266 0 l 266 1010 l 541 1010 m 73 1010 l 191 1010 l 191 943 b 243 840 192 908 198 862 l 182 765 b 73 939 125 789 74 850 "},"Ἲ":{"ha":854,"x_min":0,"x_max":0,"o":"m 795 0 l 521 0 l 521 781 l 454 781 l 290 996 l 290 1010 l 440 1010 l 521 791 l 521 1010 l 795 1010 m 258 955 b 126 765 259 876 210 809 l 71 807 b 128 959 109 848 129 896 l 128 1010 l 258 1010 "},"Ἳ":{"ha":821,"x_min":0,"x_max":0,"o":"m 762 0 l 487 0 l 487 1010 l 762 1010 m 67 1010 l 187 1010 l 187 943 b 241 840 186 908 190 862 l 180 765 b 67 939 117 789 66 850 m 479 779 l 412 779 l 249 996 l 249 1010 l 400 1010 l 479 799 "},"Ἴ":{"ha":850,"x_min":0,"x_max":0,"o":"m 791 0 l 517 0 l 517 1010 l 791 1010 m 249 939 b 136 765 248 852 196 789 l 75 840 b 128 943 123 862 127 908 l 128 1010 l 249 1010 m 276 799 l 357 1010 l 507 1010 l 507 996 l 343 779 l 276 779 "},"Ἵ":{"ha":866,"x_min":0,"x_max":0,"o":"m 807 0 l 533 0 l 533 1010 l 807 1010 m 290 799 l 367 1010 l 519 1010 l 519 996 l 353 779 l 290 779 m 182 765 b 73 939 129 787 73 846 l 73 1010 l 191 1010 l 191 943 b 243 840 192 898 200 860 l 182 765 "},"Ἶ":{"ha":744,"x_min":0,"x_max":0,"o":"m 685 0 l 410 0 l 410 1010 l 685 1010 m 497 1152 b 383 1030 497 1087 450 1030 b 211 1073 310 1030 272 1073 b 170 1014 185 1073 170 1046 l 67 1044 b 182 1168 67 1109 114 1168 b 353 1126 241 1168 296 1126 b 395 1184 377 1126 395 1152 m 351 935 b 237 793 351 856 298 811 l 183 854 b 235 941 231 868 235 909 l 235 994 l 351 994 "},"Ἷ":{"ha":771,"x_min":0,"x_max":0,"o":"m 712 0 l 438 0 l 438 1010 l 712 1010 m 497 1152 b 383 1030 497 1087 450 1030 b 211 1073 310 1030 272 1073 b 170 1014 185 1073 170 1046 l 67 1044 b 182 1168 67 1109 114 1168 b 353 1126 241 1168 296 1126 b 395 1184 377 1126 395 1152 m 237 994 l 353 994 l 353 941 b 404 854 353 909 357 868 l 349 793 b 237 935 296 809 237 852 "},"Ῐ":{"ha":404,"x_min":0,"x_max":0,"o":"m 339 0 l 65 0 l 65 1010 l 339 1010 m 473 1282 b 203 1071 473 1154 368 1071 b -67 1282 37 1071 -68 1154 l 103 1282 b 203 1199 102 1241 130 1199 b 302 1282 274 1199 301 1239 "},"Ῑ":{"ha":404,"x_min":0,"x_max":0,"o":"m 339 0 l 65 0 l 65 1010 l 339 1010 m 450 1138 l -43 1138 l -43 1263 l 450 1263 "},"Ὶ":{"ha":643,"x_min":0,"x_max":0,"o":"m 584 0 l 310 0 l 310 1010 l 584 1010 m 71 996 l 71 1010 l 221 1010 l 298 803 l 298 779 l 235 779 "},"Ί":{"ha":643,"x_min":0,"x_max":0,"o":"m 584 0 l 310 0 l 310 1010 l 584 1010 m 41 876 l 120 1083 l 337 1083 l 337 1069 l 174 852 l 41 852 "},"І":{"ha":404,"x_min":0,"x_max":0,"o":"m 339 0 l 65 0 l 65 1010 l 339 1010 "},"Ї":{"ha":404,"x_min":0,"x_max":0,"o":"m 339 0 l 65 0 l 65 1010 l 339 1010 m 47 1099 b -73 1213 -20 1099 -73 1150 b 47 1328 -73 1276 -20 1328 b 166 1213 112 1328 166 1276 b 47 1099 166 1150 112 1099 m 361 1099 b 241 1213 294 1099 241 1150 b 361 1328 241 1276 294 1328 b 479 1213 426 1328 479 1276 b 361 1099 479 1150 426 1099 "},"":{"ha":700,"x_min":0,"x_max":0,"o":"m 37 1010 l 663 1010 l 663 789 l 487 789 l 487 221 l 663 221 l 663 0 l 37 0 l 37 221 l 213 221 l 213 789 l 37 789 "},"":{"ha":700,"x_min":0,"x_max":0,"o":"m 37 1010 l 663 1010 l 663 789 l 487 789 l 487 221 l 663 221 l 663 0 l 37 0 l 37 221 l 213 221 l 213 789 l 37 789 m 195 1099 b 75 1213 128 1099 75 1150 b 195 1328 75 1276 128 1328 b 314 1213 260 1328 314 1276 b 195 1099 314 1150 260 1099 m 509 1099 b 389 1213 442 1099 389 1150 b 509 1328 389 1276 442 1328 b 627 1213 574 1328 627 1276 b 509 1099 627 1150 574 1099 "},"":{"ha":700,"x_min":0,"x_max":0,"o":"m 37 1010 l 663 1010 l 663 789 l 487 789 l 487 221 l 663 221 l 663 0 l 37 0 l 37 221 l 213 221 l 213 789 l 37 789 m 382 1528 l 605 1528 l 434 1338 l 251 1338 m 206 1073 b 93 1176 143 1073 93 1120 b 206 1280 93 1234 143 1280 b 316 1176 266 1280 316 1234 b 206 1073 316 1120 266 1073 m 499 1073 b 386 1176 436 1073 386 1120 b 499 1280 386 1234 436 1280 b 610 1176 560 1280 610 1234 b 499 1073 610 1120 560 1073 "},"":{"ha":700,"x_min":0,"x_max":0,"o":"m 37 1010 l 663 1010 l 663 789 l 487 789 l 487 614 l 614 614 l 614 468 l 487 468 l 487 221 l 663 221 l 663 0 l 37 0 l 37 221 l 213 221 l 213 468 l 83 468 l 83 614 l 213 614 l 213 789 l 37 789 "},"":{"ha":700,"x_min":0,"x_max":0,"o":"m 37 1010 l 663 1010 l 663 789 l 487 789 l 487 221 l 663 221 l 663 0 l 37 0 l 37 221 l 213 221 l 213 789 l 37 789 m 99 -284 b 266 -73 99 -142 173 -73 b 394 -125 327 -73 364 -102 b 450 -154 414 -141 431 -154 b 503 -77 488 -153 502 -125 l 635 -77 b 468 -290 633 -217 560 -289 b 342 -239 407 -291 371 -262 b 284 -209 322 -223 305 -209 b 233 -284 253 -209 233 -235 "},"":{"ha":700,"x_min":0,"x_max":0,"o":"m 37 1010 l 663 1010 l 663 789 l 487 789 l 487 221 l 663 221 l 663 0 l 37 0 l 37 221 l 213 221 l 213 789 l 37 789 m 114 1326 l 347 1326 l 442 1105 l 262 1105 "},"":{"ha":700,"x_min":0,"x_max":0,"o":"m 37 1010 l 663 1010 l 663 789 l 487 789 l 487 221 l 663 221 l 663 0 l 37 0 l 37 221 l 213 221 l 213 789 l 37 789 m 355 1326 l 588 1326 l 440 1105 l 260 1105 "},"":{"ha":700,"x_min":0,"x_max":0,"o":"m 37 1010 l 663 1010 l 663 789 l 487 789 l 487 221 l 663 221 l 663 0 l 37 0 l 37 221 l 213 221 l 213 789 l 37 789 m 351 1209 l 254 1101 l 30 1101 l 30 1107 l 256 1332 l 446 1332 l 673 1107 l 673 1101 l 448 1101 "},"":{"ha":700,"x_min":0,"x_max":0,"o":"m 37 1010 l 663 1010 l 663 789 l 487 789 l 487 221 l 663 221 l 663 0 l 37 0 l 37 221 l 213 221 l 213 789 l 37 789 m 83 1105 b 251 1316 83 1247 157 1315 b 378 1264 311 1316 348 1287 b 434 1235 398 1248 415 1235 b 487 1312 472 1235 486 1264 l 619 1312 b 452 1099 618 1172 544 1100 b 327 1150 391 1098 356 1126 b 268 1180 306 1166 289 1180 b 217 1105 237 1180 217 1154 "},"":{"ha":700,"x_min":0,"x_max":0,"o":"m 37 1010 l 663 1010 l 663 789 l 487 789 l 487 221 l 663 221 l 663 0 l 37 0 l 37 221 l 213 221 l 213 789 l 37 789 m 598 1138 l 105 1138 l 105 1263 l 598 1263 "},"":{"ha":700,"x_min":0,"x_max":0,"o":"m 37 1010 l 663 1010 l 663 789 l 487 789 l 487 221 l 663 221 l 663 0 l 37 0 l 37 221 l 213 221 l 213 789 l 37 789 m 621 1282 b 351 1071 621 1154 516 1071 b 81 1282 185 1071 80 1154 l 251 1282 b 351 1199 250 1241 278 1199 b 450 1282 422 1199 449 1239 "},"":{"ha":700,"x_min":0,"x_max":0,"o":"m 37 1010 l 663 1010 l 663 789 l 487 789 l 487 221 l 663 221 l 663 0 b 564 -79 599 -20 564 -39 b 610 -130 564 -112 583 -130 b 651 -122 627 -130 639 -124 l 683 -245 b 564 -274 656 -258 617 -274 b 383 -144 473 -274 408 -227 b 384 0 368 -96 369 -42 l 37 0 l 37 221 l 213 221 l 213 789 l 37 789 "},"":{"ha":700,"x_min":0,"x_max":0,"o":"m 37 1010 l 663 1010 l 663 789 l 487 789 l 487 221 l 663 221 l 663 0 l 37 0 l 37 221 l 213 221 l 213 789 l 37 789 m 351 1089 b 217 1213 277 1089 217 1145 b 351 1338 217 1282 277 1338 b 485 1213 425 1338 485 1282 b 351 1089 485 1145 425 1089 "},"":{"ha":700,"x_min":0,"x_max":0,"o":"m 37 1010 l 663 1010 l 663 789 l 487 789 l 487 221 l 663 221 l 663 0 l 37 0 l 37 221 l 213 221 l 213 789 l 37 789 m 351 1223 l 448 1332 l 673 1332 l 673 1326 l 446 1101 l 256 1101 l 30 1326 l 30 1332 l 254 1332 "},"":{"ha":700,"x_min":0,"x_max":0,"o":"m 37 1010 l 663 1010 l 663 789 l 487 789 l 487 221 l 663 221 l 663 0 l 37 0 l 37 221 l 213 221 l 213 789 l 37 789 m -11 1326 l 222 1326 l 317 1105 l 137 1105 m 309 1326 l 529 1326 l 579 1105 l 404 1105 "},"":{"ha":700,"x_min":0,"x_max":0,"o":"m 37 1010 l 663 1010 l 663 789 l 487 789 l 487 221 l 663 221 l 663 0 l 37 0 l 37 221 l 213 221 l 213 789 l 37 789 m 79 1128 b 349 1347 78 1257 182 1347 b 621 1128 514 1347 620 1257 l 450 1128 b 349 1209 449 1170 421 1209 b 251 1128 277 1209 250 1170 l 79 1128 "},"":{"ha":700,"x_min":0,"x_max":0,"o":"m 37 1010 l 663 1010 l 663 789 l 487 789 l 487 221 l 663 221 l 663 0 l 37 0 l 37 221 l 213 221 l 213 789 l 37 789 m 251 1123 l 233 1199 b 329 1241 303 1201 330 1219 b 237 1282 330 1276 291 1282 l 243 1391 b 552 1255 445 1391 553 1342 b 446 1162 553 1199 500 1170 l 446 1123 "},"":{"ha":700,"x_min":0,"x_max":0,"o":"m 37 1010 l 663 1010 l 663 789 l 487 789 l 487 221 l 663 221 l 663 0 l 37 0 l 37 221 l 213 221 l 213 789 l 37 789 m 349 -306 b 215 -182 275 -306 215 -250 b 349 -57 215 -113 275 -57 b 483 -182 423 -57 483 -113 b 349 -306 483 -250 423 -306 "},"":{"ha":925,"x_min":0,"x_max":0,"o":"m 262 1010 l 888 1010 l 888 789 l 712 789 l 712 221 l 888 221 l 888 0 l 262 0 l 262 221 l 438 221 l 438 789 l 262 789 m 207 939 b 99 765 207 850 156 789 l 37 840 b 91 943 81 860 91 898 l 91 1010 l 207 1010 "},"":{"ha":894,"x_min":0,"x_max":0,"o":"m 231 1010 l 856 1010 l 856 789 l 681 789 l 681 221 l 856 221 l 856 0 l 231 0 l 231 221 l 406 221 l 406 789 l 231 789 m 37 1010 l 156 1010 l 156 943 b 207 840 157 908 163 862 l 146 765 b 37 939 90 789 38 850 "},"":{"ha":1150,"x_min":0,"x_max":0,"o":"m 487 781 l 420 781 l 256 996 l 256 1010 l 406 1010 l 487 791 l 487 1010 l 1113 1010 l 1113 789 l 937 789 l 937 221 l 1113 221 l 1113 0 l 487 0 l 487 221 l 663 221 l 663 789 l 487 789 m 225 955 b 93 765 225 876 176 809 l 37 807 b 95 959 75 848 95 896 l 95 1010 l 225 1010 "},"":{"ha":1121,"x_min":0,"x_max":0,"o":"m 458 1010 l 1083 1010 l 1083 789 l 908 789 l 908 221 l 1083 221 l 1083 0 l 458 0 l 458 221 l 633 221 l 633 789 l 458 789 m 37 1010 l 158 1010 l 158 943 b 211 840 157 908 161 862 l 150 765 b 37 939 88 789 36 850 m 450 779 l 383 779 l 219 996 l 219 1010 l 371 1010 l 450 799 "},"":{"ha":1142,"x_min":0,"x_max":0,"o":"m 479 1010 l 1105 1010 l 1105 789 l 929 789 l 929 221 l 1105 221 l 1105 0 l 479 0 l 479 221 l 655 221 l 655 789 l 479 789 m 211 939 b 99 765 210 852 159 789 l 37 840 b 91 943 86 862 90 908 l 91 1010 l 211 1010 m 239 799 l 320 1010 l 470 1010 l 470 996 l 306 779 l 239 779 "},"":{"ha":1160,"x_min":0,"x_max":0,"o":"m 497 1010 l 1123 1010 l 1123 789 l 947 789 l 947 221 l 1123 221 l 1123 0 l 497 0 l 497 221 l 673 221 l 673 789 l 497 789 m 254 799 l 331 1010 l 483 1010 l 483 996 l 318 779 l 254 779 m 146 765 b 37 939 93 787 38 846 l 37 1010 l 156 1010 l 156 943 b 207 840 156 898 164 860 l 146 765 "},"":{"ha":1044,"x_min":0,"x_max":0,"o":"m 381 1010 l 1006 1010 l 1006 789 l 831 789 l 831 221 l 1006 221 l 1006 0 l 381 0 l 381 221 l 556 221 l 556 789 l 381 789 m 468 1152 b 353 1030 468 1087 420 1030 b 182 1073 280 1030 243 1073 b 140 1014 156 1073 140 1046 l 37 1044 b 152 1168 37 1109 85 1168 b 324 1126 211 1168 266 1126 b 365 1184 347 1126 365 1152 m 322 935 b 207 793 322 856 268 811 l 154 854 b 205 941 201 868 205 909 l 205 994 l 322 994 "},"":{"ha":1071,"x_min":0,"x_max":0,"o":"m 408 1010 l 1034 1010 l 1034 789 l 858 789 l 858 221 l 1034 221 l 1034 0 l 408 0 l 408 221 l 584 221 l 584 789 l 408 789 m 468 1152 b 353 1030 468 1087 420 1030 b 182 1073 280 1030 243 1073 b 140 1014 156 1073 140 1046 l 37 1044 b 152 1168 37 1109 85 1168 b 324 1126 211 1168 266 1126 b 365 1184 347 1126 365 1152 m 207 994 l 324 994 l 324 941 b 375 854 324 909 327 868 l 320 793 b 207 935 266 809 207 852 "},"":{"ha":700,"x_min":0,"x_max":0,"o":"m 37 1010 l 663 1010 l 663 789 l 487 789 l 487 221 l 663 221 l 663 0 l 37 0 l 37 221 l 213 221 l 213 789 l 37 789 m 621 1282 b 351 1071 621 1154 516 1071 b 81 1282 185 1071 80 1154 l 251 1282 b 351 1199 250 1241 278 1199 b 450 1282 422 1199 449 1239 "},"":{"ha":700,"x_min":0,"x_max":0,"o":"m 37 1010 l 663 1010 l 663 789 l 487 789 l 487 221 l 663 221 l 663 0 l 37 0 l 37 221 l 213 221 l 213 789 l 37 789 m 598 1138 l 105 1138 l 105 1263 l 598 1263 "},"":{"ha":939,"x_min":0,"x_max":0,"o":"m 276 1010 l 902 1010 l 902 789 l 726 789 l 726 221 l 902 221 l 902 0 l 276 0 l 276 221 l 452 221 l 452 789 l 276 789 m 37 996 l 37 1010 l 187 1010 l 264 803 l 264 779 l 201 779 "},"":{"ha":939,"x_min":0,"x_max":0,"o":"m 276 1010 l 902 1010 l 902 789 l 726 789 l 726 221 l 902 221 l 902 0 l 276 0 l 276 221 l 452 221 l 452 789 l 276 789 m 8 876 l 87 1083 l 304 1083 l 304 1069 l 140 852 l 8 852 "},"":{"ha":700,"x_min":0,"x_max":0,"o":"m 37 1010 l 663 1010 l 663 789 l 487 789 l 487 221 l 663 221 l 663 0 l 37 0 l 37 221 l 213 221 l 213 789 l 37 789 "},"":{"ha":700,"x_min":0,"x_max":0,"o":"m 37 1010 l 663 1010 l 663 789 l 487 789 l 487 221 l 663 221 l 663 0 l 37 0 l 37 221 l 213 221 l 213 789 l 37 789 m 195 1099 b 75 1213 128 1099 75 1150 b 195 1328 75 1276 128 1328 b 314 1213 260 1328 314 1276 b 195 1099 314 1150 260 1099 m 509 1099 b 389 1213 442 1099 389 1150 b 509 1328 389 1276 442 1328 b 627 1213 574 1328 627 1276 b 509 1099 627 1150 574 1099 "},"J":{"ha":817,"x_min":0,"x_max":0,"o":"m 752 1010 l 752 318 b 369 -14 751 120 593 -14 b 16 316 175 -14 15 83 l 290 316 b 387 199 293 239 327 199 b 481 318 448 199 480 240 l 481 1010 "},"Ĵ":{"ha":817,"x_min":0,"x_max":0,"o":"m 752 1010 l 752 318 b 369 -14 751 120 593 -14 b 16 316 175 -14 15 83 l 290 316 b 387 199 293 239 327 199 b 481 318 448 199 480 240 l 481 1010 m 616 1209 l 519 1101 l 294 1101 l 294 1107 l 521 1332 l 710 1332 l 937 1107 l 937 1101 l 712 1101 "},"Ɉ":{"ha":817,"x_min":0,"x_max":0,"o":"m 752 1010 l 752 679 l 878 679 l 878 533 l 752 533 l 752 318 b 369 -14 751 120 593 -14 b 16 316 175 -14 15 83 l 290 316 b 387 199 293 239 327 199 b 481 318 448 199 480 240 l 481 533 l 347 533 l 347 679 l 481 679 l 481 1010 "},"Ϳ":{"ha":817,"x_min":0,"x_max":0,"o":"m 752 1010 l 752 318 b 369 -14 751 120 593 -14 b 16 316 175 -14 15 83 l 290 316 b 387 199 293 239 327 199 b 481 318 448 199 480 240 l 481 1010 "},"Ј":{"ha":817,"x_min":0,"x_max":0,"o":"m 752 1010 l 752 318 b 369 -14 751 120 593 -14 b 16 316 175 -14 15 83 l 290 316 b 387 199 293 239 327 199 b 481 318 448 199 480 240 l 481 1010 "},"K":{"ha":992,"x_min":0,"x_max":0,"o":"m 65 1010 l 339 1010 l 339 602 l 353 602 l 657 1010 l 977 1010 l 635 560 l 984 0 l 657 0 l 430 379 l 339 260 l 339 0 l 65 0 "},"Ķ":{"ha":992,"x_min":0,"x_max":0,"o":"m 65 1010 l 339 1010 l 339 602 l 353 602 l 657 1010 l 977 1010 l 635 560 l 984 0 l 657 0 l 430 379 l 339 260 l 339 0 l 65 0 m 370 -78 l 615 -78 l 490 -314 l 305 -314 "},"Ǩ":{"ha":992,"x_min":0,"x_max":0,"o":"m 65 1010 l 339 1010 l 339 602 l 353 602 l 657 1010 l 977 1010 l 635 560 l 984 0 l 657 0 l 430 379 l 339 260 l 339 0 l 65 0 m 491 1223 l 588 1332 l 813 1332 l 813 1326 l 586 1101 l 397 1101 l 170 1326 l 170 1332 l 395 1332 "},"Ḱ":{"ha":992,"x_min":0,"x_max":0,"o":"m 65 1010 l 339 1010 l 339 602 l 353 602 l 657 1010 l 977 1010 l 635 560 l 984 0 l 657 0 l 430 379 l 339 260 l 339 0 l 65 0 m 495 1326 l 728 1326 l 580 1105 l 400 1105 "},"Ḳ":{"ha":992,"x_min":0,"x_max":0,"o":"m 65 1010 l 339 1010 l 339 602 l 353 602 l 657 1010 l 977 1010 l 635 560 l 984 0 l 657 0 l 430 379 l 339 260 l 339 0 l 65 0 m 489 -304 b 355 -180 415 -304 355 -248 b 489 -55 355 -111 415 -55 b 623 -180 563 -55 623 -111 b 489 -304 623 -248 563 -304 "},"Ḵ":{"ha":992,"x_min":0,"x_max":0,"o":"m 65 1010 l 339 1010 l 339 602 l 353 602 l 657 1010 l 977 1010 l 635 560 l 984 0 l 657 0 l 430 379 l 339 260 l 339 0 l 65 0 m 736 -250 l 243 -250 l 243 -125 l 736 -125 "},"Ҡ":{"ha":1274,"x_min":0,"x_max":0,"o":"m 557 408 l 519 408 l 519 0 l 245 0 l 245 805 l 30 805 l 30 1010 l 519 1010 l 519 629 l 554 629 l 844 1010 l 1190 1010 l 805 525 l 1211 0 l 867 0 "},"Қ":{"ha":1077,"x_min":0,"x_max":0,"o":"m 378 408 l 339 408 l 339 0 l 65 0 l 65 1010 l 339 1010 l 339 629 l 375 629 l 665 1010 l 1010 1010 l 625 525 l 891 182 l 1046 182 l 1046 -231 l 783 -231 l 783 0 l 688 0 "},"Ƙ":{"ha":1065,"x_min":0,"x_max":0,"o":"m 65 1010 l 339 1010 l 339 619 l 353 619 l 639 909 b 1057 973 760 1032 900 1059 l 977 781 b 842 744 913 811 885 786 l 637 537 l 1050 0 l 722 0 l 462 341 l 339 215 l 339 0 l 65 0 "},"Κ":{"ha":992,"x_min":0,"x_max":0,"o":"m 65 1010 l 339 1010 l 339 602 l 353 602 l 657 1010 l 977 1010 l 635 560 l 984 0 l 657 0 l 430 379 l 339 260 l 339 0 l 65 0 "},"L":{"ha":793,"x_min":0,"x_max":0,"o":"m 65 1010 l 339 1010 l 339 221 l 748 221 l 748 0 l 65 0 "},"Ĺ":{"ha":793,"x_min":0,"x_max":0,"o":"m 65 1010 l 339 1010 l 339 221 l 748 221 l 748 0 l 65 0 m 203 1326 l 436 1326 l 288 1105 l 109 1105 "},"Ļ":{"ha":793,"x_min":0,"x_max":0,"o":"m 65 1010 l 339 1010 l 339 221 l 748 221 l 748 0 l 65 0 m 287 -80 l 532 -80 l 407 -316 l 222 -316 "},"Ľ":{"ha":793,"x_min":0,"x_max":0,"o":"m 65 1010 l 339 1010 l 339 221 l 748 221 l 748 0 l 65 0 m 477 1065 l 661 1065 l 624 802 l 477 802 "},"Ḷ":{"ha":793,"x_min":0,"x_max":0,"o":"m 65 1010 l 339 1010 l 339 221 l 748 221 l 748 0 l 65 0 m 406 -306 b 272 -182 332 -306 272 -250 b 406 -57 272 -113 332 -57 b 541 -182 480 -57 541 -113 b 406 -306 541 -250 480 -306 "},"Ḹ":{"ha":793,"x_min":0,"x_max":0,"o":"m 65 1010 l 339 1010 l 339 221 l 748 221 l 748 0 l 65 0 m 446 1138 l -47 1138 l -47 1263 l 446 1263 m 406 -306 b 272 -182 332 -306 272 -250 b 406 -57 272 -113 332 -57 b 541 -182 480 -57 541 -113 b 406 -306 541 -250 480 -306 "},"Ḻ":{"ha":793,"x_min":0,"x_max":0,"o":"m 65 1010 l 339 1010 l 339 221 l 748 221 l 748 0 l 65 0 m 653 -252 l 160 -252 l 160 -127 l 653 -127 "},"Ḽ":{"ha":793,"x_min":0,"x_max":0,"o":"m 65 1010 l 339 1010 l 339 221 l 748 221 l 748 0 l 65 0 m 406 -185 l 310 -294 l 85 -294 l 85 -288 l 312 -63 l 501 -63 l 728 -288 l 728 -294 l 503 -294 "},"Ł":{"ha":835,"x_min":0,"x_max":0,"o":"m 509 531 l 410 506 l 410 221 l 819 221 l 819 0 l 136 0 l 136 436 l 14 404 l 14 539 l 136 570 l 136 1010 l 410 1010 l 410 641 l 509 667 "},"Ƚ":{"ha":793,"x_min":0,"x_max":0,"o":"m 65 468 l -65 468 l -65 614 l 65 614 l 65 1010 l 339 1010 l 339 614 l 466 614 l 466 468 l 339 468 l 339 221 l 748 221 l 748 0 l 65 0 "},"ǈ":{"ha":1203,"x_min":0,"x_max":0,"o":"m 65 1010 l 339 1010 l 339 221 l 748 221 l 748 0 l 65 0 m 1134 758 l 1134 -26 b 801 -284 1134 -225 1001 -284 b 746 -282 781 -284 766 -284 l 746 -81 b 777 -83 759 -82 767 -83 b 862 -20 842 -83 862 -64 l 862 758 m 998 836 b 864 961 924 836 864 892 b 998 1085 864 1029 924 1085 b 1132 961 1072 1085 1132 1029 b 998 836 1132 892 1072 836 "},"M":{"ha":1294,"x_min":0,"x_max":0,"o":"m 406 1010 l 641 438 l 653 438 l 888 1010 l 1229 1010 l 1229 0 l 961 0 l 961 584 l 953 584 l 728 8 l 566 8 l 341 588 l 333 588 l 333 0 l 65 0 l 65 1010 "},"Ḿ":{"ha":1294,"x_min":0,"x_max":0,"o":"m 406 1010 l 641 438 l 653 438 l 888 1010 l 1229 1010 l 1229 0 l 961 0 l 961 584 l 953 584 l 728 8 l 566 8 l 341 588 l 333 588 l 333 0 l 65 0 l 65 1010 m 651 1326 l 884 1326 l 736 1105 l 556 1105 "},"Ṁ":{"ha":1294,"x_min":0,"x_max":0,"o":"m 406 1010 l 641 438 l 653 438 l 888 1010 l 1229 1010 l 1229 0 l 961 0 l 961 584 l 953 584 l 728 8 l 566 8 l 341 588 l 333 588 l 333 0 l 65 0 l 65 1010 m 647 1089 b 513 1213 573 1089 513 1145 b 647 1338 513 1282 573 1338 b 781 1213 721 1338 781 1282 b 647 1089 781 1145 721 1089 "},"Ṃ":{"ha":1294,"x_min":0,"x_max":0,"o":"m 406 1010 l 641 438 l 653 438 l 888 1010 l 1229 1010 l 1229 0 l 961 0 l 961 584 l 953 584 l 728 8 l 566 8 l 341 588 l 333 588 l 333 0 l 65 0 l 65 1010 m 647 -306 b 513 -182 573 -306 513 -250 b 647 -57 513 -113 573 -57 b 781 -182 721 -57 781 -113 b 647 -306 781 -250 721 -306 "},"Ӎ":{"ha":1446,"x_min":0,"x_max":0,"o":"m 406 1010 l 641 438 l 653 438 l 888 1010 l 1229 1010 l 1229 140 l 1430 140 l 1430 6 b 1271 -308 1433 -116 1362 -245 l 1150 -239 b 1167 -211 1156 -229 1162 -220 b 1229 -14 1196 -165 1230 -111 l 1229 0 l 961 0 l 961 584 l 953 584 l 728 8 l 566 8 l 341 588 l 333 588 l 333 0 l 65 0 l 65 1010 "},"Μ":{"ha":1294,"x_min":0,"x_max":0,"o":"m 406 1010 l 641 438 l 653 438 l 888 1010 l 1229 1010 l 1229 0 l 961 0 l 961 584 l 953 584 l 728 8 l 566 8 l 341 588 l 333 588 l 333 0 l 65 0 l 65 1010 "},"Ϻ":{"ha":1294,"x_min":0,"x_max":0,"o":"m 406 1010 l 641 438 l 653 438 l 888 1010 l 1229 1010 l 1229 0 l 961 0 l 961 584 l 953 584 l 728 8 l 566 8 l 341 588 l 333 588 l 333 0 l 65 0 l 65 1010 "},"М":{"ha":1294,"x_min":0,"x_max":0,"o":"m 406 1010 l 641 438 l 653 438 l 888 1010 l 1229 1010 l 1229 0 l 961 0 l 961 584 l 953 584 l 728 8 l 566 8 l 341 588 l 333 588 l 333 0 l 65 0 l 65 1010 "},"N":{"ha":1004,"x_min":0,"x_max":0,"o":"m 939 0 l 710 0 l 345 531 l 339 531 l 339 0 l 65 0 l 65 1010 l 298 1010 l 657 481 l 665 481 l 665 1010 l 939 1010 "},"Ñ":{"ha":1004,"x_min":0,"x_max":0,"o":"m 939 0 l 710 0 l 345 531 l 339 531 l 339 0 l 65 0 l 65 1010 l 298 1010 l 657 481 l 665 481 l 665 1010 l 939 1010 m 235 1105 b 402 1316 235 1247 309 1315 b 530 1264 463 1316 500 1287 b 586 1235 550 1248 567 1235 b 639 1312 624 1235 638 1264 l 771 1312 b 604 1099 769 1172 696 1100 b 478 1150 543 1098 508 1126 b 420 1180 458 1166 441 1180 b 369 1105 389 1180 369 1154 "},"Ń":{"ha":1004,"x_min":0,"x_max":0,"o":"m 939 0 l 710 0 l 345 531 l 339 531 l 339 0 l 65 0 l 65 1010 l 298 1010 l 657 481 l 665 481 l 665 1010 l 939 1010 m 507 1326 l 740 1326 l 592 1105 l 412 1105 "},"Ņ":{"ha":1004,"x_min":0,"x_max":0,"o":"m 939 0 l 710 0 l 345 531 l 339 531 l 339 0 l 65 0 l 65 1010 l 298 1010 l 657 481 l 665 481 l 665 1010 l 939 1010 m 384 -80 l 628 -80 l 504 -316 l 319 -316 "},"Ň":{"ha":1004,"x_min":0,"x_max":0,"o":"m 939 0 l 710 0 l 345 531 l 339 531 l 339 0 l 65 0 l 65 1010 l 298 1010 l 657 481 l 665 481 l 665 1010 l 939 1010 m 503 1223 l 600 1332 l 825 1332 l 825 1326 l 598 1101 l 408 1101 l 182 1326 l 182 1332 l 406 1332 "},"Ǹ":{"ha":1004,"x_min":0,"x_max":0,"o":"m 939 0 l 710 0 l 345 531 l 339 531 l 339 0 l 65 0 l 65 1010 l 298 1010 l 657 481 l 665 481 l 665 1010 l 939 1010 m 266 1326 l 499 1326 l 594 1105 l 414 1105 "},"Ṅ":{"ha":1004,"x_min":0,"x_max":0,"o":"m 939 0 l 710 0 l 345 531 l 339 531 l 339 0 l 65 0 l 65 1010 l 298 1010 l 657 481 l 665 481 l 665 1010 l 939 1010 m 503 1089 b 369 1213 429 1089 369 1145 b 503 1338 369 1282 429 1338 b 637 1213 577 1338 637 1282 b 503 1089 637 1145 577 1089 "},"Ṇ":{"ha":1004,"x_min":0,"x_max":0,"o":"m 939 0 l 710 0 l 345 531 l 339 531 l 339 0 l 65 0 l 65 1010 l 298 1010 l 657 481 l 665 481 l 665 1010 l 939 1010 m 503 -306 b 369 -182 429 -306 369 -250 b 503 -57 369 -113 429 -57 b 637 -182 577 -57 637 -113 b 503 -306 637 -250 577 -306 "},"Ṉ":{"ha":1004,"x_min":0,"x_max":0,"o":"m 939 0 l 710 0 l 345 531 l 339 531 l 339 0 l 65 0 l 65 1010 l 298 1010 l 657 481 l 665 481 l 665 1010 l 939 1010 m 750 -252 l 256 -252 l 256 -127 l 750 -127 "},"Ṋ":{"ha":1004,"x_min":0,"x_max":0,"o":"m 939 0 l 710 0 l 345 531 l 339 531 l 339 0 l 65 0 l 65 1010 l 298 1010 l 657 481 l 665 481 l 665 1010 l 939 1010 m 503 -185 l 406 -294 l 182 -294 l 182 -288 l 408 -63 l 598 -63 l 825 -288 l 825 -294 l 600 -294 "},"Ɲ":{"ha":1040,"x_min":0,"x_max":0,"o":"m 975 0 l 746 0 l 381 531 l 375 531 l 375 -24 b 71 -284 375 -262 214 -284 b -47 -280 44 -284 -19 -284 l -47 -79 b -14 -79 -37 -80 -24 -80 b -2 -79 -9 -79 -5 -79 b 101 -24 48 -79 101 -69 l 101 1010 l 333 1010 l 692 481 l 700 481 l 700 1010 l 975 1010 "},"Ŋ":{"ha":1004,"x_min":0,"x_max":0,"o":"m 345 531 l 339 531 l 339 0 l 65 0 l 65 1010 l 298 1010 l 657 481 l 665 481 l 665 1010 l 939 1010 l 939 -14 b 578 -310 939 -247 802 -310 b 495 -296 553 -310 522 -304 l 495 -99 b 592 -109 521 -105 558 -109 b 710 -20 665 -109 710 -75 l 710 0 "},"И":{"ha":1004,"x_min":0,"x_max":0,"o":"m 339 1010 l 339 481 l 347 481 l 706 1010 l 939 1010 l 939 0 l 665 0 l 665 531 l 659 531 l 294 0 l 65 0 l 65 1010 "},"Ѝ":{"ha":1004,"x_min":0,"x_max":0,"o":"m 339 1010 l 339 481 l 347 481 l 706 1010 l 939 1010 l 939 0 l 665 0 l 665 531 l 659 531 l 294 0 l 65 0 l 65 1010 m 266 1326 l 499 1326 l 594 1105 l 414 1105 "},"Й":{"ha":1004,"x_min":0,"x_max":0,"o":"m 339 1010 l 339 481 l 347 481 l 706 1010 l 939 1010 l 939 0 l 665 0 l 665 531 l 659 531 l 294 0 l 65 0 l 65 1010 m 773 1282 b 503 1071 773 1154 668 1071 b 233 1282 337 1071 232 1154 l 402 1282 b 503 1199 402 1241 430 1199 b 602 1282 574 1199 601 1239 "},"Ӣ":{"ha":1004,"x_min":0,"x_max":0,"o":"m 339 1010 l 339 481 l 347 481 l 706 1010 l 939 1010 l 939 0 l 665 0 l 665 531 l 659 531 l 294 0 l 65 0 l 65 1010 m 750 1138 l 256 1138 l 256 1263 l 750 1263 "},"Ӥ":{"ha":1004,"x_min":0,"x_max":0,"o":"m 339 1010 l 339 481 l 347 481 l 706 1010 l 939 1010 l 939 0 l 665 0 l 665 531 l 659 531 l 294 0 l 65 0 l 65 1010 m 347 1099 b 227 1213 280 1099 227 1150 b 347 1328 227 1276 280 1328 b 466 1213 412 1328 466 1276 b 347 1099 466 1150 412 1099 m 661 1099 b 541 1213 594 1099 541 1150 b 661 1328 541 1276 594 1328 b 779 1213 726 1328 779 1276 b 661 1099 779 1150 726 1099 "},"Ҋ":{"ha":1004,"x_min":0,"x_max":0,"o":"m 339 1010 l 339 481 l 347 481 l 706 1010 l 939 1010 l 939 140 l 1140 140 l 1140 6 b 981 -308 1143 -116 1072 -245 l 860 -239 b 877 -211 866 -229 872 -220 b 939 -14 906 -165 940 -111 l 939 0 l 665 0 l 665 531 l 659 531 l 294 0 l 65 0 l 65 1010 m 773 1282 b 503 1071 773 1154 668 1071 b 233 1282 337 1071 232 1154 l 402 1282 b 503 1199 402 1241 430 1199 b 602 1282 574 1199 601 1239 "},"Ͷ":{"ha":1097,"x_min":0,"x_max":0,"o":"m 385 1010 l 385 481 l 393 481 l 752 1010 l 984 1010 l 984 0 l 710 0 l 710 531 l 704 531 l 339 0 l 110 0 l 110 1010 "},"Ν":{"ha":1004,"x_min":0,"x_max":0,"o":"m 939 0 l 710 0 l 345 531 l 339 531 l 339 0 l 65 0 l 65 1010 l 298 1010 l 657 481 l 665 481 l 665 1010 l 939 1010 "},"ǋ":{"ha":1367,"x_min":0,"x_max":0,"o":"m 939 0 l 710 0 l 345 531 l 339 531 l 339 0 l 65 0 l 65 1010 l 298 1010 l 657 481 l 665 481 l 665 1010 l 939 1010 m 1298 758 l 1298 -26 b 965 -284 1298 -225 1164 -284 b 909 -282 945 -284 930 -284 l 909 -81 b 941 -83 922 -82 931 -83 b 1026 -20 1006 -83 1026 -64 l 1026 758 m 1162 836 b 1028 961 1088 836 1028 892 b 1162 1085 1028 1029 1088 1085 b 1296 961 1236 1085 1296 1029 b 1162 836 1296 892 1236 836 "},"O":{"ha":1105,"x_min":0,"x_max":0,"o":"m 1044 505 b 552 -14 1044 168 827 -14 b 61 505 276 -14 61 170 b 552 1024 61 842 276 1024 b 1044 505 827 1024 1044 842 m 762 505 b 552 785 762 687 689 785 b 343 505 416 785 343 687 b 552 225 343 324 416 225 b 762 505 689 225 762 324 "},"Ö":{"ha":1105,"x_min":0,"x_max":0,"o":"m 1044 505 b 552 -14 1044 168 827 -14 b 61 505 276 -14 61 170 b 552 1024 61 842 276 1024 b 1044 505 827 1024 1044 842 m 762 505 b 552 785 762 687 689 785 b 343 505 416 785 343 687 b 552 225 343 324 416 225 b 762 505 689 225 762 324 m 397 1099 b 276 1213 329 1099 276 1150 b 397 1328 276 1276 329 1328 b 515 1213 462 1328 515 1276 b 397 1099 515 1150 462 1099 m 710 1099 b 590 1213 643 1099 590 1150 b 710 1328 590 1276 643 1328 b 829 1213 775 1328 829 1276 b 710 1099 829 1150 775 1099 "},"Õ":{"ha":1105,"x_min":0,"x_max":0,"o":"m 1044 505 b 552 -14 1044 168 827 -14 b 61 505 276 -14 61 170 b 552 1024 61 842 276 1024 b 1044 505 827 1024 1044 842 m 762 505 b 552 785 762 687 689 785 b 343 505 416 785 343 687 b 552 225 343 324 416 225 b 762 505 689 225 762 324 m 284 1109 b 452 1320 284 1251 359 1319 b 579 1268 512 1320 549 1291 b 635 1239 599 1252 617 1239 b 689 1316 673 1239 688 1268 l 821 1316 b 653 1103 819 1176 745 1104 b 528 1154 592 1102 557 1130 b 470 1184 508 1170 490 1184 b 418 1109 438 1184 418 1158 "},"Ø":{"ha":1105,"x_min":0,"x_max":0,"o":"m 128 22 l 200 123 b 61 505 113 211 61 339 b 552 1024 61 842 276 1024 b 799 966 643 1024 727 1004 l 866 1061 l 977 986 l 906 886 b 1044 505 991 799 1044 671 b 552 -14 1044 168 827 -14 b 307 43 463 -14 379 5 l 239 -53 m 653 762 b 552 785 625 777 591 785 b 343 505 416 785 343 687 b 365 356 343 447 351 397 m 762 505 b 740 653 762 563 754 612 l 453 248 b 552 225 481 233 514 225 b 762 505 689 225 762 324 "},"Ơ":{"ha":1166,"x_min":0,"x_max":0,"o":"m 1150 1044 b 1000 742 1150 888 1105 782 b 1044 505 1028 674 1044 595 b 552 -14 1044 168 827 -14 b 61 505 276 -14 61 170 b 552 1024 61 842 276 1024 b 938 849 710 1024 848 964 b 1002 1044 989 872 1002 941 m 762 505 b 552 785 762 687 689 785 b 343 505 416 785 343 687 b 552 225 343 324 416 225 b 762 505 689 225 762 324 "},"Ò":{"ha":1105,"x_min":0,"x_max":0,"o":"m 1044 505 b 552 -14 1044 168 827 -14 b 61 505 276 -14 61 170 b 552 1024 61 842 276 1024 b 1044 505 827 1024 1044 842 m 762 505 b 552 785 762 687 689 785 b 343 505 416 785 343 687 b 552 225 343 324 416 225 b 762 505 689 225 762 324 m 316 1326 l 548 1326 l 643 1105 l 464 1105 "},"Ó":{"ha":1105,"x_min":0,"x_max":0,"o":"m 1044 505 b 552 -14 1044 168 827 -14 b 61 505 276 -14 61 170 b 552 1024 61 842 276 1024 b 1044 505 827 1024 1044 842 m 762 505 b 552 785 762 687 689 785 b 343 505 416 785 343 687 b 552 225 343 324 416 225 b 762 505 689 225 762 324 m 556 1326 l 789 1326 l 641 1105 l 462 1105 "},"Ô":{"ha":1105,"x_min":0,"x_max":0,"o":"m 1044 505 b 552 -14 1044 168 827 -14 b 61 505 276 -14 61 170 b 552 1024 61 842 276 1024 b 1044 505 827 1024 1044 842 m 762 505 b 552 785 762 687 689 785 b 343 505 416 785 343 687 b 552 225 343 324 416 225 b 762 505 689 225 762 324 m 552 1209 l 456 1101 l 231 1101 l 231 1107 l 458 1332 l 647 1332 l 874 1107 l 874 1101 l 649 1101 "},"Ō":{"ha":1105,"x_min":0,"x_max":0,"o":"m 1044 505 b 552 -14 1044 168 827 -14 b 61 505 276 -14 61 170 b 552 1024 61 842 276 1024 b 1044 505 827 1024 1044 842 m 762 505 b 552 785 762 687 689 785 b 343 505 416 785 343 687 b 552 225 343 324 416 225 b 762 505 689 225 762 324 m 799 1138 l 306 1138 l 306 1263 l 799 1263 "},"Ŏ":{"ha":1105,"x_min":0,"x_max":0,"o":"m 1044 505 b 552 -14 1044 168 827 -14 b 61 505 276 -14 61 170 b 552 1024 61 842 276 1024 b 1044 505 827 1024 1044 842 m 762 505 b 552 785 762 687 689 785 b 343 505 416 785 343 687 b 552 225 343 324 416 225 b 762 505 689 225 762 324 m 823 1282 b 552 1071 822 1154 718 1071 b 282 1282 386 1071 282 1154 l 452 1282 b 552 1199 451 1241 479 1199 b 651 1282 623 1199 651 1239 "},"Ő":{"ha":1105,"x_min":0,"x_max":0,"o":"m 1044 505 b 552 -14 1044 168 827 -14 b 61 505 276 -14 61 170 b 552 1024 61 842 276 1024 b 1044 505 827 1024 1044 842 m 762 505 b 552 785 762 687 689 785 b 343 505 416 785 343 687 b 552 225 343 324 416 225 b 762 505 689 225 762 324 m 454 1302 l 663 1302 l 491 1101 l 308 1101 m 754 1302 l 963 1302 l 773 1101 l 594 1101 "},"Ǒ":{"ha":1105,"x_min":0,"x_max":0,"o":"m 1044 505 b 552 -14 1044 168 827 -14 b 61 505 276 -14 61 170 b 552 1024 61 842 276 1024 b 1044 505 827 1024 1044 842 m 762 505 b 552 785 762 687 689 785 b 343 505 416 785 343 687 b 552 225 343 324 416 225 b 762 505 689 225 762 324 m 552 1223 l 649 1332 l 874 1332 l 874 1326 l 647 1101 l 458 1101 l 231 1326 l 231 1332 l 456 1332 "},"Ǫ":{"ha":1105,"x_min":0,"x_max":0,"o":"m 1044 505 b 683 1 1044 223 893 51 b 594 -75 625 -18 593 -37 b 639 -126 593 -109 613 -126 b 681 -118 656 -126 668 -120 l 712 -241 b 594 -270 686 -254 647 -270 b 412 -140 503 -270 437 -223 b 413 3 398 -92 399 -38 b 61 505 207 55 61 229 b 552 1024 61 842 276 1024 b 1044 505 827 1024 1044 842 m 762 505 b 552 785 762 687 689 785 b 343 505 416 785 343 687 b 552 225 343 324 416 225 b 762 505 689 225 762 324 "},"Ǭ":{"ha":1105,"x_min":0,"x_max":0,"o":"m 1044 505 b 683 1 1044 223 893 51 b 594 -75 625 -18 593 -37 b 639 -126 593 -109 613 -126 b 681 -118 656 -126 668 -120 l 712 -241 b 594 -270 686 -254 647 -270 b 412 -140 503 -270 437 -223 b 413 3 398 -92 399 -38 b 61 505 207 55 61 229 b 552 1024 61 842 276 1024 b 1044 505 827 1024 1044 842 m 762 505 b 552 785 762 687 689 785 b 343 505 416 785 343 687 b 552 225 343 324 416 225 b 762 505 689 225 762 324 m 799 1138 l 306 1138 l 306 1263 l 799 1263 "},"Ȍ":{"ha":1105,"x_min":0,"x_max":0,"o":"m 1044 505 b 552 -14 1044 168 827 -14 b 61 505 276 -14 61 170 b 552 1024 61 842 276 1024 b 1044 505 827 1024 1044 842 m 762 505 b 552 785 762 687 689 785 b 343 505 416 785 343 687 b 552 225 343 324 416 225 b 762 505 689 225 762 324 m 190 1326 l 423 1326 l 518 1105 l 338 1105 m 510 1326 l 730 1326 l 780 1105 l 606 1105 "},"Ȏ":{"ha":1105,"x_min":0,"x_max":0,"o":"m 1044 505 b 552 -14 1044 168 827 -14 b 61 505 276 -14 61 170 b 552 1024 61 842 276 1024 b 1044 505 827 1024 1044 842 m 762 505 b 552 785 762 687 689 785 b 343 505 416 785 343 687 b 552 225 343 324 416 225 b 762 505 689 225 762 324 m 280 1128 b 550 1347 279 1257 384 1347 b 823 1128 715 1347 822 1257 l 651 1128 b 550 1209 650 1170 622 1209 b 452 1128 478 1209 451 1170 l 280 1128 "},"Ȫ":{"ha":1105,"x_min":0,"x_max":0,"o":"m 1044 505 b 552 -14 1044 168 827 -14 b 61 505 276 -14 61 170 b 552 1024 61 842 276 1024 b 1044 505 827 1024 1044 842 m 762 505 b 552 785 762 687 689 785 b 343 505 416 785 343 687 b 552 225 343 324 416 225 b 762 505 689 225 762 324 m 799 1391 l 306 1391 l 306 1515 l 799 1515 m 397 1099 b 276 1213 329 1099 276 1150 b 397 1328 276 1276 329 1328 b 515 1213 462 1328 515 1276 b 397 1099 515 1150 462 1099 m 710 1099 b 590 1213 643 1099 590 1150 b 710 1328 590 1276 643 1328 b 829 1213 775 1328 829 1276 b 710 1099 829 1150 775 1099 "},"Ȭ":{"ha":1105,"x_min":0,"x_max":0,"o":"m 1044 505 b 552 -14 1044 168 827 -14 b 61 505 276 -14 61 170 b 552 1024 61 842 276 1024 b 1044 505 827 1024 1044 842 m 762 505 b 552 785 762 687 689 785 b 343 505 416 785 343 687 b 552 225 343 324 416 225 b 762 505 689 225 762 324 m 799 1342 l 304 1342 l 304 1466 l 799 1466 m 769 1249 b 653 1126 769 1186 720 1126 b 479 1168 578 1126 540 1168 b 440 1111 457 1168 439 1142 l 337 1140 b 450 1263 337 1203 382 1263 b 623 1221 510 1263 566 1221 b 665 1278 645 1221 664 1247 "},"Ȯ":{"ha":1105,"x_min":0,"x_max":0,"o":"m 1044 505 b 552 -14 1044 168 827 -14 b 61 505 276 -14 61 170 b 552 1024 61 842 276 1024 b 1044 505 827 1024 1044 842 m 762 505 b 552 785 762 687 689 785 b 343 505 416 785 343 687 b 552 225 343 324 416 225 b 762 505 689 225 762 324 m 552 1089 b 418 1213 478 1089 418 1145 b 552 1338 418 1282 478 1338 b 687 1213 626 1338 687 1282 b 552 1089 687 1145 626 1089 "},"Ȱ":{"ha":1105,"x_min":0,"x_max":0,"o":"m 1044 505 b 552 -14 1044 168 827 -14 b 61 505 276 -14 61 170 b 552 1024 61 842 276 1024 b 1044 505 827 1024 1044 842 m 762 505 b 552 785 762 687 689 785 b 343 505 416 785 343 687 b 552 225 343 324 416 225 b 762 505 689 225 762 324 m 799 1391 l 306 1391 l 306 1515 l 799 1515 m 553 1098 b 433 1213 486 1098 433 1150 b 553 1327 433 1276 486 1327 b 673 1213 619 1327 673 1276 b 553 1098 673 1150 619 1098 "},"Ṍ":{"ha":1105,"x_min":0,"x_max":0,"o":"m 1044 505 b 552 -14 1044 168 827 -14 b 61 505 276 -14 61 170 b 552 1024 61 842 276 1024 b 1044 505 827 1024 1044 842 m 762 505 b 552 785 762 687 689 785 b 343 505 416 785 343 687 b 552 225 343 324 416 225 b 762 505 689 225 762 324 m 302 1091 b 458 1278 302 1217 371 1278 b 578 1233 515 1279 549 1253 b 630 1207 596 1218 612 1206 b 680 1275 665 1207 679 1233 l 803 1275 b 647 1086 801 1151 732 1087 b 529 1131 589 1086 556 1111 b 475 1158 510 1146 494 1158 b 427 1091 445 1158 427 1135 m 575 1528 l 798 1528 l 627 1338 l 444 1338 "},"Ṏ":{"ha":1105,"x_min":0,"x_max":0,"o":"m 1044 505 b 552 -14 1044 168 827 -14 b 61 505 276 -14 61 170 b 552 1024 61 842 276 1024 b 1044 505 827 1024 1044 842 m 762 505 b 552 785 762 687 689 785 b 343 505 416 785 343 687 b 552 225 343 324 416 225 b 762 505 689 225 762 324 m 767 1229 b 653 1107 766 1164 717 1107 b 479 1148 577 1107 540 1148 b 440 1091 457 1148 439 1123 l 337 1121 b 450 1243 336 1184 382 1243 b 623 1201 510 1243 565 1201 b 663 1259 644 1201 662 1227 m 590 1383 b 696 1468 589 1430 634 1468 b 803 1383 757 1468 802 1430 b 696 1300 802 1336 757 1300 b 590 1383 634 1300 589 1336 m 300 1383 b 404 1468 299 1430 344 1468 b 513 1383 465 1468 512 1430 b 404 1300 512 1336 467 1300 b 300 1383 344 1300 299 1336 "},"Ṑ":{"ha":1105,"x_min":0,"x_max":0,"o":"m 1044 505 b 552 -14 1044 168 827 -14 b 61 505 276 -14 61 170 b 552 1024 61 842 276 1024 b 1044 505 827 1024 1044 842 m 762 505 b 552 785 762 687 689 785 b 343 505 416 785 343 687 b 552 225 343 324 416 225 b 762 505 689 225 762 324 m 799 1119 l 306 1119 l 306 1243 l 799 1243 m 299 1528 l 522 1528 l 653 1338 l 470 1338 "},"Ṓ":{"ha":1105,"x_min":0,"x_max":0,"o":"m 1044 505 b 552 -14 1044 168 827 -14 b 61 505 276 -14 61 170 b 552 1024 61 842 276 1024 b 1044 505 827 1024 1044 842 m 762 505 b 552 785 762 687 689 785 b 343 505 416 785 343 687 b 552 225 343 324 416 225 b 762 505 689 225 762 324 m 799 1119 l 306 1119 l 306 1243 l 799 1243 m 583 1528 l 806 1528 l 635 1338 l 452 1338 "},"Ọ":{"ha":1105,"x_min":0,"x_max":0,"o":"m 1044 505 b 552 -14 1044 168 827 -14 b 61 505 276 -14 61 170 b 552 1024 61 842 276 1024 b 1044 505 827 1024 1044 842 m 762 505 b 552 785 762 687 689 785 b 343 505 416 785 343 687 b 552 225 343 324 416 225 b 762 505 689 225 762 324 m 552 -306 b 418 -182 478 -306 418 -250 b 552 -57 418 -113 478 -57 b 687 -182 626 -57 687 -113 b 552 -306 687 -250 626 -306 "},"Ỏ":{"ha":1105,"x_min":0,"x_max":0,"o":"m 1044 505 b 552 -14 1044 168 827 -14 b 61 505 276 -14 61 170 b 552 1024 61 842 276 1024 b 1044 505 827 1024 1044 842 m 762 505 b 552 785 762 687 689 785 b 343 505 416 785 343 687 b 552 225 343 324 416 225 b 762 505 689 225 762 324 m 452 1123 l 434 1199 b 531 1241 504 1201 532 1219 b 438 1282 532 1276 492 1282 l 444 1391 b 754 1255 646 1391 755 1342 b 647 1162 755 1199 701 1170 l 647 1123 "},"Ố":{"ha":1105,"x_min":0,"x_max":0,"o":"m 1044 505 b 552 -14 1044 168 827 -14 b 61 505 276 -14 61 170 b 552 1024 61 842 276 1024 b 1044 505 827 1024 1044 842 m 762 505 b 552 785 762 687 689 785 b 343 505 416 785 343 687 b 552 225 343 324 416 225 b 762 505 689 225 762 324 m 491 1221 l 608 1221 l 807 1085 l 649 1085 l 550 1154 l 450 1085 l 294 1085 m 884 1340 l 1059 1340 l 886 1150 l 756 1150 "},"Ồ":{"ha":1105,"x_min":0,"x_max":0,"o":"m 1044 505 b 552 -14 1044 168 827 -14 b 61 505 276 -14 61 170 b 552 1024 61 842 276 1024 b 1044 505 827 1024 1044 842 m 762 505 b 552 785 762 687 689 785 b 343 505 416 785 343 687 b 552 225 343 324 416 225 b 762 505 689 225 762 324 m 809 1081 l 651 1081 l 552 1150 l 452 1081 l 296 1081 l 493 1217 l 610 1217 m 347 1146 l 219 1146 l 45 1334 l 217 1334 "},"Ổ":{"ha":1105,"x_min":0,"x_max":0,"o":"m 1044 505 b 552 -14 1044 168 827 -14 b 61 505 276 -14 61 170 b 552 1024 61 842 276 1024 b 1044 505 827 1024 1044 842 m 762 505 b 552 785 762 687 689 785 b 343 505 416 785 343 687 b 552 225 343 324 416 225 b 762 505 689 225 762 324 m 740 1166 l 724 1229 b 805 1263 781 1231 805 1245 b 726 1298 805 1292 771 1298 l 732 1387 b 955 1274 876 1387 955 1347 b 866 1198 955 1231 909 1205 l 866 1166 m 805 1085 l 645 1085 l 552 1146 l 456 1085 l 296 1085 l 495 1221 l 606 1221 "},"Ỗ":{"ha":1105,"x_min":0,"x_max":0,"o":"m 1044 505 b 552 -14 1044 168 827 -14 b 61 505 276 -14 61 170 b 552 1024 61 842 276 1024 b 1044 505 827 1024 1044 842 m 762 505 b 552 785 762 687 689 785 b 343 505 416 785 343 687 b 552 225 343 324 416 225 b 762 505 689 225 762 324 m 809 1091 l 649 1091 l 552 1160 l 460 1091 l 296 1091 l 491 1233 l 616 1233 m 736 1365 b 655 1259 735 1312 708 1259 b 499 1300 595 1259 546 1300 b 477 1255 481 1300 477 1280 l 395 1278 b 475 1381 394 1328 422 1381 b 631 1342 522 1381 585 1342 b 651 1397 647 1342 651 1371 "},"Ộ":{"ha":1105,"x_min":0,"x_max":0,"o":"m 1044 505 b 552 -14 1044 168 827 -14 b 61 505 276 -14 61 170 b 552 1024 61 842 276 1024 b 1044 505 827 1024 1044 842 m 762 505 b 552 785 762 687 689 785 b 343 505 416 785 343 687 b 552 225 343 324 416 225 b 762 505 689 225 762 324 m 552 1209 l 456 1101 l 231 1101 l 231 1107 l 458 1332 l 647 1332 l 874 1107 l 874 1101 l 649 1101 m 552 -306 b 418 -182 478 -306 418 -250 b 552 -57 418 -113 478 -57 b 687 -182 626 -57 687 -113 b 552 -306 687 -250 626 -306 "},"Ớ":{"ha":1166,"x_min":0,"x_max":0,"o":"m 1150 1044 b 1000 742 1150 888 1105 782 b 1044 505 1028 674 1044 595 b 552 -14 1044 168 827 -14 b 61 505 276 -14 61 170 b 552 1024 61 842 276 1024 b 938 849 710 1024 848 964 b 1002 1044 989 872 1002 941 m 762 505 b 552 785 762 687 689 785 b 343 505 416 785 343 687 b 552 225 343 324 416 225 b 762 505 689 225 762 324 m 556 1326 l 789 1326 l 641 1105 l 462 1105 "},"Ờ":{"ha":1166,"x_min":0,"x_max":0,"o":"m 1150 1044 b 1000 742 1150 888 1105 782 b 1044 505 1028 674 1044 595 b 552 -14 1044 168 827 -14 b 61 505 276 -14 61 170 b 552 1024 61 842 276 1024 b 938 849 710 1024 848 964 b 1002 1044 989 872 1002 941 m 762 505 b 552 785 762 687 689 785 b 343 505 416 785 343 687 b 552 225 343 324 416 225 b 762 505 689 225 762 324 m 316 1326 l 548 1326 l 643 1105 l 464 1105 "},"Ở":{"ha":1166,"x_min":0,"x_max":0,"o":"m 1150 1044 b 1000 742 1150 888 1105 782 b 1044 505 1028 674 1044 595 b 552 -14 1044 168 827 -14 b 61 505 276 -14 61 170 b 552 1024 61 842 276 1024 b 938 849 710 1024 848 964 b 1002 1044 989 872 1002 941 m 762 505 b 552 785 762 687 689 785 b 343 505 416 785 343 687 b 552 225 343 324 416 225 b 762 505 689 225 762 324 m 452 1123 l 434 1199 b 531 1241 504 1201 532 1219 b 438 1282 532 1276 492 1282 l 444 1391 b 754 1255 646 1391 755 1342 b 647 1162 755 1199 701 1170 l 647 1123 "},"Ỡ":{"ha":1166,"x_min":0,"x_max":0,"o":"m 1150 1044 b 1000 742 1150 888 1105 782 b 1044 505 1028 674 1044 595 b 552 -14 1044 168 827 -14 b 61 505 276 -14 61 170 b 552 1024 61 842 276 1024 b 938 849 710 1024 848 964 b 1002 1044 989 872 1002 941 m 762 505 b 552 785 762 687 689 785 b 343 505 416 785 343 687 b 552 225 343 324 416 225 b 762 505 689 225 762 324 m 284 1105 b 452 1316 284 1247 359 1315 b 579 1264 512 1316 549 1287 b 635 1235 599 1248 617 1235 b 689 1312 673 1235 688 1264 l 821 1312 b 653 1099 819 1172 745 1100 b 528 1150 592 1098 557 1126 b 470 1180 508 1166 490 1180 b 418 1105 438 1180 418 1154 "},"Ợ":{"ha":1166,"x_min":0,"x_max":0,"o":"m 1150 1044 b 1000 742 1150 888 1105 782 b 1044 505 1028 674 1044 595 b 552 -14 1044 168 827 -14 b 61 505 276 -14 61 170 b 552 1024 61 842 276 1024 b 938 849 710 1024 848 964 b 1002 1044 989 872 1002 941 m 762 505 b 552 785 762 687 689 785 b 343 505 416 785 343 687 b 552 225 343 324 416 225 b 762 505 689 225 762 324 m 552 -306 b 418 -182 478 -306 418 -250 b 552 -57 418 -113 478 -57 b 687 -182 626 -57 687 -113 b 552 -306 687 -250 626 -306 "},"Ǿ":{"ha":1105,"x_min":0,"x_max":0,"o":"m 128 22 l 200 123 b 61 505 113 211 61 339 b 552 1024 61 842 276 1024 b 799 966 643 1024 727 1004 l 866 1061 l 977 986 l 906 886 b 1044 505 991 799 1044 671 b 552 -14 1044 168 827 -14 b 307 43 463 -14 379 5 l 239 -53 m 653 762 b 552 785 625 777 591 785 b 343 505 416 785 343 687 b 365 356 343 447 351 397 m 762 505 b 740 653 762 563 754 612 l 453 248 b 552 225 481 233 514 225 b 762 505 689 225 762 324 m 556 1326 l 789 1326 l 641 1105 l 462 1105 "},"Ο":{"ha":1105,"x_min":0,"x_max":0,"o":"m 1044 505 b 552 -14 1044 168 827 -14 b 61 505 276 -14 61 170 b 552 1024 61 842 276 1024 b 1044 505 827 1024 1044 842 m 762 505 b 552 785 762 687 689 785 b 343 505 416 785 343 687 b 552 225 343 324 416 225 b 762 505 689 225 762 324 "},"Ό":{"ha":1138,"x_min":0,"x_max":0,"o":"m 1134 505 b 643 -14 1134 168 917 -14 b 152 505 367 -14 152 170 b 643 1024 152 842 367 1024 b 1134 505 917 1024 1134 842 m 852 505 b 643 785 852 687 779 785 b 434 505 507 785 434 687 b 643 225 434 324 507 225 b 852 505 779 225 852 324 m 45 1089 l 274 1089 l 132 852 l -20 852 "},"Ὀ":{"ha":1138,"x_min":0,"x_max":0,"o":"m 1134 505 b 643 -14 1134 168 917 -14 b 152 505 367 -14 152 170 b 643 1024 152 842 367 1024 b 1134 505 917 1024 1134 842 m 852 505 b 643 785 852 687 779 785 b 434 505 507 785 434 687 b 643 225 434 324 507 225 b 852 505 779 225 852 324 m 152 939 b 43 765 152 850 101 789 l -18 840 b 36 943 26 860 36 898 l 36 1010 l 152 1010 "},"Ὁ":{"ha":1184,"x_min":0,"x_max":0,"o":"m 1180 505 b 689 -14 1180 168 963 -14 b 197 505 412 -14 197 170 b 689 1024 197 842 412 1024 b 1180 505 963 1024 1180 842 m 898 505 b 689 785 898 687 825 785 b 479 505 552 785 479 687 b 689 225 479 324 552 225 b 898 505 825 225 898 324 m 59 1010 l 178 1010 l 178 943 b 229 840 179 908 184 862 l 168 765 b 59 939 111 789 60 850 "},"Ὂ":{"ha":1369,"x_min":0,"x_max":0,"o":"m 1365 505 b 874 -14 1365 168 1148 -14 b 383 505 598 -14 383 170 b 874 1024 383 842 598 1024 b 1365 505 1148 1024 1365 842 m 1083 505 b 874 785 1083 687 1010 785 b 665 505 738 785 665 687 b 874 225 665 324 738 225 b 1083 505 1010 225 1083 324 m 176 955 b 43 765 176 876 127 809 l -12 807 b 45 959 26 848 46 896 l 45 1010 l 176 1010 m 438 781 l 371 781 l 207 996 l 207 1010 l 357 1010 l 438 791 "},"Ὃ":{"ha":1336,"x_min":0,"x_max":0,"o":"m 1332 505 b 840 -14 1332 168 1115 -14 b 349 505 564 -14 349 170 b 840 1024 349 842 564 1024 b 1332 505 1115 1024 1332 842 m 1050 505 b 840 785 1050 687 977 785 b 631 505 704 785 631 687 b 840 225 631 324 704 225 b 1050 505 977 225 1050 324 m -16 1010 l 105 1010 l 105 943 b 158 840 104 908 108 862 l 97 765 b -16 939 35 789 -17 850 m 397 779 l 329 779 l 166 996 l 166 1010 l 318 1010 l 397 799 "},"Ὄ":{"ha":1284,"x_min":0,"x_max":0,"o":"m 1280 505 b 789 -14 1280 168 1063 -14 b 298 505 513 -14 298 170 b 789 1024 298 842 513 1024 b 1280 505 1063 1024 1280 842 m 998 505 b 789 785 998 687 925 785 b 580 505 653 785 580 687 b 789 225 580 324 653 225 b 998 505 925 225 998 324 m 166 939 b 53 765 165 852 113 789 l -8 840 b 45 943 40 862 44 908 l 45 1010 l 166 1010 m 193 799 l 274 1010 l 424 1010 l 424 996 l 260 779 l 193 779 "},"Ὅ":{"ha":1300,"x_min":0,"x_max":0,"o":"m 1296 505 b 805 -14 1296 168 1079 -14 b 314 505 529 -14 314 170 b 805 1024 314 842 529 1024 b 1296 505 1079 1024 1296 842 m 1014 505 b 805 785 1014 687 941 785 b 596 505 669 785 596 687 b 805 225 596 324 669 225 b 1014 505 941 225 1014 324 m 207 799 l 284 1010 l 436 1010 l 436 996 l 270 779 l 207 779 m 99 765 b -10 939 46 787 -9 846 l -10 1010 l 109 1010 l 109 943 b 160 840 109 898 117 860 l 99 765 "},"Ὸ":{"ha":1158,"x_min":0,"x_max":0,"o":"m 1154 505 b 663 -14 1154 168 937 -14 b 172 505 387 -14 172 170 b 663 1024 172 842 387 1024 b 1154 505 937 1024 1154 842 m 872 505 b 663 785 872 687 799 785 b 454 505 527 785 454 687 b 663 225 454 324 527 225 b 872 505 799 225 872 324 m -12 996 l -12 1010 l 138 1010 l 215 803 l 215 779 l 152 779 "},"ϴ":{"ha":1105,"x_min":0,"x_max":0,"o":"m 1044 505 b 552 -14 1044 168 827 -14 b 61 505 276 -14 61 170 b 552 1024 61 842 276 1024 b 1044 505 827 1024 1044 842 m 756 584 b 552 785 737 715 667 785 b 349 584 437 785 367 715 l 756 584 m 552 225 b 756 426 667 225 737 295 l 349 426 b 552 225 367 295 437 225 "},"Ό":{"ha":1077,"x_min":0,"x_max":0,"o":"m 1073 505 b 582 -14 1073 168 856 -14 b 91 505 306 -14 91 170 b 582 1024 91 842 306 1024 b 1073 505 856 1024 1073 842 m 791 505 b 582 785 791 687 718 785 b 373 505 446 785 373 687 b 582 225 373 324 446 225 b 791 505 718 225 791 324 m 14 876 l 93 1083 l 310 1083 l 310 1069 l 146 852 l 14 852 "},"О":{"ha":1105,"x_min":0,"x_max":0,"o":"m 1044 505 b 552 -14 1044 168 827 -14 b 61 505 276 -14 61 170 b 552 1024 61 842 276 1024 b 1044 505 827 1024 1044 842 m 762 505 b 552 785 762 687 689 785 b 343 505 416 785 343 687 b 552 225 343 324 416 225 b 762 505 689 225 762 324 "},"Ӧ":{"ha":1105,"x_min":0,"x_max":0,"o":"m 1044 505 b 552 -14 1044 168 827 -14 b 61 505 276 -14 61 170 b 552 1024 61 842 276 1024 b 1044 505 827 1024 1044 842 m 762 505 b 552 785 762 687 689 785 b 343 505 416 785 343 687 b 552 225 343 324 416 225 b 762 505 689 225 762 324 m 397 1099 b 276 1213 329 1099 276 1150 b 397 1328 276 1276 329 1328 b 515 1213 462 1328 515 1276 b 397 1099 515 1150 462 1099 m 710 1099 b 590 1213 643 1099 590 1150 b 710 1328 590 1276 643 1328 b 829 1213 775 1328 829 1276 b 710 1099 829 1150 775 1099 "},"Ɵ":{"ha":1105,"x_min":0,"x_max":0,"o":"m 1044 505 b 552 -14 1044 168 827 -14 b 61 505 276 -14 61 170 b 552 1024 61 842 276 1024 b 1044 505 827 1024 1044 842 m 756 584 b 552 785 737 715 667 785 b 349 584 437 785 367 715 l 756 584 m 552 225 b 756 426 667 225 737 295 l 349 426 b 552 225 367 295 437 225 "},"Ө":{"ha":1105,"x_min":0,"x_max":0,"o":"m 1044 505 b 552 -14 1044 168 827 -14 b 61 505 276 -14 61 170 b 552 1024 61 842 276 1024 b 1044 505 827 1024 1044 842 m 756 584 b 552 785 737 715 667 785 b 349 584 437 785 367 715 l 756 584 m 552 225 b 756 426 667 225 737 295 l 349 426 b 552 225 367 295 437 225 "},"Ӫ":{"ha":1105,"x_min":0,"x_max":0,"o":"m 1044 505 b 552 -14 1044 168 827 -14 b 61 505 276 -14 61 170 b 552 1024 61 842 276 1024 b 1044 505 827 1024 1044 842 m 756 584 b 552 785 737 715 667 785 b 349 584 437 785 367 715 l 756 584 m 552 225 b 756 426 667 225 737 295 l 349 426 b 552 225 367 295 437 225 m 397 1099 b 276 1213 329 1099 276 1150 b 397 1328 276 1276 329 1328 b 515 1213 462 1328 515 1276 b 397 1099 515 1150 462 1099 m 710 1099 b 590 1213 643 1099 590 1150 b 710 1328 590 1276 643 1328 b 829 1213 775 1328 829 1276 b 710 1099 829 1150 775 1099 "},"Œ":{"ha":1474,"x_min":0,"x_max":0,"o":"m 529 0 b 61 503 268 0 61 160 b 529 1010 61 848 268 1010 l 1403 1010 l 1403 789 l 949 789 l 949 616 l 1365 616 l 1365 395 l 949 395 l 949 221 l 1401 221 l 1401 0 l 529 0 m 675 789 l 529 789 b 339 503 420 789 339 724 b 529 221 339 280 420 221 l 675 221 "},"P":{"ha":911,"x_min":0,"x_max":0,"o":"m 65 1010 l 501 1010 b 876 653 726 1010 876 868 b 491 300 876 436 722 300 l 339 300 l 339 0 l 65 0 m 436 513 b 590 653 532 513 590 567 b 436 791 590 740 532 791 l 339 791 l 339 513 "},"Ṕ":{"ha":911,"x_min":0,"x_max":0,"o":"m 65 1010 l 501 1010 b 876 653 726 1010 876 868 b 491 300 876 436 722 300 l 339 300 l 339 0 l 65 0 m 436 513 b 590 653 532 513 590 567 b 436 791 590 740 532 791 l 339 791 l 339 513 m 450 1326 l 683 1326 l 535 1105 l 355 1105 "},"Ṗ":{"ha":911,"x_min":0,"x_max":0,"o":"m 65 1010 l 501 1010 b 876 653 726 1010 876 868 b 491 300 876 436 722 300 l 339 300 l 339 0 l 65 0 m 436 513 b 590 653 532 513 590 567 b 436 791 590 740 532 791 l 339 791 l 339 513 m 446 1089 b 312 1213 372 1089 312 1145 b 446 1338 312 1282 372 1338 b 580 1213 520 1338 580 1282 b 446 1089 580 1145 520 1089 "},"Ҏ":{"ha":943,"x_min":0,"x_max":0,"o":"m 73 1010 l 509 1010 b 884 653 733 1010 884 868 b 699 342 884 507 814 398 l 765 239 l 677 182 l 595 308 b 499 300 565 303 533 300 l 347 300 l 347 0 l 73 0 m 561 555 b 598 653 585 579 598 613 b 444 791 598 740 540 791 l 347 791 l 347 513 l 444 513 b 462 513 450 513 456 513 l 397 616 l 485 673 "},"Ƥ":{"ha":1247,"x_min":0,"x_max":0,"o":"m 37 590 l 37 710 b 385 1010 36 902 173 1010 l 836 1010 b 1211 653 1061 1010 1211 868 b 827 300 1211 436 1057 300 l 675 300 l 675 0 l 400 0 l 400 791 l 385 791 b 278 663 301 791 277 722 l 278 590 m 771 513 b 925 653 868 513 925 567 b 771 791 925 740 868 791 l 675 791 l 675 513 "},"Ρ":{"ha":911,"x_min":0,"x_max":0,"o":"m 65 1010 l 501 1010 b 876 653 726 1010 876 868 b 491 300 876 436 722 300 l 339 300 l 339 0 l 65 0 m 436 513 b 590 653 532 513 590 567 b 436 791 590 740 532 791 l 339 791 l 339 513 "},"Ῥ":{"ha":1154,"x_min":0,"x_max":0,"o":"m 280 1010 l 716 1010 b 1091 653 941 1010 1091 868 b 706 300 1091 436 937 300 l 554 300 l 554 0 l 280 0 m 651 513 b 805 653 747 513 805 567 b 651 791 805 740 747 791 l 554 791 l 554 513 m 73 1010 l 191 1010 l 191 943 b 243 840 192 908 198 862 l 182 765 b 73 939 125 789 74 850 "},"Q":{"ha":1107,"x_min":0,"x_max":0,"o":"m 1044 505 b 892 110 1044 331 986 198 l 1046 -75 l 803 -75 l 727 13 b 552 -14 673 -4 614 -14 b 61 505 276 -14 61 170 b 552 1024 61 842 276 1024 b 1044 505 827 1024 1044 842 m 669 375 l 719 312 b 762 505 747 359 762 424 b 552 785 762 687 689 785 b 343 505 416 785 343 687 b 552 225 343 324 416 225 b 569 225 558 225 563 225 l 456 375 "},"R":{"ha":927,"x_min":0,"x_max":0,"o":"m 65 1010 l 501 1010 b 876 667 726 1010 876 882 b 704 377 876 527 812 429 l 909 0 l 612 0 l 434 333 l 339 333 l 339 0 l 65 0 m 436 546 b 590 667 532 546 590 581 b 436 791 590 754 532 791 l 339 791 l 339 546 "},"Ŕ":{"ha":927,"x_min":0,"x_max":0,"o":"m 65 1010 l 501 1010 b 876 667 726 1010 876 882 b 704 377 876 527 812 429 l 909 0 l 612 0 l 434 333 l 339 333 l 339 0 l 65 0 m 436 546 b 590 667 532 546 590 581 b 436 791 590 754 532 791 l 339 791 l 339 546 m 462 1326 l 694 1326 l 546 1105 l 367 1105 "},"Ŗ":{"ha":927,"x_min":0,"x_max":0,"o":"m 65 1010 l 501 1010 b 876 667 726 1010 876 882 b 704 377 876 527 812 429 l 909 0 l 612 0 l 434 333 l 339 333 l 339 0 l 65 0 m 436 546 b 590 667 532 546 590 581 b 436 791 590 754 532 791 l 339 791 l 339 546 m 354 -80 l 599 -80 l 474 -316 l 289 -316 "},"Ř":{"ha":927,"x_min":0,"x_max":0,"o":"m 65 1010 l 501 1010 b 876 667 726 1010 876 882 b 704 377 876 527 812 429 l 909 0 l 612 0 l 434 333 l 339 333 l 339 0 l 65 0 m 458 1223 l 554 1332 l 779 1332 l 779 1326 l 552 1101 l 363 1101 l 136 1326 l 136 1332 l 361 1332 m 436 546 b 590 667 532 546 590 581 b 436 791 590 754 532 791 l 339 791 l 339 546 "},"Ȑ":{"ha":927,"x_min":0,"x_max":0,"o":"m 65 1010 l 501 1010 b 876 667 726 1010 876 882 b 704 377 876 527 812 429 l 909 0 l 612 0 l 434 333 l 339 333 l 339 0 l 65 0 m 436 546 b 590 667 532 546 590 581 b 436 791 590 754 532 791 l 339 791 l 339 546 m 96 1326 l 328 1326 l 423 1105 l 244 1105 m 415 1326 l 635 1326 l 686 1105 l 511 1105 "},"Ȓ":{"ha":927,"x_min":0,"x_max":0,"o":"m 65 1010 l 501 1010 b 876 667 726 1010 876 882 b 704 377 876 527 812 429 l 909 0 l 612 0 l 434 333 l 339 333 l 339 0 l 65 0 m 185 1128 b 456 1347 184 1257 289 1347 b 728 1128 620 1347 727 1257 l 556 1128 b 456 1209 555 1170 528 1209 b 357 1128 384 1209 356 1170 l 185 1128 m 436 546 b 590 667 532 546 590 581 b 436 791 590 754 532 791 l 339 791 l 339 546 "},"Ṙ":{"ha":927,"x_min":0,"x_max":0,"o":"m 65 1010 l 501 1010 b 876 667 726 1010 876 882 b 704 377 876 527 812 429 l 909 0 l 612 0 l 434 333 l 339 333 l 339 0 l 65 0 m 436 546 b 590 667 532 546 590 581 b 436 791 590 754 532 791 l 339 791 l 339 546 m 458 1089 b 324 1213 384 1089 324 1145 b 458 1338 324 1282 384 1338 b 592 1213 532 1338 592 1282 b 458 1089 592 1145 532 1089 "},"Ṛ":{"ha":927,"x_min":0,"x_max":0,"o":"m 65 1010 l 501 1010 b 876 667 726 1010 876 882 b 704 377 876 527 812 429 l 909 0 l 612 0 l 434 333 l 339 333 l 339 0 l 65 0 m 436 546 b 590 667 532 546 590 581 b 436 791 590 754 532 791 l 339 791 l 339 546 m 473 -306 b 339 -182 400 -306 339 -250 b 473 -57 339 -113 400 -57 b 608 -182 547 -57 608 -113 b 473 -306 608 -250 547 -306 "},"Ṝ":{"ha":927,"x_min":0,"x_max":0,"o":"m 65 1010 l 501 1010 b 876 667 726 1010 876 882 b 704 377 876 527 812 429 l 909 0 l 612 0 l 434 333 l 339 333 l 339 0 l 65 0 m 704 1138 l 211 1138 l 211 1263 l 704 1263 m 436 546 b 590 667 532 546 590 581 b 436 791 590 754 532 791 l 339 791 l 339 546 m 473 -306 b 339 -182 400 -306 339 -250 b 473 -57 339 -113 400 -57 b 608 -182 547 -57 608 -113 b 473 -306 608 -250 547 -306 "},"Ṟ":{"ha":927,"x_min":0,"x_max":0,"o":"m 65 1010 l 501 1010 b 876 667 726 1010 876 882 b 704 377 876 527 812 429 l 909 0 l 612 0 l 434 333 l 339 333 l 339 0 l 65 0 m 720 -252 l 227 -252 l 227 -127 l 720 -127 m 436 546 b 590 667 532 546 590 581 b 436 791 590 754 532 791 l 339 791 l 339 546 "},"℟":{"ha":941,"x_min":0,"x_max":0,"o":"m 606 1001 b 882 667 774 968 882 848 b 710 377 882 527 818 429 l 915 0 l 618 0 l 478 262 l 389 -254 l 308 -247 l 410 333 l 345 333 l 345 0 l 71 0 l 71 1010 l 507 1010 b 530 1010 515 1010 522 1010 l 546 1103 l 327 1146 l 345 1219 l 633 1158 m 491 787 b 442 791 476 790 460 791 l 345 791 l 345 546 l 442 546 b 448 546 444 546 446 546 l 491 787 m 530 560 b 596 667 572 578 596 612 b 563 754 596 705 584 734 "},"℞":{"ha":1140,"x_min":0,"x_max":0,"o":"m 489 1010 b 878 692 738 1010 878 902 b 750 436 878 571 824 490 l 802 364 l 876 466 l 1026 466 l 878 259 l 1067 0 l 854 0 l 773 112 l 692 0 l 537 0 l 696 219 l 593 363 l 339 363 l 339 0 l 65 0 l 65 1010 m 493 580 b 606 685 548 580 606 606 b 489 789 606 767 545 789 l 339 789 l 339 580 "},"Ɍ":{"ha":965,"x_min":0,"x_max":0,"o":"m 95 357 l 8 357 l 8 550 l 95 550 l 95 1010 l 531 1010 b 906 667 755 1010 906 882 b 734 377 906 527 841 429 l 939 0 l 641 0 l 464 333 l 369 333 l 369 0 l 95 0 m 466 546 b 619 667 562 546 619 581 b 466 791 619 754 562 791 l 369 791 l 369 546 "},"S":{"ha":925,"x_min":0,"x_max":0,"o":"m 610 694 b 473 799 604 760 562 799 b 351 722 389 799 352 766 b 487 625 349 674 392 646 l 570 608 b 886 298 793 560 885 452 b 475 -12 885 99 731 -12 b 39 355 212 -12 40 102 l 300 355 b 472 213 304 262 366 213 b 606 298 559 213 605 248 b 454 397 605 344 566 372 l 353 418 b 65 702 174 457 65 545 b 473 1024 64 895 233 1024 b 872 694 718 1024 871 893 l 610 694 "},"Ś":{"ha":925,"x_min":0,"x_max":0,"o":"m 610 694 b 473 799 604 760 562 799 b 351 722 389 799 352 766 b 487 625 349 674 392 646 l 570 608 b 886 298 793 560 885 452 b 475 -12 885 99 731 -12 b 39 355 212 -12 40 102 l 300 355 b 472 213 304 262 366 213 b 606 298 559 213 605 248 b 454 397 605 344 566 372 l 353 418 b 65 702 174 457 65 545 b 473 1024 64 895 233 1024 b 872 694 718 1024 871 893 l 610 694 m 468 1326 l 700 1326 l 552 1105 l 373 1105 "},"Ŝ":{"ha":925,"x_min":0,"x_max":0,"o":"m 610 694 b 473 799 604 760 562 799 b 351 722 389 799 352 766 b 487 625 349 674 392 646 l 570 608 b 886 298 793 560 885 452 b 475 -12 885 99 731 -12 b 39 355 212 -12 40 102 l 300 355 b 472 213 304 262 366 213 b 606 298 559 213 605 248 b 454 397 605 344 566 372 l 353 418 b 65 702 174 457 65 545 b 473 1024 64 895 233 1024 b 872 694 718 1024 871 893 l 610 694 m 464 1209 l 367 1101 l 142 1101 l 142 1107 l 369 1332 l 558 1332 l 785 1107 l 785 1101 l 560 1101 "},"Ş":{"ha":925,"x_min":0,"x_max":0,"o":"m 610 694 b 473 799 604 760 562 799 b 351 722 389 799 352 766 b 487 625 349 674 392 646 l 570 608 b 886 298 793 560 885 452 b 512 -11 885 109 746 -1 l 507 -41 b 631 -164 585 -53 631 -100 b 335 -335 632 -270 520 -335 l 335 -231 b 487 -170 433 -231 485 -210 b 395 -99 490 -133 458 -109 l 415 -10 b 39 355 186 7 40 121 l 300 355 b 472 213 304 262 366 213 b 606 298 559 213 605 248 b 454 397 605 344 566 372 l 353 418 b 65 702 174 457 65 545 b 473 1024 64 895 233 1024 b 872 694 718 1024 871 893 l 610 694 "},"Š":{"ha":925,"x_min":0,"x_max":0,"o":"m 610 694 b 473 799 604 760 562 799 b 351 722 389 799 352 766 b 487 625 349 674 392 646 l 570 608 b 886 298 793 560 885 452 b 475 -12 885 99 731 -12 b 39 355 212 -12 40 102 l 300 355 b 472 213 304 262 366 213 b 606 298 559 213 605 248 b 454 397 605 344 566 372 l 353 418 b 65 702 174 457 65 545 b 473 1024 64 895 233 1024 b 872 694 718 1024 871 893 l 610 694 m 464 1223 l 560 1332 l 785 1332 l 785 1326 l 558 1101 l 369 1101 l 142 1326 l 142 1332 l 367 1332 "},"Ș":{"ha":925,"x_min":0,"x_max":0,"o":"m 610 694 b 473 799 604 760 562 799 b 351 722 389 799 352 766 b 487 625 349 674 392 646 l 570 608 b 886 298 793 560 885 452 b 475 -12 885 99 731 -12 b 39 355 212 -12 40 102 l 300 355 b 472 213 304 262 366 213 b 606 298 559 213 605 248 b 454 397 605 344 566 372 l 353 418 b 65 702 174 457 65 545 b 473 1024 64 895 233 1024 b 872 694 718 1024 871 893 l 610 694 m 348 -80 l 593 -80 l 469 -316 l 283 -316 "},"Ṡ":{"ha":925,"x_min":0,"x_max":0,"o":"m 610 694 b 473 799 604 760 562 799 b 351 722 389 799 352 766 b 487 625 349 674 392 646 l 570 608 b 886 298 793 560 885 452 b 475 -12 885 99 731 -12 b 39 355 212 -12 40 102 l 300 355 b 472 213 304 262 366 213 b 606 298 559 213 605 248 b 454 397 605 344 566 372 l 353 418 b 65 702 174 457 65 545 b 473 1024 64 895 233 1024 b 872 694 718 1024 871 893 l 610 694 m 464 1089 b 329 1213 390 1089 329 1145 b 464 1338 329 1282 390 1338 b 598 1213 538 1338 598 1282 b 464 1089 598 1145 538 1089 "},"Ṣ":{"ha":925,"x_min":0,"x_max":0,"o":"m 610 694 b 473 799 604 760 562 799 b 351 722 389 799 352 766 b 487 625 349 674 392 646 l 570 608 b 886 298 793 560 885 452 b 475 -12 885 99 731 -12 b 39 355 212 -12 40 102 l 300 355 b 472 213 304 262 366 213 b 606 298 559 213 605 248 b 454 397 605 344 566 372 l 353 418 b 65 702 174 457 65 545 b 473 1024 64 895 233 1024 b 872 694 718 1024 871 893 l 610 694 m 468 -306 b 333 -182 394 -306 333 -250 b 468 -57 333 -113 394 -57 b 602 -182 542 -57 602 -113 b 468 -306 602 -250 542 -306 "},"Ṥ":{"ha":925,"x_min":0,"x_max":0,"o":"m 610 694 b 473 799 604 760 562 799 b 351 722 389 799 352 766 b 487 625 349 674 392 646 l 570 608 b 886 298 793 560 885 452 b 475 -12 885 99 731 -12 b 39 355 212 -12 40 102 l 300 355 b 472 213 304 262 366 213 b 606 298 559 213 605 248 b 454 397 605 344 566 372 l 353 418 b 65 702 174 457 65 545 b 473 1024 64 895 233 1024 b 872 694 718 1024 871 893 l 610 694 m 201 1243 b 308 1328 202 1290 248 1328 b 414 1243 370 1328 415 1290 b 308 1158 415 1196 370 1158 b 201 1243 248 1158 202 1196 m 513 1272 l 669 1272 l 533 1103 l 410 1103 "},"Ṧ":{"ha":925,"x_min":0,"x_max":0,"o":"m 610 694 b 473 799 604 760 562 799 b 351 722 389 799 352 766 b 487 625 349 674 392 646 l 570 608 b 886 298 793 560 885 452 b 475 -12 885 99 731 -12 b 39 355 212 -12 40 102 l 300 355 b 472 213 304 262 366 213 b 606 298 559 213 605 248 b 454 397 605 344 566 372 l 353 418 b 65 702 174 457 65 545 b 473 1024 64 895 233 1024 b 872 694 718 1024 871 893 l 610 694 m 466 1239 l 552 1310 l 769 1310 l 769 1298 l 558 1136 l 375 1136 l 160 1302 l 160 1310 l 379 1310 m 357 1430 b 464 1515 357 1478 402 1515 b 570 1430 525 1515 570 1478 b 464 1347 570 1383 525 1347 b 357 1430 402 1347 357 1383 "},"Ṩ":{"ha":925,"x_min":0,"x_max":0,"o":"m 610 694 b 473 799 604 760 562 799 b 351 722 389 799 352 766 b 487 625 349 674 392 646 l 570 608 b 886 298 793 560 885 452 b 475 -12 885 99 731 -12 b 39 355 212 -12 40 102 l 300 355 b 472 213 304 262 366 213 b 606 298 559 213 605 248 b 454 397 605 344 566 372 l 353 418 b 65 702 174 457 65 545 b 473 1024 64 895 233 1024 b 872 694 718 1024 871 893 l 610 694 m 468 -306 b 333 -182 394 -306 333 -250 b 468 -57 333 -113 394 -57 b 602 -182 542 -57 602 -113 b 468 -306 602 -250 542 -306 m 464 1089 b 329 1213 390 1089 329 1145 b 464 1338 329 1282 390 1338 b 598 1213 538 1338 598 1282 b 464 1089 598 1145 538 1089 "},"Ѕ":{"ha":925,"x_min":0,"x_max":0,"o":"m 610 694 b 473 799 604 760 562 799 b 351 722 389 799 352 766 b 487 625 349 674 392 646 l 570 608 b 886 298 793 560 885 452 b 475 -12 885 99 731 -12 b 39 355 212 -12 40 102 l 300 355 b 472 213 304 262 366 213 b 606 298 559 213 605 248 b 454 397 605 344 566 372 l 353 418 b 65 702 174 457 65 545 b 473 1024 64 895 233 1024 b 872 694 718 1024 871 893 l 610 694 "},"Ƨ":{"ha":925,"x_min":0,"x_max":0,"o":"m 53 694 b 452 1024 54 893 207 1024 b 860 702 692 1024 862 895 b 572 418 861 545 751 457 l 472 397 b 320 298 359 372 321 344 b 454 213 321 248 366 213 b 625 355 559 213 621 262 l 886 355 b 450 -12 885 102 713 -12 b 39 298 194 -12 40 99 b 355 608 40 452 132 560 l 438 625 b 574 722 534 646 577 674 b 452 799 574 766 537 799 b 316 694 363 799 321 760 "},"ẞ":{"ha":1028,"x_min":0,"x_max":0,"o":"m 65 661 b 454 1024 65 873 226 1024 b 959 835 600 1024 809 945 l 734 592 b 988 298 883 563 988 441 b 616 -14 988 115 834 -14 b 371 32 533 -14 432 5 l 442 225 b 590 193 491 205 547 193 b 732 298 678 193 732 233 b 554 444 732 389 665 444 l 466 444 l 466 586 l 639 754 b 454 815 592 792 522 815 b 339 661 383 815 339 757 l 339 0 l 65 0 "},"T":{"ha":953,"x_min":0,"x_max":0,"o":"m 37 1010 l 915 1010 l 915 789 l 612 789 l 612 0 l 341 0 l 341 789 l 37 789 "},"Ţ":{"ha":953,"x_min":0,"x_max":0,"o":"m 37 1010 l 915 1010 l 915 789 l 612 789 l 612 0 l 520 0 l 513 -41 b 637 -164 591 -53 637 -100 b 341 -335 638 -270 526 -335 l 341 -231 b 493 -170 438 -231 491 -210 b 400 -99 496 -133 464 -109 l 423 0 l 341 0 l 341 789 l 37 789 "},"Ť":{"ha":953,"x_min":0,"x_max":0,"o":"m 37 1010 l 915 1010 l 915 789 l 612 789 l 612 0 l 341 0 l 341 789 l 37 789 m 477 1223 l 574 1332 l 799 1332 l 799 1326 l 572 1101 l 383 1101 l 156 1326 l 156 1332 l 381 1332 "},"Ț":{"ha":953,"x_min":0,"x_max":0,"o":"m 37 1010 l 915 1010 l 915 789 l 612 789 l 612 0 l 341 0 l 341 789 l 37 789 m 356 -80 l 601 -80 l 476 -316 l 291 -316 "},"Ṫ":{"ha":953,"x_min":0,"x_max":0,"o":"m 37 1010 l 915 1010 l 915 789 l 612 789 l 612 0 l 341 0 l 341 789 l 37 789 m 477 1089 b 343 1213 403 1089 343 1145 b 477 1338 343 1282 403 1338 b 612 1213 551 1338 612 1282 b 477 1089 612 1145 551 1089 "},"Ṭ":{"ha":953,"x_min":0,"x_max":0,"o":"m 37 1010 l 915 1010 l 915 789 l 612 789 l 612 0 l 341 0 l 341 789 l 37 789 m 475 -306 b 341 -182 401 -306 341 -250 b 475 -57 341 -113 401 -57 b 610 -182 549 -57 610 -113 b 475 -306 610 -250 549 -306 "},"Ṯ":{"ha":953,"x_min":0,"x_max":0,"o":"m 37 1010 l 915 1010 l 915 789 l 612 789 l 612 0 l 341 0 l 341 789 l 37 789 m 722 -252 l 229 -252 l 229 -127 l 722 -127 "},"Ṱ":{"ha":953,"x_min":0,"x_max":0,"o":"m 37 1010 l 915 1010 l 915 789 l 612 789 l 612 0 l 341 0 l 341 789 l 37 789 m 475 -185 l 379 -294 l 154 -294 l 154 -288 l 381 -63 l 570 -63 l 797 -288 l 797 -294 l 572 -294 "},"Ƭ":{"ha":996,"x_min":0,"x_max":0,"o":"m 959 789 l 655 789 l 655 0 l 385 0 l 385 789 l 365 789 b 258 659 275 789 258 722 l 258 586 l 37 586 l 37 708 b 365 1010 37 898 149 1010 l 959 1010 "},"Ʈ":{"ha":953,"x_min":0,"x_max":0,"o":"m 37 1010 l 915 1010 l 915 789 l 612 789 l 612 -24 b 712 -81 612 -69 664 -81 l 758 -81 l 758 -284 l 639 -284 b 341 -22 494 -284 341 -260 l 341 789 l 37 789 "},"Ⱦ":{"ha":953,"x_min":0,"x_max":0,"o":"m 341 224 l 341 789 l 37 789 l 37 1010 l 579 1010 l 618 1138 l 758 1138 l 719 1010 l 915 1010 l 915 789 l 652 789 l 612 655 l 612 0 l 414 0 l 375 -128 l 235 -128 "},"Τ":{"ha":953,"x_min":0,"x_max":0,"o":"m 37 1010 l 915 1010 l 915 789 l 612 789 l 612 0 l 341 0 l 341 789 l 37 789 "},"U":{"ha":1002,"x_min":0,"x_max":0,"o":"m 937 1010 l 937 363 b 501 -12 937 132 761 -12 b 65 363 240 -12 65 132 l 65 1010 l 339 1010 l 339 387 b 501 225 339 292 407 225 b 663 387 595 225 663 292 l 663 1010 "},"Ư":{"ha":1213,"x_min":0,"x_max":0,"o":"m 1176 1030 b 937 698 1176 843 1126 721 l 937 363 b 501 -12 937 132 761 -12 b 65 363 240 -12 65 132 l 65 1010 l 339 1010 l 339 387 b 501 225 339 292 407 225 b 663 387 595 225 663 292 l 663 1010 l 937 1010 l 937 822 b 1026 1025 1026 845 1026 920 b 1026 1030 1026 1027 1026 1028 "},"Ù":{"ha":1002,"x_min":0,"x_max":0,"o":"m 937 1010 l 937 363 b 501 -12 937 132 761 -12 b 65 363 240 -12 65 132 l 65 1010 l 339 1010 l 339 387 b 501 225 339 292 407 225 b 663 387 595 225 663 292 l 663 1010 m 264 1326 l 497 1326 l 592 1105 l 412 1105 "},"Ú":{"ha":1002,"x_min":0,"x_max":0,"o":"m 937 1010 l 937 363 b 501 -12 937 132 761 -12 b 65 363 240 -12 65 132 l 65 1010 l 339 1010 l 339 387 b 501 225 339 292 407 225 b 663 387 595 225 663 292 l 663 1010 m 505 1326 l 738 1326 l 590 1105 l 410 1105 "},"Û":{"ha":1002,"x_min":0,"x_max":0,"o":"m 937 1010 l 937 363 b 501 -12 937 132 761 -12 b 65 363 240 -12 65 132 l 65 1010 l 339 1010 l 339 387 b 501 225 339 292 407 225 b 663 387 595 225 663 292 l 663 1010 m 501 1209 l 404 1101 l 180 1101 l 180 1107 l 406 1332 l 596 1332 l 823 1107 l 823 1101 l 598 1101 "},"Ü":{"ha":1002,"x_min":0,"x_max":0,"o":"m 937 1010 l 937 363 b 501 -12 937 132 761 -12 b 65 363 240 -12 65 132 l 65 1010 l 339 1010 l 339 387 b 501 225 339 292 407 225 b 663 387 595 225 663 292 l 663 1010 m 345 1099 b 225 1213 278 1099 225 1150 b 345 1328 225 1276 278 1328 b 464 1213 410 1328 464 1276 b 345 1099 464 1150 410 1099 m 659 1099 b 539 1213 592 1099 539 1150 b 659 1328 539 1276 592 1328 b 777 1213 724 1328 777 1276 b 659 1099 777 1150 724 1099 "},"Ũ":{"ha":1002,"x_min":0,"x_max":0,"o":"m 937 1010 l 937 363 b 501 -12 937 132 761 -12 b 65 363 240 -12 65 132 l 65 1010 l 339 1010 l 339 387 b 501 225 339 292 407 225 b 663 387 595 225 663 292 l 663 1010 m 233 1105 b 400 1316 233 1247 307 1315 b 528 1264 461 1316 498 1287 b 584 1235 548 1248 565 1235 b 637 1312 622 1235 636 1264 l 769 1312 b 602 1099 767 1172 694 1100 b 476 1150 541 1098 506 1126 b 418 1180 456 1166 439 1180 b 367 1105 387 1180 367 1154 "},"Ū":{"ha":1002,"x_min":0,"x_max":0,"o":"m 937 1010 l 937 363 b 501 -12 937 132 761 -12 b 65 363 240 -12 65 132 l 65 1010 l 339 1010 l 339 387 b 501 225 339 292 407 225 b 663 387 595 225 663 292 l 663 1010 m 748 1138 l 254 1138 l 254 1263 l 748 1263 "},"Ŭ":{"ha":1002,"x_min":0,"x_max":0,"o":"m 937 1010 l 937 363 b 501 -12 937 132 761 -12 b 65 363 240 -12 65 132 l 65 1010 l 339 1010 l 339 387 b 501 225 339 292 407 225 b 663 387 595 225 663 292 l 663 1010 m 771 1282 b 501 1071 771 1154 666 1071 b 231 1282 335 1071 230 1154 l 400 1282 b 501 1199 400 1241 428 1199 b 600 1282 572 1199 599 1239 "},"Ů":{"ha":1002,"x_min":0,"x_max":0,"o":"m 937 1010 l 937 363 b 501 -12 937 132 761 -12 b 65 363 240 -12 65 132 l 65 1010 l 339 1010 l 339 387 b 501 225 339 292 407 225 b 663 387 595 225 663 292 l 663 1010 m 501 1061 b 343 1213 414 1061 343 1129 b 501 1365 343 1297 414 1365 b 659 1213 588 1365 659 1297 b 501 1061 659 1129 588 1061 m 501 1154 b 564 1213 535 1155 564 1181 b 501 1272 564 1246 536 1273 b 438 1213 467 1272 438 1246 b 501 1154 438 1181 466 1154 "},"Ű":{"ha":1002,"x_min":0,"x_max":0,"o":"m 937 1010 l 937 363 b 501 -12 937 132 761 -12 b 65 363 240 -12 65 132 l 65 1010 l 339 1010 l 339 387 b 501 225 339 292 407 225 b 663 387 595 225 663 292 l 663 1010 m 402 1302 l 612 1302 l 440 1101 l 256 1101 m 702 1302 l 911 1302 l 722 1101 l 543 1101 "},"Ų":{"ha":1002,"x_min":0,"x_max":0,"o":"m 937 1010 l 937 363 b 640 3 937 176 821 46 l 651 0 b 552 -79 587 -20 552 -39 b 598 -130 552 -112 572 -130 b 639 -122 615 -130 627 -124 l 671 -245 b 552 -274 645 -258 605 -274 b 371 -144 461 -274 396 -227 b 372 1 356 -95 357 -41 b 65 363 184 41 65 173 l 65 1010 l 339 1010 l 339 387 b 501 225 339 292 407 225 b 663 387 595 225 663 292 l 663 1010 "},"Ǔ":{"ha":1002,"x_min":0,"x_max":0,"o":"m 937 1010 l 937 363 b 501 -12 937 132 761 -12 b 65 363 240 -12 65 132 l 65 1010 l 339 1010 l 339 387 b 501 225 339 292 407 225 b 663 387 595 225 663 292 l 663 1010 m 501 1223 l 598 1332 l 823 1332 l 823 1326 l 596 1101 l 406 1101 l 180 1326 l 180 1332 l 404 1332 "},"Ǖ":{"ha":1002,"x_min":0,"x_max":0,"o":"m 937 1010 l 937 363 b 501 -12 937 132 761 -12 b 65 363 240 -12 65 132 l 65 1010 l 339 1010 l 339 387 b 501 225 339 292 407 225 b 663 387 595 225 663 292 l 663 1010 m 748 1391 l 254 1391 l 254 1515 l 748 1515 m 345 1099 b 225 1213 278 1099 225 1150 b 345 1328 225 1276 278 1328 b 464 1213 410 1328 464 1276 b 345 1099 464 1150 410 1099 m 659 1099 b 539 1213 592 1099 539 1150 b 659 1328 539 1276 592 1328 b 777 1213 724 1328 777 1276 b 659 1099 777 1150 724 1099 "},"Ǘ":{"ha":1002,"x_min":0,"x_max":0,"o":"m 937 1010 l 937 363 b 501 -12 937 132 761 -12 b 65 363 240 -12 65 132 l 65 1010 l 339 1010 l 339 387 b 501 225 339 292 407 225 b 663 387 595 225 663 292 l 663 1010 m 532 1528 l 755 1528 l 584 1338 l 400 1338 m 356 1073 b 243 1176 293 1073 243 1120 b 356 1280 243 1234 293 1280 b 466 1176 416 1280 466 1234 b 356 1073 466 1120 416 1073 m 649 1073 b 536 1176 586 1073 536 1120 b 649 1280 536 1234 586 1280 b 760 1176 710 1280 760 1234 b 649 1073 760 1120 710 1073 "},"Ǚ":{"ha":1002,"x_min":0,"x_max":0,"o":"m 937 1010 l 937 363 b 501 -12 937 132 761 -12 b 65 363 240 -12 65 132 l 65 1010 l 339 1010 l 339 387 b 501 225 339 292 407 225 b 663 387 595 225 663 292 l 663 1010 m 503 1399 l 590 1468 l 807 1468 l 807 1458 l 596 1296 l 412 1296 l 197 1462 l 197 1468 l 416 1468 m 541 1203 b 647 1286 541 1249 584 1286 b 754 1203 706 1286 754 1251 b 647 1119 754 1154 706 1119 b 541 1203 584 1119 541 1156 m 251 1203 b 355 1286 251 1249 294 1286 b 462 1203 418 1286 462 1249 b 355 1119 462 1154 416 1119 b 251 1203 296 1119 251 1154 "},"Ǜ":{"ha":1002,"x_min":0,"x_max":0,"o":"m 937 1010 l 937 363 b 501 -12 937 132 761 -12 b 65 363 240 -12 65 132 l 65 1010 l 339 1010 l 339 387 b 501 225 339 292 407 225 b 663 387 595 225 663 292 l 663 1010 m 539 1203 b 645 1286 538 1251 585 1286 b 752 1203 707 1286 751 1249 b 645 1119 751 1156 707 1119 b 539 1203 585 1119 538 1154 m 249 1203 b 353 1286 248 1249 293 1286 b 462 1203 415 1286 461 1249 b 353 1119 461 1154 413 1119 b 249 1203 293 1119 248 1154 m 572 1296 l 446 1296 l 320 1411 l 481 1411 "},"Ȕ":{"ha":1002,"x_min":0,"x_max":0,"o":"m 937 1010 l 937 363 b 501 -12 937 132 761 -12 b 65 363 240 -12 65 132 l 65 1010 l 339 1010 l 339 387 b 501 225 339 292 407 225 b 663 387 595 225 663 292 l 663 1010 m 139 1326 l 372 1326 l 467 1105 l 287 1105 m 459 1326 l 679 1326 l 729 1105 l 554 1105 "},"Ȗ":{"ha":1002,"x_min":0,"x_max":0,"o":"m 937 1010 l 937 363 b 501 -12 937 132 761 -12 b 65 363 240 -12 65 132 l 65 1010 l 339 1010 l 339 387 b 501 225 339 292 407 225 b 663 387 595 225 663 292 l 663 1010 m 229 1128 b 499 1347 228 1257 332 1347 b 771 1128 664 1347 770 1257 l 600 1128 b 499 1209 599 1170 571 1209 b 400 1128 427 1209 400 1170 l 229 1128 "},"Ṳ":{"ha":1002,"x_min":0,"x_max":0,"o":"m 937 1010 l 937 363 b 501 -12 937 132 761 -12 b 65 363 240 -12 65 132 l 65 1010 l 339 1010 l 339 387 b 501 225 339 292 407 225 b 663 387 595 225 663 292 l 663 1010 m 365 -300 b 231 -176 291 -300 231 -244 b 365 -51 231 -107 291 -51 b 499 -176 439 -51 499 -107 b 365 -300 499 -244 439 -300 m 760 -300 b 625 -176 686 -300 625 -244 b 760 -51 625 -107 686 -51 b 894 -176 834 -51 894 -107 b 760 -300 894 -244 834 -300 "},"Ṵ":{"ha":1002,"x_min":0,"x_max":0,"o":"m 937 1010 l 937 363 b 501 -12 937 132 761 -12 b 65 363 240 -12 65 132 l 65 1010 l 339 1010 l 339 387 b 501 225 339 292 407 225 b 663 387 595 225 663 292 l 663 1010 m 251 -278 b 418 -67 251 -136 325 -68 b 545 -119 479 -67 516 -96 b 602 -148 566 -135 583 -148 b 655 -71 640 -147 654 -119 l 787 -71 b 619 -284 785 -211 712 -283 b 494 -233 559 -285 523 -256 b 436 -203 474 -217 457 -203 b 385 -278 404 -203 385 -229 "},"Ṷ":{"ha":1002,"x_min":0,"x_max":0,"o":"m 937 1010 l 937 363 b 501 -12 937 132 761 -12 b 65 363 240 -12 65 132 l 65 1010 l 339 1010 l 339 387 b 501 225 339 292 407 225 b 663 387 595 225 663 292 l 663 1010 m 501 -180 l 404 -288 l 180 -288 l 180 -282 l 406 -57 l 596 -57 l 823 -282 l 823 -288 l 598 -288 "},"Ṹ":{"ha":1002,"x_min":0,"x_max":0,"o":"m 937 1010 l 937 363 b 501 -12 937 132 761 -12 b 65 363 240 -12 65 132 l 65 1010 l 339 1010 l 339 387 b 501 225 339 292 407 225 b 663 387 595 225 663 292 l 663 1010 m 251 1091 b 407 1278 251 1217 320 1278 b 526 1233 464 1279 498 1253 b 579 1207 545 1218 561 1206 b 628 1275 614 1207 627 1233 l 752 1275 b 595 1086 750 1151 681 1087 b 478 1131 538 1086 505 1111 b 424 1158 459 1146 443 1158 b 376 1091 394 1158 376 1135 m 524 1528 l 747 1528 l 576 1338 l 393 1338 "},"Ṻ":{"ha":1002,"x_min":0,"x_max":0,"o":"m 937 1010 l 937 363 b 501 -12 937 132 761 -12 b 65 363 240 -12 65 132 l 65 1010 l 339 1010 l 339 387 b 501 225 339 292 407 225 b 663 387 595 225 663 292 l 663 1010 m 748 1095 l 253 1095 l 253 1217 l 748 1217 m 249 1361 b 353 1446 248 1409 293 1446 b 462 1361 413 1446 461 1409 b 353 1276 461 1314 415 1276 b 249 1361 291 1276 248 1314 m 539 1361 b 645 1446 538 1409 583 1446 b 752 1361 705 1446 751 1409 b 645 1278 751 1314 705 1278 b 539 1361 583 1278 538 1314 "},"Ụ":{"ha":1002,"x_min":0,"x_max":0,"o":"m 937 1010 l 937 363 b 501 -12 937 132 761 -12 b 65 363 240 -12 65 132 l 65 1010 l 339 1010 l 339 387 b 501 225 339 292 407 225 b 663 387 595 225 663 292 l 663 1010 m 501 -300 b 367 -176 427 -300 367 -244 b 501 -51 367 -107 427 -51 b 635 -176 575 -51 635 -107 b 501 -300 635 -244 575 -300 "},"Ủ":{"ha":1002,"x_min":0,"x_max":0,"o":"m 937 1010 l 937 363 b 501 -12 937 132 761 -12 b 65 363 240 -12 65 132 l 65 1010 l 339 1010 l 339 387 b 501 225 339 292 407 225 b 663 387 595 225 663 292 l 663 1010 m 400 1123 l 383 1199 b 479 1241 453 1201 480 1219 b 387 1282 480 1276 441 1282 l 393 1391 b 702 1255 595 1391 703 1342 b 596 1162 703 1199 650 1170 l 596 1123 "},"Ứ":{"ha":1213,"x_min":0,"x_max":0,"o":"m 1176 1030 b 937 698 1176 843 1126 721 l 937 363 b 501 -12 937 132 761 -12 b 65 363 240 -12 65 132 l 65 1010 l 339 1010 l 339 387 b 501 225 339 292 407 225 b 663 387 595 225 663 292 l 663 1010 l 937 1010 l 937 822 b 1026 1025 1026 845 1026 920 b 1026 1030 1026 1027 1026 1028 m 505 1326 l 738 1326 l 590 1105 l 410 1105 "},"Ừ":{"ha":1213,"x_min":0,"x_max":0,"o":"m 1176 1030 b 937 698 1176 843 1126 721 l 937 363 b 501 -12 937 132 761 -12 b 65 363 240 -12 65 132 l 65 1010 l 339 1010 l 339 387 b 501 225 339 292 407 225 b 663 387 595 225 663 292 l 663 1010 l 937 1010 l 937 822 b 1026 1025 1026 845 1026 920 b 1026 1030 1026 1027 1026 1028 m 264 1326 l 497 1326 l 592 1105 l 412 1105 "},"Ử":{"ha":1213,"x_min":0,"x_max":0,"o":"m 1176 1030 b 937 698 1176 843 1126 721 l 937 363 b 501 -12 937 132 761 -12 b 65 363 240 -12 65 132 l 65 1010 l 339 1010 l 339 387 b 501 225 339 292 407 225 b 663 387 595 225 663 292 l 663 1010 l 937 1010 l 937 822 b 1026 1025 1026 845 1026 920 b 1026 1030 1026 1027 1026 1028 m 400 1123 l 383 1199 b 479 1241 453 1201 480 1219 b 387 1282 480 1276 441 1282 l 393 1391 b 702 1255 595 1391 703 1342 b 596 1162 703 1199 650 1170 l 596 1123 "},"Ữ":{"ha":1213,"x_min":0,"x_max":0,"o":"m 1176 1030 b 937 698 1176 843 1126 721 l 937 363 b 501 -12 937 132 761 -12 b 65 363 240 -12 65 132 l 65 1010 l 339 1010 l 339 387 b 501 225 339 292 407 225 b 663 387 595 225 663 292 l 663 1010 l 937 1010 l 937 822 b 1026 1025 1026 845 1026 920 b 1026 1030 1026 1027 1026 1028 m 233 1105 b 400 1316 233 1247 307 1315 b 528 1264 461 1316 498 1287 b 584 1235 548 1248 565 1235 b 637 1312 622 1235 636 1264 l 769 1312 b 602 1099 767 1172 694 1100 b 476 1150 541 1098 506 1126 b 418 1180 456 1166 439 1180 b 367 1105 387 1180 367 1154 "},"Ự":{"ha":1213,"x_min":0,"x_max":0,"o":"m 1176 1030 b 937 698 1176 843 1126 721 l 937 363 b 501 -12 937 132 761 -12 b 65 363 240 -12 65 132 l 65 1010 l 339 1010 l 339 387 b 501 225 339 292 407 225 b 663 387 595 225 663 292 l 663 1010 l 937 1010 l 937 822 b 1026 1025 1026 845 1026 920 b 1026 1030 1026 1027 1026 1028 m 501 -300 b 367 -176 427 -300 367 -244 b 501 -51 367 -107 427 -51 b 635 -176 575 -51 635 -107 b 501 -300 635 -244 575 -300 "},"Ʉ":{"ha":1073,"x_min":0,"x_max":0,"o":"m 1081 416 l 979 416 l 979 363 b 543 -12 979 132 802 -12 b 107 363 281 -12 107 132 l 107 416 l -8 416 l -8 566 l 107 566 l 107 1010 l 381 1010 l 381 566 l 704 566 l 704 1010 l 979 1010 l 979 566 l 1081 566 m 381 416 l 381 387 b 543 225 381 292 448 225 b 704 387 637 225 704 292 l 704 416 "},"V":{"ha":1105,"x_min":0,"x_max":0,"o":"m 548 298 l 556 298 l 763 1010 l 1073 1010 l 740 0 l 365 0 l 32 1010 l 341 1010 "},"Ṽ":{"ha":1105,"x_min":0,"x_max":0,"o":"m 548 298 l 556 298 l 763 1010 l 1073 1010 l 740 0 l 365 0 l 32 1010 l 341 1010 m 284 1105 b 452 1316 284 1247 359 1315 b 579 1264 512 1316 549 1287 b 635 1235 599 1248 617 1235 b 689 1312 673 1235 688 1264 l 821 1312 b 653 1099 819 1172 745 1100 b 528 1150 592 1098 557 1126 b 470 1180 508 1166 490 1180 b 418 1105 438 1180 418 1154 "},"Ṿ":{"ha":1105,"x_min":0,"x_max":0,"o":"m 548 298 l 556 298 l 763 1010 l 1073 1010 l 740 0 l 365 0 l 32 1010 l 341 1010 m 552 -306 b 418 -182 478 -306 418 -250 b 552 -57 418 -113 478 -57 b 687 -182 626 -57 687 -113 b 552 -306 687 -250 626 -306 "},"W":{"ha":1519,"x_min":0,"x_max":0,"o":"m 24 1010 l 329 1010 l 468 389 l 475 389 l 639 1010 l 880 1010 l 1044 387 l 1052 387 l 1190 1010 l 1495 1010 l 1198 0 l 935 0 l 763 564 l 756 564 l 584 0 l 322 0 "},"Ŵ":{"ha":1519,"x_min":0,"x_max":0,"o":"m 24 1010 l 329 1010 l 468 389 l 475 389 l 639 1010 l 880 1010 l 1044 387 l 1052 387 l 1190 1010 l 1495 1010 l 1198 0 l 935 0 l 763 564 l 756 564 l 584 0 l 322 0 m 760 1209 l 663 1101 l 438 1101 l 438 1107 l 665 1332 l 854 1332 l 1081 1107 l 1081 1101 l 856 1101 "},"Ẁ":{"ha":1519,"x_min":0,"x_max":0,"o":"m 24 1010 l 329 1010 l 468 389 l 475 389 l 639 1010 l 880 1010 l 1044 387 l 1052 387 l 1190 1010 l 1495 1010 l 1198 0 l 935 0 l 763 564 l 756 564 l 584 0 l 322 0 m 523 1326 l 756 1326 l 850 1105 l 671 1105 "},"Ẃ":{"ha":1519,"x_min":0,"x_max":0,"o":"m 24 1010 l 329 1010 l 468 389 l 475 389 l 639 1010 l 880 1010 l 1044 387 l 1052 387 l 1190 1010 l 1495 1010 l 1198 0 l 935 0 l 763 564 l 756 564 l 584 0 l 322 0 m 763 1326 l 996 1326 l 848 1105 l 669 1105 "},"Ẅ":{"ha":1519,"x_min":0,"x_max":0,"o":"m 24 1010 l 329 1010 l 468 389 l 475 389 l 639 1010 l 880 1010 l 1044 387 l 1052 387 l 1190 1010 l 1495 1010 l 1198 0 l 935 0 l 763 564 l 756 564 l 584 0 l 322 0 m 604 1099 b 483 1213 537 1099 483 1150 b 604 1328 483 1276 537 1328 b 722 1213 669 1328 722 1276 b 604 1099 722 1150 669 1099 m 917 1099 b 797 1213 850 1099 797 1150 b 917 1328 797 1276 850 1328 b 1036 1213 982 1328 1036 1276 b 917 1099 1036 1150 982 1099 "},"Ẇ":{"ha":1519,"x_min":0,"x_max":0,"o":"m 24 1010 l 329 1010 l 468 389 l 475 389 l 639 1010 l 880 1010 l 1044 387 l 1052 387 l 1190 1010 l 1495 1010 l 1198 0 l 935 0 l 763 564 l 756 564 l 584 0 l 322 0 m 760 1089 b 625 1213 686 1089 625 1145 b 760 1338 625 1282 686 1338 b 894 1213 834 1338 894 1282 b 760 1089 894 1145 834 1089 "},"Ẉ":{"ha":1519,"x_min":0,"x_max":0,"o":"m 24 1010 l 329 1010 l 468 389 l 475 389 l 639 1010 l 880 1010 l 1044 387 l 1052 387 l 1190 1010 l 1495 1010 l 1198 0 l 935 0 l 763 564 l 756 564 l 584 0 l 322 0 m 760 -306 b 625 -182 686 -306 625 -250 b 760 -57 625 -113 686 -57 b 894 -182 834 -57 894 -113 b 760 -306 894 -250 834 -306 "},"X":{"ha":1059,"x_min":0,"x_max":0,"o":"m 525 716 l 533 716 l 700 1010 l 1006 1010 l 704 505 l 1018 0 l 704 0 l 533 300 l 525 300 l 353 0 l 41 0 l 351 505 l 51 1010 l 359 1010 "},"Ẋ":{"ha":1059,"x_min":0,"x_max":0,"o":"m 525 716 l 533 716 l 700 1010 l 1006 1010 l 704 505 l 1018 0 l 704 0 l 533 300 l 525 300 l 353 0 l 41 0 l 351 505 l 51 1010 l 359 1010 m 529 1089 b 395 1213 455 1089 395 1145 b 529 1338 395 1282 455 1338 b 663 1213 603 1338 663 1282 b 529 1089 663 1145 603 1089 "},"Ẍ":{"ha":1059,"x_min":0,"x_max":0,"o":"m 525 716 l 533 716 l 700 1010 l 1006 1010 l 704 505 l 1018 0 l 704 0 l 533 300 l 525 300 l 353 0 l 41 0 l 351 505 l 51 1010 l 359 1010 m 373 1099 b 253 1213 306 1099 253 1150 b 373 1328 253 1276 306 1328 b 491 1213 438 1328 491 1276 b 373 1099 491 1150 438 1099 m 687 1099 b 566 1213 619 1099 566 1150 b 687 1328 566 1276 619 1328 b 805 1213 752 1328 805 1276 b 687 1099 805 1150 752 1099 "},"Ҳ":{"ha":1059,"x_min":0,"x_max":0,"o":"m 525 716 l 533 716 l 700 1010 l 1006 1010 l 704 505 l 912 170 l 1099 170 l 1099 -243 l 836 -243 l 836 0 l 704 0 l 533 300 l 525 300 l 353 0 l 41 0 l 351 505 l 51 1010 l 359 1010 "},"Ӽ":{"ha":1059,"x_min":0,"x_max":0,"o":"m 525 716 l 533 716 l 700 1010 l 1006 1010 l 704 505 l 874 232 l 874 239 l 1136 239 l 1136 10 b 831 -296 1136 -193 1018 -296 b 712 -286 789 -296 756 -294 l 722 -87 b 793 -95 748 -93 756 -95 b 874 0 844 -95 871 -63 l 704 0 l 533 300 l 525 300 l 353 0 l 41 0 l 351 505 l 51 1010 l 359 1010 "},"Χ":{"ha":1059,"x_min":0,"x_max":0,"o":"m 525 716 l 533 716 l 700 1010 l 1006 1010 l 704 505 l 1018 0 l 704 0 l 533 300 l 525 300 l 353 0 l 41 0 l 351 505 l 51 1010 l 359 1010 "},"Y":{"ha":1061,"x_min":0,"x_max":0,"o":"m 329 1010 l 527 600 l 535 600 l 732 1010 l 1038 1010 l 667 318 l 667 0 l 395 0 l 395 318 l 24 1010 "},"Ƴ":{"ha":1174,"x_min":0,"x_max":0,"o":"m 329 1010 l 576 600 l 588 600 l 751 868 b 1158 996 849 1031 1015 1046 l 1103 795 b 953 733 1023 817 994 796 l 718 373 l 718 0 l 446 0 l 446 373 l 36 1010 "},"Ý":{"ha":1061,"x_min":0,"x_max":0,"o":"m 329 1010 l 527 600 l 535 600 l 732 1010 l 1038 1010 l 667 318 l 667 0 l 395 0 l 395 318 l 24 1010 m 535 1326 l 767 1326 l 619 1105 l 440 1105 "},"Ŷ":{"ha":1061,"x_min":0,"x_max":0,"o":"m 329 1010 l 527 600 l 535 600 l 732 1010 l 1038 1010 l 667 318 l 667 0 l 395 0 l 395 318 l 24 1010 m 531 1209 l 434 1101 l 209 1101 l 209 1107 l 436 1332 l 625 1332 l 852 1107 l 852 1101 l 627 1101 "},"Ÿ":{"ha":1061,"x_min":0,"x_max":0,"o":"m 329 1010 l 527 600 l 535 600 l 732 1010 l 1038 1010 l 667 318 l 667 0 l 395 0 l 395 318 l 24 1010 m 375 1099 b 254 1213 308 1099 254 1150 b 375 1328 254 1276 308 1328 b 493 1213 440 1328 493 1276 b 375 1099 493 1150 440 1099 m 689 1099 b 568 1213 621 1099 568 1150 b 689 1328 568 1276 621 1328 b 807 1213 754 1328 807 1276 b 689 1099 807 1150 754 1099 "},"Ȳ":{"ha":1061,"x_min":0,"x_max":0,"o":"m 329 1010 l 527 600 l 535 600 l 732 1010 l 1038 1010 l 667 318 l 667 0 l 395 0 l 395 318 l 24 1010 m 777 1138 l 284 1138 l 284 1263 l 777 1263 "},"Ẏ":{"ha":1061,"x_min":0,"x_max":0,"o":"m 329 1010 l 527 600 l 535 600 l 732 1010 l 1038 1010 l 667 318 l 667 0 l 395 0 l 395 318 l 24 1010 m 531 1089 b 397 1213 457 1089 397 1145 b 531 1338 397 1282 457 1338 b 665 1213 605 1338 665 1282 b 531 1089 665 1145 605 1089 "},"Ỳ":{"ha":1061,"x_min":0,"x_max":0,"o":"m 329 1010 l 527 600 l 535 600 l 732 1010 l 1038 1010 l 667 318 l 667 0 l 395 0 l 395 318 l 24 1010 m 294 1326 l 527 1326 l 621 1105 l 442 1105 "},"Ỵ":{"ha":1061,"x_min":0,"x_max":0,"o":"m 329 1010 l 527 600 l 535 600 l 732 1010 l 1038 1010 l 667 318 l 667 0 l 395 0 l 395 318 l 24 1010 m 531 -306 b 397 -182 457 -306 397 -250 b 531 -57 397 -113 457 -57 b 665 -182 605 -57 665 -113 b 531 -306 665 -250 605 -306 "},"Ỷ":{"ha":1061,"x_min":0,"x_max":0,"o":"m 329 1010 l 527 600 l 535 600 l 732 1010 l 1038 1010 l 667 318 l 667 0 l 395 0 l 395 318 l 24 1010 m 430 1123 l 412 1199 b 509 1241 482 1201 510 1219 b 416 1282 510 1276 471 1282 l 422 1391 b 732 1255 624 1391 733 1342 b 625 1162 733 1199 680 1170 l 625 1123 "},"Ỹ":{"ha":1061,"x_min":0,"x_max":0,"o":"m 329 1010 l 527 600 l 535 600 l 732 1010 l 1038 1010 l 667 318 l 667 0 l 395 0 l 395 318 l 24 1010 m 262 1105 b 430 1316 262 1247 337 1315 b 557 1264 491 1316 528 1287 b 614 1235 578 1248 595 1235 b 667 1312 652 1235 666 1264 l 799 1312 b 631 1099 797 1172 724 1100 b 506 1150 571 1098 535 1126 b 448 1180 486 1166 469 1180 b 397 1105 416 1180 397 1154 "},"Ɏ":{"ha":1061,"x_min":0,"x_max":0,"o":"m 1044 669 l 855 669 l 667 318 l 667 0 l 395 0 l 395 318 l 207 669 l 18 669 l 18 797 l 138 797 l 24 1010 l 329 1010 l 432 797 l 629 797 l 732 1010 l 1038 1010 l 924 797 l 1044 797 m 527 600 l 535 600 l 568 669 l 494 669 "},"Υ":{"ha":1061,"x_min":0,"x_max":0,"o":"m 329 1010 l 527 600 l 535 600 l 732 1010 l 1038 1010 l 667 318 l 667 0 l 395 0 l 395 318 l 24 1010 "},"Ύ":{"ha":1484,"x_min":0,"x_max":0,"o":"m 655 1010 l 852 600 l 860 600 l 1057 1010 l 1363 1010 l 992 318 l 992 0 l 720 0 l 720 318 l 349 1010 m 69 1089 l 298 1089 l 156 852 l 4 852 "},"Ϋ":{"ha":1061,"x_min":0,"x_max":0,"o":"m 329 1010 l 527 600 l 535 600 l 732 1010 l 1038 1010 l 667 318 l 667 0 l 395 0 l 395 318 l 24 1010 m 375 1099 b 254 1213 308 1099 254 1150 b 375 1328 254 1276 308 1328 b 493 1213 440 1328 493 1276 b 375 1099 493 1150 440 1099 m 689 1099 b 568 1213 621 1099 568 1150 b 689 1328 568 1276 621 1328 b 807 1213 754 1328 807 1276 b 689 1099 807 1150 754 1099 "},"Ὑ":{"ha":1359,"x_min":0,"x_max":0,"o":"m 531 1010 l 728 600 l 736 600 l 933 1010 l 1239 1010 l 868 318 l 868 0 l 596 0 l 596 318 l 225 1010 m 61 1010 l 180 1010 l 180 943 b 231 840 181 908 186 862 l 170 765 b 61 939 113 789 62 850 "},"Ὓ":{"ha":1580,"x_min":0,"x_max":0,"o":"m 752 1010 l 949 600 l 957 600 l 1154 1010 l 1460 1010 l 1089 318 l 1089 0 l 817 0 l 817 318 l 446 1010 m 47 1010 l 168 1010 l 168 943 b 221 840 167 908 171 862 l 160 765 b 47 939 98 789 46 850 m 460 779 l 393 779 l 229 996 l 229 1010 l 381 1010 l 460 799 "},"Ὕ":{"ha":1665,"x_min":0,"x_max":0,"o":"m 836 1010 l 1034 600 l 1042 600 l 1239 1010 l 1545 1010 l 1174 318 l 1174 0 l 902 0 l 902 318 l 531 1010 m 217 799 l 294 1010 l 446 1010 l 446 996 l 280 779 l 217 779 m 109 765 b 0 939 56 787 0 846 l 0 1010 l 118 1010 l 118 943 b 170 840 119 898 127 860 l 109 765 "},"Ὗ":{"ha":1570,"x_min":0,"x_max":0,"o":"m 742 1010 l 939 600 l 947 600 l 1144 1010 l 1450 1010 l 1079 318 l 1079 0 l 807 0 l 807 318 l 436 1010 m 424 1152 b 310 1030 424 1087 377 1030 b 138 1073 237 1030 199 1073 b 97 1014 112 1073 97 1046 l -6 1044 b 109 1168 -6 1109 41 1168 b 280 1126 168 1168 223 1126 b 322 1184 304 1126 322 1152 m 164 994 l 280 994 l 280 941 b 331 854 280 909 284 868 l 276 793 b 164 935 223 809 164 852 "},"Ῠ":{"ha":1061,"x_min":0,"x_max":0,"o":"m 329 1010 l 527 600 l 535 600 l 732 1010 l 1038 1010 l 667 318 l 667 0 l 395 0 l 395 318 l 24 1010 m 801 1282 b 531 1071 800 1154 696 1071 b 260 1282 364 1071 260 1154 l 430 1282 b 531 1199 430 1241 457 1199 b 629 1282 601 1199 629 1239 "},"Ῡ":{"ha":1061,"x_min":0,"x_max":0,"o":"m 329 1010 l 527 600 l 535 600 l 732 1010 l 1038 1010 l 667 318 l 667 0 l 395 0 l 395 318 l 24 1010 m 777 1138 l 284 1138 l 284 1263 l 777 1263 "},"Ὺ":{"ha":1383,"x_min":0,"x_max":0,"o":"m 554 1010 l 752 600 l 760 600 l 957 1010 l 1263 1010 l 892 318 l 892 0 l 619 0 l 619 318 l 249 1010 m 55 996 l 55 1010 l 205 1010 l 282 803 l 282 779 l 219 779 "},"Ύ":{"ha":1373,"x_min":0,"x_max":0,"o":"m 545 1010 l 742 600 l 750 600 l 947 1010 l 1253 1010 l 882 318 l 882 0 l 610 0 l 610 318 l 239 1010 m -101 876 l -22 1083 l 195 1083 l 195 1069 l 32 852 l -101 852 "},"":{"ha":1061,"x_min":0,"x_max":0,"o":"m 329 1010 l 527 600 l 535 600 l 732 1010 l 1038 1010 l 667 318 l 667 0 b 568 -79 603 -20 568 -39 b 614 -130 568 -112 587 -130 b 655 -122 631 -130 643 -124 l 687 -245 b 568 -274 660 -258 621 -274 b 387 -144 477 -274 412 -227 b 395 17 370 -89 374 -27 l 395 318 l 24 1010 "},"Z":{"ha":965,"x_min":0,"x_max":0,"o":"m 69 152 l 546 789 l 71 789 l 71 1010 l 896 1010 l 896 858 l 418 221 l 894 221 l 894 0 l 69 0 "},"Ź":{"ha":965,"x_min":0,"x_max":0,"o":"m 69 152 l 546 789 l 71 789 l 71 1010 l 896 1010 l 896 858 l 418 221 l 894 221 l 894 0 l 69 0 m 489 1326 l 722 1326 l 574 1105 l 395 1105 "},"Ż":{"ha":965,"x_min":0,"x_max":0,"o":"m 69 152 l 546 789 l 71 789 l 71 1010 l 896 1010 l 896 858 l 418 221 l 894 221 l 894 0 l 69 0 m 485 1089 b 351 1213 411 1089 351 1145 b 485 1338 351 1282 411 1338 b 619 1213 559 1338 619 1282 b 485 1089 619 1145 559 1089 "},"Ž":{"ha":965,"x_min":0,"x_max":0,"o":"m 69 152 l 546 789 l 71 789 l 71 1010 l 896 1010 l 896 858 l 418 221 l 894 221 l 894 0 l 69 0 m 485 1223 l 582 1332 l 807 1332 l 807 1326 l 580 1101 l 391 1101 l 164 1326 l 164 1332 l 389 1332 "},"Ẑ":{"ha":965,"x_min":0,"x_max":0,"o":"m 69 152 l 546 789 l 71 789 l 71 1010 l 896 1010 l 896 858 l 418 221 l 894 221 l 894 0 l 69 0 m 485 1209 l 389 1101 l 164 1101 l 164 1107 l 391 1332 l 580 1332 l 807 1107 l 807 1101 l 582 1101 "},"Ẓ":{"ha":965,"x_min":0,"x_max":0,"o":"m 69 152 l 546 789 l 71 789 l 71 1010 l 896 1010 l 896 858 l 418 221 l 894 221 l 894 0 l 69 0 m 483 -306 b 349 -182 409 -306 349 -250 b 483 -57 349 -113 409 -57 b 618 -182 557 -57 618 -113 b 483 -306 618 -250 557 -306 "},"Ẕ":{"ha":965,"x_min":0,"x_max":0,"o":"m 69 152 l 546 789 l 71 789 l 71 1010 l 896 1010 l 896 858 l 418 221 l 894 221 l 894 0 l 69 0 m 730 -252 l 237 -252 l 237 -127 l 730 -127 "},"Ȥ":{"ha":965,"x_min":0,"x_max":0,"o":"m 71 1010 l 896 1010 l 896 858 l 410 221 l 586 221 b 913 -79 800 221 914 110 l 913 -189 l 694 -189 l 694 -128 b 586 0 695 -59 680 0 l 69 0 l 69 152 l 554 789 l 71 789 "},"Ƶ":{"ha":965,"x_min":0,"x_max":0,"o":"m 69 152 l 306 468 l 237 468 l 237 614 l 415 614 l 546 789 l 71 789 l 71 1010 l 896 1010 l 896 858 l 712 614 l 767 614 l 767 468 l 603 468 l 418 221 l 894 221 l 894 0 l 69 0 "},"Ζ":{"ha":965,"x_min":0,"x_max":0,"o":"m 69 152 l 546 789 l 71 789 l 71 1010 l 896 1010 l 896 858 l 418 221 l 894 221 l 894 0 l 69 0 "},"Ɀ":{"ha":965,"x_min":0,"x_max":0,"o":"m 773 -296 b 144 0 491 -296 446 0 l 67 0 l 67 138 l 535 795 l 69 795 l 69 1010 l 884 1010 l 884 874 l 399 182 b 791 -83 574 103 655 -83 b 896 -67 829 -83 862 -79 l 896 -272 b 773 -296 862 -286 821 -296 "},"a":{"ha":821,"x_min":0,"x_max":0,"o":"m 280 -12 b 34 209 135 -12 34 58 b 312 450 34 375 155 438 b 487 517 439 459 487 473 l 487 519 b 406 580 487 558 454 580 b 314 511 355 580 320 558 l 63 511 b 410 767 73 649 184 767 b 760 519 627 767 760 659 l 760 0 l 505 0 l 505 107 l 499 107 b 280 -12 453 22 379 -12 m 369 160 b 489 268 431 160 489 199 l 489 331 b 381 304 461 320 424 311 b 290 225 318 294 290 264 b 369 160 290 182 323 160 "},"á":{"ha":821,"x_min":0,"x_max":0,"o":"m 280 -12 b 34 209 135 -12 34 58 b 312 450 34 375 155 438 b 487 517 439 459 487 473 l 487 519 b 406 580 487 558 454 580 b 314 511 355 580 320 558 l 63 511 b 410 767 73 649 184 767 b 760 519 627 767 760 659 l 760 0 l 505 0 l 505 107 l 499 107 b 280 -12 453 22 379 -12 m 422 1073 l 655 1073 l 507 852 l 327 852 m 369 160 b 489 268 431 160 489 199 l 489 331 b 381 304 461 320 424 311 b 290 225 318 294 290 264 b 369 160 290 182 323 160 "},"ă":{"ha":821,"x_min":0,"x_max":0,"o":"m 280 -12 b 34 209 135 -12 34 58 b 312 450 34 375 155 438 b 487 517 439 459 487 473 l 487 519 b 406 580 487 558 454 580 b 314 511 355 580 320 558 l 63 511 b 410 767 73 649 184 767 b 760 519 627 767 760 659 l 760 0 l 505 0 l 505 107 l 499 107 b 280 -12 453 22 379 -12 m 689 1030 b 418 819 688 902 583 819 b 148 1030 252 819 147 902 l 318 1030 b 418 947 317 988 345 947 b 517 1030 489 947 516 986 m 369 160 b 489 268 431 160 489 199 l 489 331 b 381 304 461 320 424 311 b 290 225 318 294 290 264 b 369 160 290 182 323 160 "},"ắ":{"ha":821,"x_min":0,"x_max":0,"o":"m 280 -12 b 34 209 135 -12 34 58 b 312 450 34 375 155 438 b 487 517 439 459 487 473 l 487 519 b 406 580 487 558 454 580 b 314 511 355 580 320 558 l 63 511 b 410 767 73 649 184 767 b 760 519 627 767 760 659 l 760 0 l 505 0 l 505 107 l 499 107 b 280 -12 453 22 379 -12 m 689 1004 b 416 829 688 900 581 829 b 148 1004 252 829 147 900 l 298 1004 b 416 927 297 967 331 927 b 535 1004 503 927 534 967 m 369 160 b 489 268 431 160 489 199 l 489 331 b 381 304 461 320 424 311 b 290 225 318 294 290 264 b 369 160 290 182 323 160 m 444 1113 l 612 1113 l 481 992 l 347 992 "},"ặ":{"ha":821,"x_min":0,"x_max":0,"o":"m 280 -12 b 34 209 135 -12 34 58 b 312 450 34 375 155 438 b 487 517 439 459 487 473 l 487 519 b 406 580 487 558 454 580 b 314 511 355 580 320 558 l 63 511 b 410 767 73 649 184 767 b 760 519 627 767 760 659 l 760 0 l 505 0 l 505 107 l 499 107 b 280 -12 453 22 379 -12 m 689 1030 b 418 819 688 902 583 819 b 148 1030 252 819 147 902 l 318 1030 b 418 947 317 988 345 947 b 517 1030 489 947 516 986 m 408 -306 b 274 -182 334 -306 274 -250 b 408 -57 274 -113 334 -57 b 543 -182 482 -57 543 -113 b 408 -306 543 -250 482 -306 m 369 160 b 489 268 431 160 489 199 l 489 331 b 381 304 461 320 424 311 b 290 225 318 294 290 264 b 369 160 290 182 323 160 "},"ằ":{"ha":821,"x_min":0,"x_max":0,"o":"m 280 -12 b 34 209 135 -12 34 58 b 312 450 34 375 155 438 b 487 517 439 459 487 473 l 487 519 b 406 580 487 558 454 580 b 314 511 355 580 320 558 l 63 511 b 410 767 73 649 184 767 b 760 519 627 767 760 659 l 760 0 l 505 0 l 505 107 l 499 107 b 280 -12 453 22 379 -12 m 689 1006 b 416 833 688 906 583 833 b 148 1006 252 833 147 906 l 298 1006 b 416 929 297 969 331 929 b 535 1006 501 929 534 969 m 369 160 b 489 268 431 160 489 199 l 489 331 b 381 304 461 320 424 311 b 290 225 318 294 290 264 b 369 160 290 182 323 160 m 227 1113 l 395 1113 l 489 992 l 359 992 "},"ẳ":{"ha":821,"x_min":0,"x_max":0,"o":"m 280 -12 b 34 209 135 -12 34 58 b 312 450 34 375 155 438 b 487 517 439 459 487 473 l 487 519 b 406 580 487 558 454 580 b 314 511 355 580 320 558 l 63 511 b 410 767 73 649 184 767 b 760 519 627 767 760 659 l 760 0 l 505 0 l 505 107 l 499 107 b 280 -12 453 22 379 -12 m 692 982 b 414 811 693 878 585 811 b 138 982 244 811 139 878 l 292 982 b 414 913 293 943 328 913 b 537 982 502 913 538 945 m 329 1010 l 310 1069 b 406 1099 378 1071 407 1083 b 314 1134 407 1130 368 1134 l 320 1219 b 588 1111 496 1219 589 1182 b 481 1038 589 1065 536 1044 l 481 1010 m 369 160 b 489 268 431 160 489 199 l 489 331 b 381 304 461 320 424 311 b 290 225 318 294 290 264 b 369 160 290 182 323 160 "},"ẵ":{"ha":821,"x_min":0,"x_max":0,"o":"m 280 -12 b 34 209 135 -12 34 58 b 312 450 34 375 155 438 b 487 517 439 459 487 473 l 487 519 b 406 580 487 558 454 580 b 314 511 355 580 320 558 l 63 511 b 410 767 73 649 184 767 b 760 519 627 767 760 659 l 760 0 l 505 0 l 505 107 l 499 107 b 280 -12 453 22 379 -12 m 687 982 b 414 809 686 878 580 809 b 144 982 250 809 144 878 l 296 982 b 414 915 295 945 327 915 b 533 982 497 915 532 943 m 623 1170 b 509 1048 623 1107 574 1048 b 335 1089 434 1048 394 1089 b 292 1032 313 1089 291 1065 l 191 1061 b 306 1184 191 1126 238 1184 b 479 1142 364 1184 418 1142 b 519 1201 499 1142 518 1168 m 369 160 b 489 268 431 160 489 199 l 489 331 b 381 304 461 320 424 311 b 290 225 318 294 290 264 b 369 160 290 182 323 160 "},"ǎ":{"ha":821,"x_min":0,"x_max":0,"o":"m 280 -12 b 34 209 135 -12 34 58 b 312 450 34 375 155 438 b 487 517 439 459 487 473 l 487 519 b 406 580 487 558 454 580 b 314 511 355 580 320 558 l 63 511 b 410 767 73 649 184 767 b 760 519 627 767 760 659 l 760 0 l 505 0 l 505 107 l 499 107 b 280 -12 453 22 379 -12 m 418 971 l 515 1079 l 740 1079 l 740 1073 l 513 848 l 324 848 l 97 1073 l 97 1079 l 322 1079 m 369 160 b 489 268 431 160 489 199 l 489 331 b 381 304 461 320 424 311 b 290 225 318 294 290 264 b 369 160 290 182 323 160 "},"â":{"ha":821,"x_min":0,"x_max":0,"o":"m 280 -12 b 34 209 135 -12 34 58 b 312 450 34 375 155 438 b 487 517 439 459 487 473 l 487 519 b 406 580 487 558 454 580 b 314 511 355 580 320 558 l 63 511 b 410 767 73 649 184 767 b 760 519 627 767 760 659 l 760 0 l 505 0 l 505 107 l 499 107 b 280 -12 453 22 379 -12 m 418 957 l 322 848 l 97 848 l 97 854 l 324 1079 l 513 1079 l 740 854 l 740 848 l 515 848 m 369 160 b 489 268 431 160 489 199 l 489 331 b 381 304 461 320 424 311 b 290 225 318 294 290 264 b 369 160 290 182 323 160 "},"ấ":{"ha":821,"x_min":0,"x_max":0,"o":"m 280 -12 b 34 209 135 -12 34 58 b 312 450 34 375 155 438 b 487 517 439 459 487 473 l 487 519 b 406 580 487 558 454 580 b 314 511 355 580 320 558 l 63 511 b 410 767 73 649 184 767 b 760 519 627 767 760 659 l 760 0 l 505 0 l 505 107 l 499 107 b 280 -12 453 22 379 -12 m 357 969 l 473 969 l 673 833 l 515 833 l 416 902 l 316 833 l 160 833 m 750 1087 l 925 1087 l 752 898 l 621 898 m 369 160 b 489 268 431 160 489 199 l 489 331 b 381 304 461 320 424 311 b 290 225 318 294 290 264 b 369 160 290 182 323 160 "},"ậ":{"ha":821,"x_min":0,"x_max":0,"o":"m 280 -12 b 34 209 135 -12 34 58 b 312 450 34 375 155 438 b 487 517 439 459 487 473 l 487 519 b 406 580 487 558 454 580 b 314 511 355 580 320 558 l 63 511 b 410 767 73 649 184 767 b 760 519 627 767 760 659 l 760 0 l 505 0 l 505 107 l 499 107 b 280 -12 453 22 379 -12 m 418 957 l 322 848 l 97 848 l 97 854 l 324 1079 l 513 1079 l 740 854 l 740 848 l 515 848 m 408 -306 b 274 -182 334 -306 274 -250 b 408 -57 274 -113 334 -57 b 543 -182 482 -57 543 -113 b 408 -306 543 -250 482 -306 m 369 160 b 489 268 431 160 489 199 l 489 331 b 381 304 461 320 424 311 b 290 225 318 294 290 264 b 369 160 290 182 323 160 "},"ầ":{"ha":821,"x_min":0,"x_max":0,"o":"m 280 -12 b 34 209 135 -12 34 58 b 312 450 34 375 155 438 b 487 517 439 459 487 473 l 487 519 b 406 580 487 558 454 580 b 314 511 355 580 320 558 l 63 511 b 410 767 73 649 184 767 b 760 519 627 767 760 659 l 760 0 l 505 0 l 505 107 l 499 107 b 280 -12 453 22 379 -12 m 675 829 l 517 829 l 418 898 l 318 829 l 162 829 l 359 965 l 475 965 m 213 894 l 85 894 l -89 1081 l 83 1081 m 369 160 b 489 268 431 160 489 199 l 489 331 b 381 304 461 320 424 311 b 290 225 318 294 290 264 b 369 160 290 182 323 160 "},"ẩ":{"ha":821,"x_min":0,"x_max":0,"o":"m 280 -12 b 34 209 135 -12 34 58 b 312 450 34 375 155 438 b 487 517 439 459 487 473 l 487 519 b 406 580 487 558 454 580 b 314 511 355 580 320 558 l 63 511 b 410 767 73 649 184 767 b 760 519 627 767 760 659 l 760 0 l 505 0 l 505 107 l 499 107 b 280 -12 453 22 379 -12 m 606 913 l 590 977 b 671 1010 647 979 671 992 b 592 1046 671 1040 637 1046 l 598 1134 b 821 1022 742 1134 821 1095 b 732 945 821 979 775 953 l 732 913 m 671 833 l 511 833 l 418 894 l 322 833 l 162 833 l 361 969 l 472 969 m 369 160 b 489 268 431 160 489 199 l 489 331 b 381 304 461 320 424 311 b 290 225 318 294 290 264 b 369 160 290 182 323 160 "},"ẫ":{"ha":821,"x_min":0,"x_max":0,"o":"m 280 -12 b 34 209 135 -12 34 58 b 312 450 34 375 155 438 b 487 517 439 459 487 473 l 487 519 b 406 580 487 558 454 580 b 314 511 355 580 320 558 l 63 511 b 410 767 73 649 184 767 b 760 519 627 767 760 659 l 760 0 l 505 0 l 505 107 l 499 107 b 280 -12 453 22 379 -12 m 675 838 l 515 838 l 418 908 l 326 838 l 162 838 l 357 981 l 481 981 m 602 1113 b 521 1006 601 1059 574 1006 b 365 1048 461 1006 412 1048 b 343 1002 347 1048 343 1028 l 260 1026 b 341 1128 260 1075 288 1128 b 497 1089 388 1128 451 1089 b 517 1144 512 1089 516 1119 m 369 160 b 489 268 431 160 489 199 l 489 331 b 381 304 461 320 424 311 b 290 225 318 294 290 264 b 369 160 290 182 323 160 "},"ȁ":{"ha":821,"x_min":0,"x_max":0,"o":"m 280 -12 b 34 209 135 -12 34 58 b 312 450 34 375 155 438 b 487 517 439 459 487 473 l 487 519 b 406 580 487 558 454 580 b 314 511 355 580 320 558 l 63 511 b 410 767 73 649 184 767 b 760 519 627 767 760 659 l 760 0 l 505 0 l 505 107 l 499 107 b 280 -12 453 22 379 -12 m 56 1073 l 289 1073 l 384 852 l 204 852 m 376 1073 l 596 1073 l 646 852 l 472 852 m 369 160 b 489 268 431 160 489 199 l 489 331 b 381 304 461 320 424 311 b 290 225 318 294 290 264 b 369 160 290 182 323 160 "},"ä":{"ha":821,"x_min":0,"x_max":0,"o":"m 280 -12 b 34 209 135 -12 34 58 b 312 450 34 375 155 438 b 487 517 439 459 487 473 l 487 519 b 406 580 487 558 454 580 b 314 511 355 580 320 558 l 63 511 b 410 767 73 649 184 767 b 760 519 627 767 760 659 l 760 0 l 505 0 l 505 107 l 499 107 b 280 -12 453 22 379 -12 m 262 846 b 142 961 195 846 142 898 b 262 1075 142 1024 195 1075 b 381 961 327 1075 381 1024 b 262 846 381 898 327 846 m 576 846 b 456 961 509 846 456 898 b 576 1075 456 1024 509 1075 b 694 961 641 1075 694 1024 b 576 846 694 898 641 846 m 369 160 b 489 268 431 160 489 199 l 489 331 b 381 304 461 320 424 311 b 290 225 318 294 290 264 b 369 160 290 182 323 160 "},"ǟ":{"ha":821,"x_min":0,"x_max":0,"o":"m 280 -12 b 34 209 135 -12 34 58 b 312 450 34 375 155 438 b 487 517 439 459 487 473 l 487 519 b 406 580 487 558 454 580 b 314 511 355 580 320 558 l 63 511 b 410 767 73 649 184 767 b 760 519 627 767 760 659 l 760 0 l 505 0 l 505 107 l 499 107 b 280 -12 453 22 379 -12 m 665 1138 l 172 1138 l 172 1263 l 665 1263 m 262 846 b 142 961 195 846 142 898 b 262 1075 142 1024 195 1075 b 381 961 327 1075 381 1024 b 262 846 381 898 327 846 m 576 846 b 456 961 509 846 456 898 b 576 1075 456 1024 509 1075 b 694 961 641 1075 694 1024 b 576 846 694 898 641 846 m 369 160 b 489 268 431 160 489 199 l 489 331 b 381 304 461 320 424 311 b 290 225 318 294 290 264 b 369 160 290 182 323 160 "},"ȧ":{"ha":821,"x_min":0,"x_max":0,"o":"m 280 -12 b 34 209 135 -12 34 58 b 312 450 34 375 155 438 b 487 517 439 459 487 473 l 487 519 b 406 580 487 558 454 580 b 314 511 355 580 320 558 l 63 511 b 410 767 73 649 184 767 b 760 519 627 767 760 659 l 760 0 l 505 0 l 505 107 l 499 107 b 280 -12 453 22 379 -12 m 418 836 b 284 961 344 836 284 892 b 418 1085 284 1029 344 1085 b 552 961 492 1085 552 1029 b 418 836 552 892 492 836 m 369 160 b 489 268 431 160 489 199 l 489 331 b 381 304 461 320 424 311 b 290 225 318 294 290 264 b 369 160 290 182 323 160 "},"ạ":{"ha":821,"x_min":0,"x_max":0,"o":"m 280 -12 b 34 209 135 -12 34 58 b 312 450 34 375 155 438 b 487 517 439 459 487 473 l 487 519 b 406 580 487 558 454 580 b 314 511 355 580 320 558 l 63 511 b 410 767 73 649 184 767 b 760 519 627 767 760 659 l 760 0 l 505 0 l 505 107 l 499 107 b 280 -12 453 22 379 -12 m 408 -306 b 274 -182 334 -306 274 -250 b 408 -57 274 -113 334 -57 b 543 -182 482 -57 543 -113 b 408 -306 543 -250 482 -306 m 369 160 b 489 268 431 160 489 199 l 489 331 b 381 304 461 320 424 311 b 290 225 318 294 290 264 b 369 160 290 182 323 160 "},"ǡ":{"ha":821,"x_min":0,"x_max":0,"o":"m 280 -12 b 34 209 135 -12 34 58 b 312 450 34 375 155 438 b 487 517 439 459 487 473 l 487 519 b 406 580 487 558 454 580 b 314 511 355 580 320 558 l 63 511 b 410 767 73 649 184 767 b 760 519 627 767 760 659 l 760 0 l 505 0 l 505 107 l 499 107 b 280 -12 453 22 379 -12 m 665 1132 l 172 1132 l 172 1257 l 665 1257 m 419 840 b 298 954 352 840 298 892 b 419 1069 298 1018 352 1069 b 539 954 485 1069 539 1018 b 419 840 539 892 485 840 m 369 160 b 489 268 431 160 489 199 l 489 331 b 381 304 461 320 424 311 b 290 225 318 294 290 264 b 369 160 290 182 323 160 "},"à":{"ha":821,"x_min":0,"x_max":0,"o":"m 280 -12 b 34 209 135 -12 34 58 b 312 450 34 375 155 438 b 487 517 439 459 487 473 l 487 519 b 406 580 487 558 454 580 b 314 511 355 580 320 558 l 63 511 b 410 767 73 649 184 767 b 760 519 627 767 760 659 l 760 0 l 505 0 l 505 107 l 499 107 b 280 -12 453 22 379 -12 m 182 1073 l 414 1073 l 509 852 l 329 852 m 369 160 b 489 268 431 160 489 199 l 489 331 b 381 304 461 320 424 311 b 290 225 318 294 290 264 b 369 160 290 182 323 160 "},"ả":{"ha":821,"x_min":0,"x_max":0,"o":"m 280 -12 b 34 209 135 -12 34 58 b 312 450 34 375 155 438 b 487 517 439 459 487 473 l 487 519 b 406 580 487 558 454 580 b 314 511 355 580 320 558 l 63 511 b 410 767 73 649 184 767 b 760 519 627 767 760 659 l 760 0 l 505 0 l 505 107 l 499 107 b 280 -12 453 22 379 -12 m 318 870 l 300 947 b 397 988 370 949 398 967 b 304 1030 398 1024 358 1030 l 310 1138 b 619 1002 512 1138 620 1089 b 513 909 620 947 567 917 l 513 870 m 369 160 b 489 268 431 160 489 199 l 489 331 b 381 304 461 320 424 311 b 290 225 318 294 290 264 b 369 160 290 182 323 160 "},"ȃ":{"ha":821,"x_min":0,"x_max":0,"o":"m 280 -12 b 34 209 135 -12 34 58 b 312 450 34 375 155 438 b 487 517 439 459 487 473 l 487 519 b 406 580 487 558 454 580 b 314 511 355 580 320 558 l 63 511 b 410 767 73 649 184 767 b 760 519 627 767 760 659 l 760 0 l 505 0 l 505 107 l 499 107 b 280 -12 453 22 379 -12 m 146 876 b 416 1095 145 1004 250 1095 b 689 876 581 1095 688 1004 l 517 876 b 416 957 516 917 488 957 b 318 876 344 957 317 917 l 146 876 m 369 160 b 489 268 431 160 489 199 l 489 331 b 381 304 461 320 424 311 b 290 225 318 294 290 264 b 369 160 290 182 323 160 "},"ā":{"ha":821,"x_min":0,"x_max":0,"o":"m 280 -12 b 34 209 135 -12 34 58 b 312 450 34 375 155 438 b 487 517 439 459 487 473 l 487 519 b 406 580 487 558 454 580 b 314 511 355 580 320 558 l 63 511 b 410 767 73 649 184 767 b 760 519 627 767 760 659 l 760 0 l 505 0 l 505 107 l 499 107 b 280 -12 453 22 379 -12 m 665 886 l 172 886 l 172 1010 l 665 1010 m 369 160 b 489 268 431 160 489 199 l 489 331 b 381 304 461 320 424 311 b 290 225 318 294 290 264 b 369 160 290 182 323 160 "},"ą":{"ha":821,"x_min":0,"x_max":0,"o":"m 280 -12 b 34 209 135 -12 34 58 b 312 450 34 375 155 438 b 487 517 439 459 487 473 l 487 519 b 406 580 487 558 454 580 b 314 511 355 580 320 558 l 63 511 b 410 767 73 649 184 767 b 760 519 627 767 760 659 l 760 0 b 661 -79 696 -20 660 -39 b 706 -130 660 -112 680 -130 b 748 -122 724 -130 735 -124 l 779 -245 b 661 -274 753 -258 714 -274 b 479 -144 570 -274 505 -227 b 505 44 458 -75 470 3 l 505 107 l 499 107 b 280 -12 453 22 379 -12 m 369 160 b 489 268 431 160 489 199 l 489 331 b 381 304 461 320 424 311 b 290 225 318 294 290 264 b 369 160 290 182 323 160 "},"ẚ":{"ha":821,"x_min":0,"x_max":0,"o":"m 280 -12 b 34 209 135 -12 34 58 b 312 450 34 375 155 438 b 487 517 439 459 487 473 l 487 519 b 406 580 487 558 454 580 b 314 511 355 580 320 558 l 63 511 b 410 767 73 649 184 767 b 760 519 627 767 760 659 l 760 0 l 505 0 l 505 107 l 499 107 b 280 -12 453 22 379 -12 m 359 955 b 404 994 385 955 404 972 b 359 1037 404 1019 385 1037 l 359 1132 b 499 994 436 1132 499 1075 b 359 862 499 915 436 862 m 369 160 b 489 268 431 160 489 199 l 489 331 b 381 304 461 320 424 311 b 290 225 318 294 290 264 b 369 160 290 182 323 160 "},"å":{"ha":821,"x_min":0,"x_max":0,"o":"m 280 -12 b 34 209 135 -12 34 58 b 312 450 34 375 155 438 b 487 517 439 459 487 473 l 487 519 b 406 580 487 558 454 580 b 314 511 355 580 320 558 l 63 511 b 410 767 73 649 184 767 b 760 519 627 767 760 659 l 760 0 l 505 0 l 505 107 l 499 107 b 280 -12 453 22 379 -12 m 418 836 b 256 994 329 836 256 908 b 418 1152 256 1081 329 1152 b 580 994 507 1152 580 1081 b 418 836 580 908 507 836 m 369 160 b 489 268 431 160 489 199 l 489 331 b 381 304 461 320 424 311 b 290 225 318 294 290 264 b 369 160 290 182 323 160 m 418 933 b 483 994 454 934 483 961 b 418 1055 483 1028 454 1056 b 353 994 382 1055 353 1028 b 418 933 353 961 382 933 "},"ǻ":{"ha":821,"x_min":0,"x_max":0,"o":"m 280 -12 b 34 209 135 -12 34 58 b 312 450 34 375 155 438 b 487 517 439 459 487 473 l 487 519 b 406 580 487 558 454 580 b 314 511 355 580 320 558 l 63 511 b 410 767 73 649 184 767 b 760 519 627 767 760 659 l 760 0 l 505 0 l 505 107 l 499 107 b 280 -12 453 22 379 -12 m 418 820 b 260 964 331 820 260 885 b 418 1109 260 1044 331 1109 b 576 964 506 1109 576 1044 b 418 820 576 885 506 820 m 438 1316 l 647 1316 l 499 1160 l 339 1160 m 369 160 b 489 268 431 160 489 199 l 489 331 b 381 304 461 320 424 311 b 290 225 318 294 290 264 b 369 160 290 182 323 160 m 418 908 b 481 964 452 908 481 933 b 418 1020 481 995 453 1021 b 355 964 384 1020 355 995 b 418 908 355 933 383 908 "},"":{"ha":821,"x_min":0,"x_max":0,"o":"m 280 -12 b 34 209 135 -12 34 58 b 312 450 34 375 155 438 b 487 517 439 459 487 473 l 487 519 b 406 580 487 558 454 580 b 314 511 355 580 320 558 l 63 511 b 410 767 73 649 184 767 b 760 519 627 767 760 659 l 760 0 b 661 -79 696 -20 660 -39 b 706 -130 660 -112 680 -130 b 748 -122 724 -130 735 -124 l 779 -245 b 661 -274 753 -258 714 -274 b 479 -144 570 -274 505 -227 b 505 44 458 -75 470 3 l 505 107 l 499 107 b 280 -12 453 22 379 -12 m 418 836 b 256 994 329 836 256 908 b 418 1152 256 1081 329 1152 b 580 994 507 1152 580 1081 b 418 836 580 908 507 836 m 369 160 b 489 268 431 160 489 199 l 489 331 b 381 304 461 320 424 311 b 290 225 318 294 290 264 b 369 160 290 182 323 160 m 418 933 b 483 994 454 934 483 961 b 418 1055 483 1028 454 1056 b 353 994 382 1055 353 1028 b 418 933 353 961 382 933 "},"ḁ":{"ha":821,"x_min":0,"x_max":0,"o":"m 280 -12 b 34 209 135 -12 34 58 b 312 450 34 375 155 438 b 487 517 439 459 487 473 l 487 519 b 406 580 487 558 454 580 b 314 511 355 580 320 558 l 63 511 b 410 767 73 649 184 767 b 760 519 627 767 760 659 l 760 0 l 505 0 l 505 107 l 499 107 b 280 -12 453 22 379 -12 m 268 -146 b 408 -30 268 -83 327 -30 b 545 -146 485 -30 545 -83 b 408 -264 545 -215 485 -264 b 268 -146 327 -264 268 -213 m 369 160 b 489 268 431 160 489 199 l 489 331 b 381 304 461 320 424 311 b 290 225 318 294 290 264 b 369 160 290 182 323 160 m 359 -146 b 408 -191 359 -174 379 -191 b 452 -146 434 -191 452 -174 b 408 -105 452 -122 434 -105 b 359 -146 379 -105 359 -122 "},"ã":{"ha":821,"x_min":0,"x_max":0,"o":"m 280 -12 b 34 209 135 -12 34 58 b 312 450 34 375 155 438 b 487 517 439 459 487 473 l 487 519 b 406 580 487 558 454 580 b 314 511 355 580 320 558 l 63 511 b 410 767 73 649 184 767 b 760 519 627 767 760 659 l 760 0 l 505 0 l 505 107 l 499 107 b 280 -12 453 22 379 -12 m 150 852 b 318 1063 150 994 224 1063 b 445 1012 378 1064 415 1035 b 501 982 465 996 482 982 b 554 1059 539 983 553 1012 l 687 1059 b 519 846 685 920 611 847 b 394 897 458 846 423 874 b 335 927 373 913 356 927 b 284 852 304 927 284 902 m 369 160 b 489 268 431 160 489 199 l 489 331 b 381 304 461 320 424 311 b 290 225 318 294 290 264 b 369 160 290 182 323 160 "},"ɐ":{"ha":821,"x_min":0,"x_max":0,"o":"m 541 769 b 787 548 686 769 787 699 b 509 308 787 382 665 319 b 333 241 382 298 333 285 l 333 239 b 414 178 333 199 367 178 b 507 247 466 178 501 200 l 758 247 b 410 -10 748 109 637 -10 b 61 239 194 -10 61 99 l 61 758 l 316 758 l 316 651 l 322 651 b 541 769 367 736 442 769 m 452 598 b 331 489 390 598 331 558 l 331 426 b 440 454 360 438 397 447 b 531 533 503 464 531 494 b 452 598 531 575 498 598 "},"а":{"ha":821,"x_min":0,"x_max":0,"o":"m 280 -12 b 34 209 135 -12 34 58 b 312 450 34 375 155 438 b 487 517 439 459 487 473 l 487 519 b 406 580 487 558 454 580 b 314 511 355 580 320 558 l 63 511 b 410 767 73 649 184 767 b 760 519 627 767 760 659 l 760 0 l 505 0 l 505 107 l 499 107 b 280 -12 453 22 379 -12 m 369 160 b 489 268 431 160 489 199 l 489 331 b 381 304 461 320 424 311 b 290 225 318 294 290 264 b 369 160 290 182 323 160 "},"ӑ":{"ha":821,"x_min":0,"x_max":0,"o":"m 280 -12 b 34 209 135 -12 34 58 b 312 450 34 375 155 438 b 487 517 439 459 487 473 l 487 519 b 406 580 487 558 454 580 b 314 511 355 580 320 558 l 63 511 b 410 767 73 649 184 767 b 760 519 627 767 760 659 l 760 0 l 505 0 l 505 107 l 499 107 b 280 -12 453 22 379 -12 m 689 1030 b 418 819 688 902 583 819 b 148 1030 252 819 147 902 l 318 1030 b 418 947 317 988 345 947 b 517 1030 489 947 516 986 m 369 160 b 489 268 431 160 489 199 l 489 331 b 381 304 461 320 424 311 b 290 225 318 294 290 264 b 369 160 290 182 323 160 "},"ӓ":{"ha":821,"x_min":0,"x_max":0,"o":"m 280 -12 b 34 209 135 -12 34 58 b 312 450 34 375 155 438 b 487 517 439 459 487 473 l 487 519 b 406 580 487 558 454 580 b 314 511 355 580 320 558 l 63 511 b 410 767 73 649 184 767 b 760 519 627 767 760 659 l 760 0 l 505 0 l 505 107 l 499 107 b 280 -12 453 22 379 -12 m 262 846 b 142 961 195 846 142 898 b 262 1075 142 1024 195 1075 b 381 961 327 1075 381 1024 b 262 846 381 898 327 846 m 576 846 b 456 961 509 846 456 898 b 576 1075 456 1024 509 1075 b 694 961 641 1075 694 1024 b 576 846 694 898 641 846 m 369 160 b 489 268 431 160 489 199 l 489 331 b 381 304 461 320 424 311 b 290 225 318 294 290 264 b 369 160 290 182 323 160 "},"æ":{"ha":1259,"x_min":0,"x_max":0,"o":"m 868 -14 b 597 114 753 -14 649 26 l 594 114 b 300 -12 546 30 427 -12 b 34 209 135 -12 34 59 b 312 450 34 375 156 438 b 487 517 440 460 487 473 l 487 519 b 406 580 487 559 454 580 b 314 511 355 580 320 558 l 63 511 b 416 767 73 649 182 767 b 612 684 508 767 575 736 b 840 767 674 744 750 767 b 1217 379 1069 767 1217 620 l 1217 316 l 724 316 l 724 304 b 852 178 724 231 771 178 b 969 245 908 178 953 202 l 1217 245 b 868 -14 1192 87 1052 -14 m 369 160 b 489 268 431 160 489 199 l 489 331 b 381 304 461 320 424 311 b 290 225 318 294 290 264 b 369 160 290 182 323 160 m 967 466 b 846 576 965 531 913 576 b 724 466 779 576 726 531 "},"ǣ":{"ha":1259,"x_min":0,"x_max":0,"o":"m 868 -14 b 597 114 753 -14 649 26 l 594 114 b 300 -12 546 30 427 -12 b 34 209 135 -12 34 59 b 312 450 34 375 156 438 b 487 517 440 460 487 473 l 487 519 b 406 580 487 559 454 580 b 314 511 355 580 320 558 l 63 511 b 416 767 73 649 182 767 b 612 684 508 767 575 736 b 840 767 674 744 750 767 b 1217 379 1069 767 1217 620 l 1217 316 l 724 316 l 724 304 b 852 178 724 231 771 178 b 969 245 908 178 953 202 l 1217 245 b 868 -14 1192 87 1052 -14 m 858 886 l 365 886 l 365 1010 l 858 1010 m 369 160 b 489 268 431 160 489 199 l 489 331 b 381 304 461 320 424 311 b 290 225 318 294 290 264 b 369 160 290 182 323 160 m 967 466 b 846 576 965 531 913 576 b 724 466 779 576 726 531 "},"ǽ":{"ha":1259,"x_min":0,"x_max":0,"o":"m 868 -14 b 597 114 753 -14 649 26 l 594 114 b 300 -12 546 30 427 -12 b 34 209 135 -12 34 59 b 312 450 34 375 156 438 b 487 517 440 460 487 473 l 487 519 b 406 580 487 559 454 580 b 314 511 355 580 320 558 l 63 511 b 416 767 73 649 182 767 b 612 684 508 767 575 736 b 840 767 674 744 750 767 b 1217 379 1069 767 1217 620 l 1217 316 l 724 316 l 724 304 b 852 178 724 231 771 178 b 969 245 908 178 953 202 l 1217 245 b 868 -14 1192 87 1052 -14 m 616 1073 l 848 1073 l 700 852 l 521 852 m 369 160 b 489 268 431 160 489 199 l 489 331 b 381 304 461 320 424 311 b 290 225 318 294 290 264 b 369 160 290 182 323 160 m 967 466 b 846 576 965 531 913 576 b 724 466 779 576 726 531 "},"ӕ":{"ha":1259,"x_min":0,"x_max":0,"o":"m 868 -14 b 597 114 753 -14 649 26 l 594 114 b 300 -12 546 30 427 -12 b 34 209 135 -12 34 59 b 312 450 34 375 156 438 b 487 517 440 460 487 473 l 487 519 b 406 580 487 559 454 580 b 314 511 355 580 320 558 l 63 511 b 416 767 73 649 182 767 b 612 684 508 767 575 736 b 840 767 674 744 750 767 b 1217 379 1069 767 1217 620 l 1217 316 l 724 316 l 724 304 b 852 178 724 231 771 178 b 969 245 908 178 953 202 l 1217 245 b 868 -14 1192 87 1052 -14 m 369 160 b 489 268 431 160 489 199 l 489 331 b 381 304 461 320 424 311 b 290 225 318 294 290 264 b 369 160 290 182 323 160 m 967 466 b 846 576 965 531 913 576 b 724 466 779 576 726 531 "},"":{"ha":896,"x_min":0,"x_max":0,"o":"m 343 -10 b 45 379 182 -10 45 116 b 341 767 45 653 191 767 b 554 625 454 767 525 702 l 558 625 l 558 758 l 831 758 l 831 0 l 560 0 l 560 124 l 554 124 b 343 -10 523 47 450 -10 m 444 199 b 564 379 519 199 564 268 b 444 558 564 491 519 558 b 326 379 369 558 326 491 b 444 199 326 266 369 199 "},"":{"ha":896,"x_min":0,"x_max":0,"o":"m 343 -10 b 45 379 182 -10 45 116 b 341 767 45 653 191 767 b 554 625 454 767 525 702 l 558 625 l 558 758 l 831 758 l 831 0 l 560 0 l 560 124 l 554 124 b 343 -10 523 47 450 -10 m 444 199 b 564 379 519 199 564 268 b 444 558 564 491 519 558 b 326 379 369 558 326 491 b 444 199 326 266 369 199 m 462 1073 l 694 1073 l 546 852 l 367 852 "},"":{"ha":896,"x_min":0,"x_max":0,"o":"m 343 -10 b 45 379 182 -10 45 116 b 341 767 45 653 191 767 b 554 625 454 767 525 702 l 558 625 l 558 758 l 831 758 l 831 0 l 560 0 l 560 124 l 554 124 b 343 -10 523 47 450 -10 m 728 1030 b 458 819 727 902 623 819 b 187 1030 291 819 187 902 l 357 1030 b 458 947 357 988 384 947 b 556 1030 528 947 556 986 m 444 199 b 564 379 519 199 564 268 b 444 558 564 491 519 558 b 326 379 369 558 326 491 b 444 199 326 266 369 199 "},"":{"ha":896,"x_min":0,"x_max":0,"o":"m 343 -10 b 45 379 182 -10 45 116 b 341 767 45 653 191 767 b 554 625 454 767 525 702 l 558 625 l 558 758 l 831 758 l 831 0 l 560 0 l 560 124 l 554 124 b 343 -10 523 47 450 -10 m 444 199 b 564 379 519 199 564 268 b 444 558 564 491 519 558 b 326 379 369 558 326 491 b 444 199 326 266 369 199 m 728 1004 b 456 829 727 900 621 829 b 187 1004 291 829 187 900 l 337 1004 b 456 927 337 967 370 927 b 574 1004 542 927 574 967 m 483 1113 l 651 1113 l 521 992 l 387 992 "},"":{"ha":896,"x_min":0,"x_max":0,"o":"m 343 -10 b 45 379 182 -10 45 116 b 341 767 45 653 191 767 b 554 625 454 767 525 702 l 558 625 l 558 758 l 831 758 l 831 0 l 560 0 l 560 124 l 554 124 b 343 -10 523 47 450 -10 m 728 1030 b 458 819 727 902 623 819 b 187 1030 291 819 187 902 l 357 1030 b 458 947 357 988 384 947 b 556 1030 528 947 556 986 m 444 199 b 564 379 519 199 564 268 b 444 558 564 491 519 558 b 326 379 369 558 326 491 b 444 199 326 266 369 199 m 448 -306 b 314 -182 374 -306 314 -250 b 448 -57 314 -113 374 -57 b 582 -182 522 -57 582 -113 b 448 -306 582 -250 522 -306 "},"":{"ha":896,"x_min":0,"x_max":0,"o":"m 343 -10 b 45 379 182 -10 45 116 b 341 767 45 653 191 767 b 554 625 454 767 525 702 l 558 625 l 558 758 l 831 758 l 831 0 l 560 0 l 560 124 l 554 124 b 343 -10 523 47 450 -10 m 444 199 b 564 379 519 199 564 268 b 444 558 564 491 519 558 b 326 379 369 558 326 491 b 444 199 326 266 369 199 m 728 1006 b 456 833 727 906 623 833 b 187 1006 291 833 187 906 l 337 1006 b 456 929 337 969 370 929 b 574 1006 540 929 574 969 m 266 1113 l 434 1113 l 529 992 l 399 992 "},"":{"ha":896,"x_min":0,"x_max":0,"o":"m 343 -10 b 45 379 182 -10 45 116 b 341 767 45 653 191 767 b 554 625 454 767 525 702 l 558 625 l 558 758 l 831 758 l 831 0 l 560 0 l 560 124 l 554 124 b 343 -10 523 47 450 -10 m 444 199 b 564 379 519 199 564 268 b 444 558 564 491 519 558 b 326 379 369 558 326 491 b 444 199 326 266 369 199 m 732 982 b 454 811 733 878 624 811 b 178 982 283 811 179 878 l 331 982 b 454 913 332 943 368 913 b 576 982 542 913 577 945 m 369 1010 l 349 1069 b 446 1099 417 1071 447 1083 b 353 1134 447 1130 407 1134 l 359 1219 b 627 1111 536 1219 628 1182 b 521 1038 628 1065 575 1044 l 521 1010 "},"":{"ha":896,"x_min":0,"x_max":0,"o":"m 343 -10 b 45 379 182 -10 45 116 b 341 767 45 653 191 767 b 554 625 454 767 525 702 l 558 625 l 558 758 l 831 758 l 831 0 l 560 0 l 560 124 l 554 124 b 343 -10 523 47 450 -10 m 444 199 b 564 379 519 199 564 268 b 444 558 564 491 519 558 b 326 379 369 558 326 491 b 444 199 326 266 369 199 m 726 982 b 454 809 726 878 619 809 b 183 982 290 809 183 878 l 335 982 b 454 915 335 945 366 915 b 572 982 536 915 572 943 m 663 1170 b 548 1048 662 1107 613 1048 b 375 1089 473 1048 434 1089 b 331 1032 353 1089 331 1065 l 231 1061 b 345 1184 230 1126 278 1184 b 519 1142 404 1184 457 1142 b 558 1201 538 1142 558 1168 "},"":{"ha":896,"x_min":0,"x_max":0,"o":"m 343 -10 b 45 379 182 -10 45 116 b 341 767 45 653 191 767 b 554 625 454 767 525 702 l 558 625 l 558 758 l 831 758 l 831 0 l 560 0 l 560 124 l 554 124 b 343 -10 523 47 450 -10 m 458 971 l 554 1079 l 779 1079 l 779 1073 l 552 848 l 363 848 l 136 1073 l 136 1079 l 361 1079 m 444 199 b 564 379 519 199 564 268 b 444 558 564 491 519 558 b 326 379 369 558 326 491 b 444 199 326 266 369 199 "},"":{"ha":896,"x_min":0,"x_max":0,"o":"m 343 -10 b 45 379 182 -10 45 116 b 341 767 45 653 191 767 b 554 625 454 767 525 702 l 558 625 l 558 758 l 831 758 l 831 0 l 560 0 l 560 124 l 554 124 b 343 -10 523 47 450 -10 m 458 957 l 361 848 l 136 848 l 136 854 l 363 1079 l 552 1079 l 779 854 l 779 848 l 554 848 m 444 199 b 564 379 519 199 564 268 b 444 558 564 491 519 558 b 326 379 369 558 326 491 b 444 199 326 266 369 199 "},"":{"ha":896,"x_min":0,"x_max":0,"o":"m 343 -10 b 45 379 182 -10 45 116 b 341 767 45 653 191 767 b 554 625 454 767 525 702 l 558 625 l 558 758 l 831 758 l 831 0 l 560 0 l 560 124 l 554 124 b 343 -10 523 47 450 -10 m 444 199 b 564 379 519 199 564 268 b 444 558 564 491 519 558 b 326 379 369 558 326 491 b 444 199 326 266 369 199 m 397 969 l 513 969 l 712 833 l 554 833 l 456 902 l 355 833 l 199 833 m 789 1087 l 965 1087 l 791 898 l 661 898 "},"":{"ha":896,"x_min":0,"x_max":0,"o":"m 343 -10 b 45 379 182 -10 45 116 b 341 767 45 653 191 767 b 554 625 454 767 525 702 l 558 625 l 558 758 l 831 758 l 831 0 l 560 0 l 560 124 l 554 124 b 343 -10 523 47 450 -10 m 458 957 l 361 848 l 136 848 l 136 854 l 363 1079 l 552 1079 l 779 854 l 779 848 l 554 848 m 444 199 b 564 379 519 199 564 268 b 444 558 564 491 519 558 b 326 379 369 558 326 491 b 444 199 326 266 369 199 m 448 -306 b 314 -182 374 -306 314 -250 b 448 -57 314 -113 374 -57 b 582 -182 522 -57 582 -113 b 448 -306 582 -250 522 -306 "},"":{"ha":896,"x_min":0,"x_max":0,"o":"m 343 -10 b 45 379 182 -10 45 116 b 341 767 45 653 191 767 b 554 625 454 767 525 702 l 558 625 l 558 758 l 831 758 l 831 0 l 560 0 l 560 124 l 554 124 b 343 -10 523 47 450 -10 m 444 199 b 564 379 519 199 564 268 b 444 558 564 491 519 558 b 326 379 369 558 326 491 b 444 199 326 266 369 199 m 714 829 l 556 829 l 458 898 l 357 829 l 201 829 l 399 965 l 515 965 m 253 894 l 124 894 l -49 1081 l 122 1081 "},"":{"ha":896,"x_min":0,"x_max":0,"o":"m 343 -10 b 45 379 182 -10 45 116 b 341 767 45 653 191 767 b 554 625 454 767 525 702 l 558 625 l 558 758 l 831 758 l 831 0 l 560 0 l 560 124 l 554 124 b 343 -10 523 47 450 -10 m 444 199 b 564 379 519 199 564 268 b 444 558 564 491 519 558 b 326 379 369 558 326 491 b 444 199 326 266 369 199 m 645 913 l 629 977 b 710 1010 687 979 710 992 b 631 1046 710 1040 677 1046 l 637 1134 b 860 1022 781 1134 860 1095 b 771 945 860 979 815 953 l 771 913 m 710 833 l 550 833 l 458 894 l 361 833 l 201 833 l 400 969 l 511 969 "},"":{"ha":896,"x_min":0,"x_max":0,"o":"m 343 -10 b 45 379 182 -10 45 116 b 341 767 45 653 191 767 b 554 625 454 767 525 702 l 558 625 l 558 758 l 831 758 l 831 0 l 560 0 l 560 124 l 554 124 b 343 -10 523 47 450 -10 m 444 199 b 564 379 519 199 564 268 b 444 558 564 491 519 558 b 326 379 369 558 326 491 b 444 199 326 266 369 199 m 714 838 l 554 838 l 458 908 l 365 838 l 201 838 l 397 981 l 521 981 m 641 1113 b 560 1006 641 1059 613 1006 b 404 1048 501 1006 451 1048 b 383 1002 386 1048 382 1028 l 300 1026 b 381 1128 299 1075 327 1128 b 537 1089 428 1128 491 1089 b 556 1144 552 1089 556 1119 "},"":{"ha":896,"x_min":0,"x_max":0,"o":"m 343 -10 b 45 379 182 -10 45 116 b 341 767 45 653 191 767 b 554 625 454 767 525 702 l 558 625 l 558 758 l 831 758 l 831 0 l 560 0 l 560 124 l 554 124 b 343 -10 523 47 450 -10 m 444 199 b 564 379 519 199 564 268 b 444 558 564 491 519 558 b 326 379 369 558 326 491 b 444 199 326 266 369 199 m 96 1073 l 328 1073 l 423 852 l 244 852 m 415 1073 l 635 1073 l 686 852 l 511 852 "},"":{"ha":896,"x_min":0,"x_max":0,"o":"m 343 -10 b 45 379 182 -10 45 116 b 341 767 45 653 191 767 b 554 625 454 767 525 702 l 558 625 l 558 758 l 831 758 l 831 0 l 560 0 l 560 124 l 554 124 b 343 -10 523 47 450 -10 m 444 199 b 564 379 519 199 564 268 b 444 558 564 491 519 558 b 326 379 369 558 326 491 b 444 199 326 266 369 199 m 302 846 b 182 961 235 846 182 898 b 302 1075 182 1024 235 1075 b 420 961 367 1075 420 1024 b 302 846 420 898 367 846 m 616 846 b 495 961 548 846 495 898 b 616 1075 495 1024 548 1075 b 734 961 681 1075 734 1024 b 616 846 734 898 681 846 "},"":{"ha":896,"x_min":0,"x_max":0,"o":"m 343 -10 b 45 379 182 -10 45 116 b 341 767 45 653 191 767 b 554 625 454 767 525 702 l 558 625 l 558 758 l 831 758 l 831 0 l 560 0 l 560 124 l 554 124 b 343 -10 523 47 450 -10 m 444 199 b 564 379 519 199 564 268 b 444 558 564 491 519 558 b 326 379 369 558 326 491 b 444 199 326 266 369 199 m 704 1138 l 211 1138 l 211 1263 l 704 1263 m 302 846 b 182 961 235 846 182 898 b 302 1075 182 1024 235 1075 b 420 961 367 1075 420 1024 b 302 846 420 898 367 846 m 616 846 b 495 961 548 846 495 898 b 616 1075 495 1024 548 1075 b 734 961 681 1075 734 1024 b 616 846 734 898 681 846 "},"":{"ha":896,"x_min":0,"x_max":0,"o":"m 343 -10 b 45 379 182 -10 45 116 b 341 767 45 653 191 767 b 554 625 454 767 525 702 l 558 625 l 558 758 l 831 758 l 831 0 l 560 0 l 560 124 l 554 124 b 343 -10 523 47 450 -10 m 444 199 b 564 379 519 199 564 268 b 444 558 564 491 519 558 b 326 379 369 558 326 491 b 444 199 326 266 369 199 m 458 836 b 324 961 384 836 324 892 b 458 1085 324 1029 384 1085 b 592 961 532 1085 592 1029 b 458 836 592 892 532 836 "},"":{"ha":896,"x_min":0,"x_max":0,"o":"m 343 -10 b 45 379 182 -10 45 116 b 341 767 45 653 191 767 b 554 625 454 767 525 702 l 558 625 l 558 758 l 831 758 l 831 0 l 560 0 l 560 124 l 554 124 b 343 -10 523 47 450 -10 m 444 199 b 564 379 519 199 564 268 b 444 558 564 491 519 558 b 326 379 369 558 326 491 b 444 199 326 266 369 199 m 448 -306 b 314 -182 374 -306 314 -250 b 448 -57 314 -113 374 -57 b 582 -182 522 -57 582 -113 b 448 -306 582 -250 522 -306 "},"":{"ha":896,"x_min":0,"x_max":0,"o":"m 343 -10 b 45 379 182 -10 45 116 b 341 767 45 653 191 767 b 554 625 454 767 525 702 l 558 625 l 558 758 l 831 758 l 831 0 l 560 0 l 560 124 l 554 124 b 343 -10 523 47 450 -10 m 444 199 b 564 379 519 199 564 268 b 444 558 564 491 519 558 b 326 379 369 558 326 491 b 444 199 326 266 369 199 m 704 1132 l 211 1132 l 211 1257 l 704 1257 m 458 840 b 338 954 392 840 338 892 b 458 1069 338 1018 392 1069 b 579 954 524 1069 579 1018 b 458 840 579 892 524 840 "},"":{"ha":896,"x_min":0,"x_max":0,"o":"m 343 -10 b 45 379 182 -10 45 116 b 341 767 45 653 191 767 b 554 625 454 767 525 702 l 558 625 l 558 758 l 831 758 l 831 0 l 560 0 l 560 124 l 554 124 b 343 -10 523 47 450 -10 m 444 199 b 564 379 519 199 564 268 b 444 558 564 491 519 558 b 326 379 369 558 326 491 b 444 199 326 266 369 199 m 221 1073 l 454 1073 l 548 852 l 369 852 "},"":{"ha":896,"x_min":0,"x_max":0,"o":"m 343 -10 b 45 379 182 -10 45 116 b 341 767 45 653 191 767 b 554 625 454 767 525 702 l 558 625 l 558 758 l 831 758 l 831 0 l 560 0 l 560 124 l 554 124 b 343 -10 523 47 450 -10 m 444 199 b 564 379 519 199 564 268 b 444 558 564 491 519 558 b 326 379 369 558 326 491 b 444 199 326 266 369 199 m 357 870 l 339 947 b 436 988 409 949 437 967 b 343 1030 437 1024 398 1030 l 349 1138 b 659 1002 551 1138 660 1089 b 552 909 660 947 607 917 l 552 870 "},"":{"ha":896,"x_min":0,"x_max":0,"o":"m 343 -10 b 45 379 182 -10 45 116 b 341 767 45 653 191 767 b 554 625 454 767 525 702 l 558 625 l 558 758 l 831 758 l 831 0 l 560 0 l 560 124 l 554 124 b 343 -10 523 47 450 -10 m 185 876 b 456 1095 184 1004 289 1095 b 728 876 620 1095 727 1004 l 556 876 b 456 957 555 917 528 957 b 357 876 384 957 356 917 l 185 876 m 444 199 b 564 379 519 199 564 268 b 444 558 564 491 519 558 b 326 379 369 558 326 491 b 444 199 326 266 369 199 "},"":{"ha":896,"x_min":0,"x_max":0,"o":"m 343 -10 b 45 379 182 -10 45 116 b 341 767 45 653 191 767 b 554 625 454 767 525 702 l 558 625 l 558 758 l 831 758 l 831 0 l 560 0 l 560 124 l 554 124 b 343 -10 523 47 450 -10 m 444 199 b 564 379 519 199 564 268 b 444 558 564 491 519 558 b 326 379 369 558 326 491 b 444 199 326 266 369 199 m 704 886 l 211 886 l 211 1010 l 704 1010 "},"":{"ha":896,"x_min":0,"x_max":0,"o":"m 343 -10 b 45 379 182 -10 45 116 b 341 767 45 653 191 767 b 554 625 454 767 525 702 l 558 625 l 558 758 l 831 758 l 831 0 b 732 -79 767 -20 731 -39 b 777 -130 731 -112 751 -130 b 819 -122 795 -130 806 -124 l 850 -245 b 732 -274 824 -258 785 -274 b 550 -144 641 -274 576 -227 b 560 21 533 -87 538 -23 l 560 124 l 554 124 b 343 -10 523 47 450 -10 m 444 199 b 564 379 519 199 564 268 b 444 558 564 491 519 558 b 326 379 369 558 326 491 b 444 199 326 266 369 199 "},"":{"ha":896,"x_min":0,"x_max":0,"o":"m 343 -10 b 45 379 182 -10 45 116 b 341 767 45 653 191 767 b 554 625 454 767 525 702 l 558 625 l 558 758 l 831 758 l 831 0 l 560 0 l 560 124 l 554 124 b 343 -10 523 47 450 -10 m 444 199 b 564 379 519 199 564 268 b 444 558 564 491 519 558 b 326 379 369 558 326 491 b 444 199 326 266 369 199 m 399 955 b 444 994 425 955 444 972 b 399 1037 444 1019 425 1037 l 399 1132 b 539 994 475 1132 539 1075 b 399 862 539 915 475 862 "},"":{"ha":896,"x_min":0,"x_max":0,"o":"m 343 -10 b 45 379 182 -10 45 116 b 341 767 45 653 191 767 b 554 625 454 767 525 702 l 558 625 l 558 758 l 831 758 l 831 0 l 560 0 l 560 124 l 554 124 b 343 -10 523 47 450 -10 m 458 836 b 296 994 369 836 296 908 b 458 1152 296 1081 369 1152 b 619 994 546 1152 619 1081 b 458 836 619 908 546 836 m 444 199 b 564 379 519 199 564 268 b 444 558 564 491 519 558 b 326 379 369 558 326 491 b 444 199 326 266 369 199 m 458 933 b 523 994 494 934 523 961 b 458 1055 523 1028 494 1056 b 393 994 422 1055 393 1028 b 458 933 393 961 422 933 "}}}
